<svg width="51" height="45" viewBox="0 0 51 45" fill="none" xmlns="http://www.w3.org/2000/svg">
<path d="M24.6535 0.373291C23.5348 0.373291 22.6268 1.28124 22.6268 2.39996V36.8533H32.7602V2.39996C32.7602 1.28124 31.8522 0.373291 30.7335 0.373291H24.6535ZM0.333496 4.42662V44.96H51.0002V40.9066H4.38683V4.42662H0.333496ZM38.8402 4.42662C37.7214 4.42662 36.8135 5.33457 36.8135 6.45329V36.8533H46.9468V6.45329C46.9468 5.33457 46.0389 4.42662 44.9202 4.42662H38.8402ZM10.4668 12.5333C9.34811 12.5333 8.44016 13.4412 8.44016 14.56V36.8533H18.5735V14.56C18.5735 13.4412 17.6656 12.5333 16.5468 12.5333H10.4668Z" fill="#FF2156"/>
</svg>
