<svg width="32" height="36" viewBox="0 0 32 36" fill="none" xmlns="http://www.w3.org/2000/svg">
<path d="M31.5456 19.3454C31.5476 18.3383 31.2671 17.3509 30.7358 16.4954C30.2046 15.6399 29.444 14.9506 28.5405 14.5059C27.6369 14.0611 26.6267 13.8788 25.6248 13.9797C24.6228 14.0806 23.6692 14.4605 22.8724 15.0764C22.0757 15.6923 21.4677 16.5194 21.1176 17.4636C20.7675 18.4078 20.6894 19.4314 20.8921 20.4178C21.0948 21.4042 21.5703 22.314 22.2643 23.0437C22.9584 23.7733 23.8433 24.2936 24.8183 24.5454V26.0727C24.8183 27.8617 24.1076 29.5774 22.8426 30.8424C21.5776 32.1074 19.8619 32.8181 18.0729 32.8181C16.2839 32.8181 14.5681 32.1074 13.3031 30.8424C12.0381 29.5774 11.3274 27.8617 11.3274 26.0727C11.3951 24.4666 11.7876 22.891 12.4814 21.441C13.1751 19.991 14.1557 18.6967 15.3638 17.6363H15.182C16.4677 16.7975 17.528 15.656 18.2698 14.3119C19.0116 12.9678 19.4122 11.4622 19.4365 9.9272V4.50902C19.4365 3.43851 19.0112 2.41184 18.2543 1.65488C17.4973 0.897915 16.4707 0.472656 15.4001 0.472656H13.3638C13.0069 0.472656 12.6647 0.614409 12.4124 0.866731C12.1601 1.11905 12.0183 1.46127 12.0183 1.81811C12.0183 2.17495 12.1601 2.51717 12.4124 2.76949C12.6647 3.02181 13.0069 3.16357 13.3638 3.16357H15.3638C15.7206 3.16357 16.0628 3.30532 16.3152 3.55764C16.5675 3.80996 16.7092 4.15218 16.7092 4.50902V9.9272C16.7093 11.7051 16.0055 13.4107 14.7517 14.6713C13.498 15.9319 11.7962 16.6449 10.0183 16.6545V17.6363V16.6545C9.13488 16.6593 8.25915 16.49 7.44112 16.1563C6.6231 15.8227 5.87881 15.3312 5.25074 14.7098C4.62268 14.0885 4.12315 13.3496 3.78066 12.5352C3.43818 11.7209 3.25945 10.847 3.25469 9.96357V4.50902C3.25469 4.15218 3.39644 3.80996 3.64876 3.55764C3.90108 3.30532 4.24331 3.16357 4.60014 3.16357H6.49105C6.84789 3.16357 7.19011 3.02181 7.44243 2.76949C7.69475 2.51717 7.83651 2.17495 7.83651 1.81811C7.83651 1.46127 7.69475 1.11905 7.44243 0.866731C7.19011 0.614409 6.84789 0.472656 6.49105 0.472656H4.60014C3.54229 0.49172 2.53421 0.925379 1.7929 1.68029C1.0516 2.4352 0.636335 3.45099 0.636506 4.50902V9.9272C0.632578 11.4394 0.994257 12.9302 1.69073 14.2725C2.3872 15.6148 3.39783 16.7688 4.63651 17.6363C5.83796 18.6999 6.81172 19.9956 7.49915 21.4455C8.18659 22.8953 8.57347 24.4693 8.63651 26.0727C8.63651 27.3119 8.88059 28.5389 9.35481 29.6838C9.82903 30.8287 10.5241 31.8689 11.4004 32.7452C12.2766 33.6214 13.3169 34.3165 14.4617 34.7907C15.6066 35.2649 16.8337 35.509 18.0729 35.509C19.3121 35.509 20.5391 35.2649 21.684 34.7907C22.8289 34.3165 23.8691 33.6214 24.7454 32.7452C25.6216 31.8689 26.3167 30.8287 26.7909 29.6838C27.2652 28.5389 27.5092 27.3119 27.5092 26.0727V24.5454C28.6627 24.2476 29.6847 23.5755 30.4151 22.6345C31.1456 21.6934 31.5432 20.5366 31.5456 19.3454V19.3454ZM26.0911 22.0363C25.5588 22.0363 25.0386 21.8785 24.5961 21.5828C24.1535 21.2871 23.8086 20.8669 23.605 20.3752C23.4013 19.8835 23.348 19.3424 23.4518 18.8204C23.5557 18.2984 23.812 17.819 24.1883 17.4426C24.5646 17.0663 25.0441 16.81 25.5661 16.7062C26.0881 16.6024 26.6291 16.6556 27.1208 16.8593C27.6125 17.063 28.0328 17.4079 28.3285 17.8504C28.6241 18.2929 28.782 18.8132 28.782 19.3454C28.782 19.6988 28.7124 20.0487 28.5771 20.3752C28.4419 20.7016 28.2437 20.9983 27.9938 21.2481C27.7439 21.498 27.4473 21.6962 27.1208 21.8315C26.7943 21.9667 26.4444 22.0363 26.0911 22.0363V22.0363Z" fill="#FF2156"/>
</svg>
