<svg width="36" height="38" viewBox="0 0 36 38" fill="none" xmlns="http://www.w3.org/2000/svg">
<path d="M16.3335 23C21.3335 23 29.6668 29.6667 29.6668 29.6667V3C29.6668 3 21.3335 9.66667 16.3335 9.66667V23ZM6.3335 23L11.3335 36.3333H18.0002L13.0002 23H6.3335ZM29.6668 21.3333C30.3234 21.3333 30.9736 21.204 31.5802 20.9527C32.1869 20.7015 32.7381 20.3332 33.2024 19.8689C33.6667 19.4046 34.035 18.8534 34.2862 18.2468C34.5375 17.6401 34.6668 16.9899 34.6668 16.3333C34.6668 15.6767 34.5375 15.0265 34.2862 14.4199C34.035 13.8133 33.6667 13.2621 33.2024 12.7978C32.7381 12.3335 32.1869 11.9652 31.5802 11.7139C30.9736 11.4627 30.3234 11.3333 29.6668 11.3333V21.3333ZM16.3335 29.6667C18.0002 29.6667 21.3335 28 21.3335 24.6667L16.3335 29.6667ZM1.3335 16.3333C1.3335 11.1483 4.3185 9.66667 8.00016 9.66667H16.3335V23H8.00016C4.3185 23 1.3335 21.5183 1.3335 16.3333Z" stroke="#FF2156" stroke-width="2"/>
</svg>
