<svg width="29" height="37" viewBox="0 0 29 37" fill="none" xmlns="http://www.w3.org/2000/svg">
<path d="M6.04907 23.7964H12.8091V27.2465H6.04907V23.7964Z" fill="#D0CFCE"/>
<path d="M0.555664 5.94482H18.6112V14.9697C18.6112 17.7344 16.7912 19.9747 14.5451 19.9747H13.5593C11.2987 20.3842 11.3926 23.7967 11.3926 23.7967H7.30483C7.30483 23.7967 7.39872 20.3842 5.13816 19.9747H4.6225C2.37639 19.9747 0.555664 17.7344 0.555664 14.9697V5.94627V5.94482Z" fill="#FF2156"/>
<path d="M25.8952 6.81738H26.92C27.6783 6.81738 28.2937 7.43272 28.2937 8.19177V13.8034C28.2937 14.5618 27.6783 15.1771 26.92 15.1771H25.8952C25.7148 15.1771 25.5361 15.1416 25.3695 15.0725C25.2028 15.0035 25.0514 14.9023 24.9238 14.7748C24.7963 14.6472 24.6951 14.4958 24.6261 14.3291C24.557 14.1625 24.5215 13.9838 24.5215 13.8034V8.19177C24.5215 7.43272 25.1368 6.81738 25.8952 6.81738V6.81738Z" fill="#FF003D"/>
<path d="M12.1161 14.2705C12.137 14.616 12.0869 14.9622 11.9689 15.2877C11.851 15.6131 11.6677 15.911 11.4303 16.163C11.193 16.415 10.9065 16.6157 10.5887 16.7529C10.2708 16.89 9.92828 16.9607 9.58211 16.9605C9.23593 16.9603 8.89345 16.8892 8.57576 16.7517C8.25806 16.6142 7.97186 16.4132 7.73478 16.1609C7.4977 15.9086 7.31474 15.6105 7.19718 15.2849C7.07961 14.9593 7.02992 14.6131 7.05117 14.2676C7.05117 14.2676 7.02372 12.4563 9.16006 9.17954C9.16006 9.17954 9.56089 8.49993 9.96461 9.13476C12.1017 12.4115 12.1161 14.2705 12.1161 14.2705" fill="#FF2156"/>
<path d="M9.58325 8.86377C11.2133 10.1775 12.0995 14.0392 12.0995 14.0392C12.0995 15.9387 10.9815 16.9671 9.58325 16.9671C9.58325 16.9671 12.3689 14.6719 9.58325 8.86377Z" fill="#FF2156"/>
<path d="M9.42897 28.0872V30.9277C9.42619 32.1653 9.85796 33.3645 10.649 34.3163C11.44 35.2681 12.54 35.912 13.7572 36.1356C15.6061 36.5098 17.52 36.4086 19.3191 35.8417C20.4879 35.4385 21.4734 34.6296 22.0966 33.5618C22.7199 32.4939 22.9395 31.238 22.7157 30.022C22.6183 29.5118 22.5642 28.9943 22.5539 28.475C22.5596 27.5134 22.7674 26.5636 23.1636 25.6873C23.5599 24.8111 24.1359 24.0279 24.8542 23.3884C26.2856 22.0415 27.8998 20.1139 26.3254 15.1768" stroke="#F9144A" stroke-width="0.5" stroke-linecap="round" stroke-linejoin="round"/>
<path d="M0.555664 5.94463V4.69086C0.555664 3.61227 0.984133 2.57785 1.74681 1.81517C2.50949 1.05249 3.54391 0.624023 4.6225 0.624023C4.6225 0.624023 4.6225 0.624023 4.6225 0.624023H14.5451C15.6236 0.624023 16.6579 1.05239 17.4205 1.81492C18.1832 2.57744 18.6118 3.61167 18.6119 4.69013V5.97352" stroke="#C5C5C5" stroke-width="0.5" stroke-linecap="round" stroke-linejoin="round"/>
<path d="M6.04907 23.7964H12.8091V27.2464H6.04907V23.7964Z" stroke="#ABABAB" stroke-width="0.5" stroke-linecap="round" stroke-linejoin="round"/>
<path d="M25.8952 6.81689H26.92C27.6783 6.81689 28.2937 7.43223 28.2937 8.19128V13.8029C28.2937 14.5613 27.6783 15.1766 26.92 15.1766H25.8952C25.7148 15.1766 25.5361 15.1411 25.3695 15.0721C25.2028 15.003 25.0514 14.9018 24.9238 14.7743C24.7963 14.6467 24.6951 14.4953 24.626 14.3286C24.557 14.162 24.5215 13.9833 24.5215 13.8029V8.19128C24.5215 7.43223 25.1368 6.81689 25.8952 6.81689V6.81689Z" stroke="#FF2156" stroke-width="0.5" stroke-linecap="round" stroke-linejoin="round"/>
<path d="M26.4077 6.81718V2.04834" stroke="#FF2D5F" stroke-width="0.5" stroke-linecap="round" stroke-linejoin="round"/>
<path d="M0.555664 5.94482H18.6112V14.9697C18.6112 17.7344 16.7912 19.9747 14.5451 19.9747H13.5593C11.2987 20.3842 11.3926 23.7967 11.3926 23.7967H7.30483C7.30483 23.7967 7.39872 20.3842 5.13816 19.9747H4.6225C2.37639 19.9747 0.555664 17.7344 0.555664 14.9697V5.94627V5.94482Z" stroke="#C5C5C5" stroke-width="0.5" stroke-miterlimit="10"/>
<path d="M12.1164 14.2705C12.1372 14.616 12.0871 14.9622 11.9692 15.2877C11.8513 15.6131 11.668 15.911 11.4306 16.163C11.1932 16.415 10.9068 16.6157 10.5889 16.7529C10.2711 16.89 9.92853 16.9607 9.58235 16.9605C9.23617 16.9603 8.8937 16.8892 8.576 16.7517C8.2583 16.6142 7.97211 16.4131 7.73502 16.1609C7.49794 15.9086 7.31499 15.6105 7.19742 15.2849C7.07986 14.9593 7.03017 14.6131 7.05141 14.2676C7.05141 14.2676 7.02397 12.4563 9.1603 9.17954C9.1603 9.17954 9.56114 8.49993 9.96486 9.13476C12.1019 12.4115 12.1164 14.2705 12.1164 14.2705" stroke="#FF2156" stroke-width="0.375" stroke-linecap="round" stroke-linejoin="round"/>
</svg>
