<svg width="41" height="43" viewBox="0 0 41 43" fill="none" xmlns="http://www.w3.org/2000/svg">
<path d="M20.5018 0C14.3254 0 9.31949 5.02165 9.31949 11.2174V13.087C9.31949 19.2827 14.3254 24.3043 20.5018 24.3043C26.6782 24.3043 31.6842 19.2827 31.6842 13.087V11.2174C31.6842 5.02165 26.6782 0 20.5018 0ZM13.2289 30.9464C7.75891 32.3804 2.59899 35.0801 0.696134 37.5629C-1.00731 39.784 0.614276 43 3.408 43H37.592C40.3857 43 42.0073 39.7822 40.3039 37.5593C38.401 35.0765 33.2429 32.3804 27.7747 30.9464C25.8178 32.6309 23.2806 33.6522 20.5018 33.6522C17.7211 33.6522 15.1858 32.629 13.2289 30.9464Z" fill="#FF2156"/>
</svg>
