<svg width="22" height="38" viewBox="0 0 22 38" fill="none" xmlns="http://www.w3.org/2000/svg">
<path fill-rule="evenodd" clip-rule="evenodd" d="M21.7752 21.8999V4.23466C21.7752 4.23466 22.2075 0.123535 16.878 0.123535H5.44945C0.119953 0.123535 0.552203 4.23466 0.552203 4.23466V21.8999C0.552203 21.8999 0.205453 26.0514 3.07445 26.0514H7.72708V28.3029H10.1045V33.25H7.72708V35.625H10.1045V37.8029H12.375V35.625H14.6027V33.25H12.375V28.3029H14.75V26.0514H19.253C22.4687 26.0514 21.7752 21.8999 21.7752 21.8999ZM16.2937 24.1467H14.75V23.75H7.7247V24.1467H6.1762C2.50445 24.1467 2.66595 20.9262 2.66595 20.9262V11.7658H7.55133V9.62591H2.66595V7.01579H7.51333V4.87591H2.79183C3.03883 3.86891 3.79645 2.17791 6.17383 2.17791H16.2937C19.5 2.17791 19.8063 5.60979 19.8063 5.60979V20.9262C19.8087 20.9262 20.0937 24.1467 16.2937 24.1467V24.1467Z" fill="#FF2156"/>
<path fill-rule="evenodd" clip-rule="evenodd" d="M5.30469 20.3252C5.30469 21.9782 6.97431 22.2418 6.97431 22.2418H15.3842C15.3842 22.2418 17.0562 22.1801 17.0562 20.3252V12.939H5.30469V20.3252Z" fill="#FF0000"/>
</svg>
