<svg width="66" height="58" viewBox="0 0 66 58" fill="none" xmlns="http://www.w3.org/2000/svg">
<path fill-rule="evenodd" clip-rule="evenodd" d="M33.0002 47.125C27.7524 47.125 24.148 47.1199 21.392 46.8577C18.7133 46.6025 17.3297 46.1397 16.3428 45.5097C15.5257 44.9879 14.8071 44.3565 14.2135 43.6382C13.4965 42.7711 12.9697 41.5553 12.6795 39.2012C12.6324 38.8194 12.5926 38.4192 12.559 37.9975C12.4813 37.0236 11.5768 36.25 10.4657 36.25C9.29809 36.25 8.35666 37.1019 8.4347 38.1256C8.69727 41.5701 9.3337 43.9033 10.8763 45.769C11.7244 46.7949 12.7509 47.697 13.9182 48.4423C17.5326 50.75 22.6885 50.75 33.0002 50.75C43.3119 50.75 48.4679 50.75 52.0822 48.4423C53.2496 47.697 54.2762 46.7949 55.1243 45.769C56.6667 43.9033 57.3034 41.5701 57.5657 38.1256C57.6438 37.1019 56.7025 36.25 55.5348 36.25C54.4238 36.25 53.5191 37.0236 53.4415 37.9975C53.408 38.4192 53.3681 38.8194 53.3211 39.2012C53.0307 41.5553 52.5041 42.7711 51.7871 43.6382C51.1934 44.3565 50.4748 44.9879 49.6578 45.5097C48.6708 46.1397 47.2873 46.6025 44.6085 46.8577C41.8525 47.1199 38.2481 47.125 33.0002 47.125ZM10.4657 21.75C11.5768 21.75 12.4813 20.9765 12.559 20.0024C12.5926 19.5809 12.6324 19.1806 12.6795 18.7988C12.9697 16.4448 13.4965 15.2289 14.2135 14.3616C14.8071 13.6436 15.5257 13.0121 16.3428 12.4904C17.3297 11.8603 18.7133 11.3974 21.392 11.1424C24.148 10.88 27.7524 10.875 33.0002 10.875C38.2481 10.875 41.8525 10.88 44.6085 11.1424C47.2873 11.3974 48.6708 11.8603 49.6578 12.4904C50.4748 13.0121 51.1934 13.6436 51.7871 14.3616C52.5041 15.2289 53.0307 16.4448 53.3211 18.7988C53.3681 19.1806 53.408 19.5809 53.4415 20.0024C53.5191 20.9765 54.4238 21.75 55.5348 21.75C56.7025 21.75 57.6438 20.8982 57.5657 19.8745C57.3034 16.43 56.6667 14.0967 55.1243 12.2309C54.2762 11.2051 53.2496 10.303 52.0822 9.5577C48.4679 7.25 43.3119 7.25 33.0002 7.25C22.6885 7.25 17.5326 7.25 13.9182 9.5577C12.7509 10.303 11.7244 11.2051 10.8763 12.2309C9.3337 14.0967 8.69727 16.43 8.4347 19.8745C8.35666 20.8982 9.29809 21.75 10.4657 21.75Z" fill="#FF2156"/>
<path d="M7.5625 29.6042H58.4375" stroke="#FF2156" stroke-width="1.5" stroke-linecap="round"/>
</svg>
