<svg width="31" height="34" viewBox="0 0 31 34" fill="none" xmlns="http://www.w3.org/2000/svg">
<path d="M5.5 0.75V14.5H7.20875L8 12.525V3.25H20.5V10.75H28V30.75H8V23.5575L7.93375 23.4913L6.445 22H5.5V33.25H30.5V8.9925L30.1487 8.60125L22.6487 1.10125L22.2575 0.75H5.5ZM23 5.0475L26.2037 8.25H23V5.04625V5.0475ZM11.7112 9.98375L8.79125 17.2737L8.5175 17H0.5V19.5H7.4825L9.70375 21.7263L11.7888 16.5162L15.5388 25.2663L18.1262 18.7975L18.4787 19.5H20.8375C21.1127 19.9766 21.5374 20.3491 22.0459 20.5597C22.5543 20.7703 23.118 20.8073 23.6496 20.6648C24.1812 20.5224 24.6509 20.2085 24.9859 19.7719C25.321 19.3353 25.5026 18.8003 25.5026 18.25C25.5026 17.6997 25.321 17.1647 24.9859 16.7281C24.6509 16.2915 24.1812 15.9776 23.6496 15.8352C23.118 15.6927 22.5543 15.7297 22.0459 15.9403C21.5374 16.1509 21.1127 16.5234 20.8375 17H20.0213L17.8725 12.7025L15.46 18.7337L11.71 9.98375H11.7112Z" fill="#FF2156"/>
</svg>
