<svg width="35" height="35" viewBox="0 0 35 35" fill="none" xmlns="http://www.w3.org/2000/svg">
<path d="M14.5681 1.375C11.9588 1.375 9.40801 2.14876 7.23841 3.59844C5.06882 5.04812 3.37783 7.1086 2.37927 9.51933C1.38072 11.9301 1.11945 14.5827 1.62851 17.142C2.13757 19.7012 3.39409 22.052 5.23918 23.897C7.08427 25.7421 9.43505 26.9987 11.9943 27.5077C14.5535 28.0168 17.2062 27.7555 19.6169 26.757C22.0276 25.7584 24.0881 24.0674 25.5378 21.8978C26.9875 19.7282 27.7612 17.1775 27.7612 14.5681C27.761 11.0691 26.3709 7.71356 23.8968 5.23942C21.4227 2.76528 18.0671 1.37522 14.5681 1.375V1.375Z" stroke="#FF2156" stroke-width="2.5" stroke-miterlimit="10"/>
<path d="M24.4111 24.4111L33.6251 33.6251" stroke="#FF2156" stroke-width="2.5" stroke-miterlimit="10" stroke-linecap="round"/>
<g clip-path="url(#clip0_351_104)">
<path d="M11.2222 11.765C12.8587 9.75832 13.74 7.99551 14.275 6.75951C14.81 7.99551 15.6914 9.75832 17.3278 11.765C18.476 13.1736 19.5281 15.0661 19.5281 17.007C19.5281 20.182 17.2754 22.2963 14.275 22.2963C11.2745 22.2963 9.02197 20.1834 9.02197 17.007C9.02197 15.1461 10.0774 13.1695 11.2222 11.765Z" stroke="#FF2156" stroke-width="1.5"/>
<path d="M15.2613 19.5758L15.2615 19.5759C15.7333 19.7343 16.116 19.6455 16.4215 19.4028C16.746 19.1449 17.0237 18.6775 17.1602 18.0248L15.2613 19.5758ZM15.2613 19.5758C14.6273 19.3632 13.9966 18.3638 14.7649 16.9024L14.3224 16.6697L14.7649 16.9023C15.2001 16.0745 15.4255 15.2481 15.5895 14.6467M15.2613 19.5758L15.5895 14.6467M15.5895 14.6467C15.6179 14.5425 15.6445 14.4451 15.67 14.3556M15.5895 14.6467L15.67 14.3556M15.67 14.3556C15.7326 14.1359 15.7818 13.9909 15.822 13.8982M15.67 14.3556L15.822 13.8982M15.822 13.8982C15.957 13.9821 16.116 14.1231 16.2828 14.331C16.4944 14.5947 16.6973 14.9399 16.8621 15.34C17.1934 16.1446 17.3494 17.1188 17.1602 18.0246L15.822 13.8982Z" stroke="#FF2156"/>
</g>
<defs>
<clipPath id="clip0_351_104">
<rect width="19.35" height="19.35" fill="white" transform="translate(4.6001 4.6001)"/>
</clipPath>
</defs>
</svg>
