<!-- Generator: Adobe Illustrator 25.2.3, SVG Export Plug-In . SVG Version: 6.00 Build 0)  -->
<svg version="1.1" id="Layer_1" xmlns="http://www.w3.org/2000/svg" xmlns:xlink="http://www.w3.org/1999/xlink" x="0px" y="0px"
	 viewBox="0 0 420 420.5" style="enable-background:new 0 0 420 420.5;" xml:space="preserve">
<style type="text/css">
	.st0{fill:#AE0A22;}
</style>
<g>
	<g>
		<path class="st0" d="M262,203.92c-0.62-22-32.92-53.71-34.26-55.05l-1.9-1.9l-1.76,2.03c-0.98,1.13-24.07,27.95-31.66,44.6
			c-7.6,14.06,2.81,30.3,3.54,31.4c0.08,0.13,0.16,0.25,0.24,0.38c0.36-0.42,0.73-0.85,1.11-1.29c0.74-0.86,1.5-1.77,2.29-2.71
			c-1.94-3.36-8.17-15.52-2.75-25.46l0.08-0.17c4.01-8.83,12.96-21.1,20.21-30.35c1.14-1.45,2.24-2.83,3.27-4.11
			c2.35-2.93,4.35-5.34,5.69-6.93c6.81,7.2,30.76,32.66,30.92,49.9c0.25,27.27-26.29,32.57-29.18,33.06
			c-11.5-0.22-19.29-3.74-25.32-11.6c-0.78,0.93-1.55,1.82-2.28,2.67c-0.35,0.4-0.69,0.8-1.03,1.18
			c8.88,10.93,19.64,12.94,28.77,12.75C227.98,242.32,263.01,239.7,262,203.92z"
			/>
		<g>
			<path class="st0" d="M195.98,147c-10,0.16-22.69,2.24-32.04,17.29c-0.73,1.1-10.83,15.54-3.54,31.4
				c7.59,16.65,30.69,43.47,31.67,44.6l1.75,2.04l1.91-1.9c0.32-0.32,2.39-2.41,5.37-5.69c1.02-1.13,2.15-2.4,3.35-3.79
				c9.85-11.37,24.59-30.71,25.54-45.58c0.67-9.3-1.76-16.42-5.59-21.84c-0.99,1.22-2.1,2.59-3.27,4.06
				c2.75,4.47,4.39,10.18,3.87,17.44c-0.83,12.96-14.07,30.61-23.48,41.62c-1.22,1.43-2.38,2.75-3.43,3.93
				c-1.62,1.8-2.99,3.28-4.01,4.35c-5.63-6.7-23.08-27.99-29.16-41.39l-0.09-0.16c-5.47-11.76,3.2-26.21,3.3-26.36l0.04-0.06
				c6.35-10.24,14.61-14.71,27.63-14.97c3.64,0.26,14.15,2.66,22.22,11.47c1.13-1.41,2.18-2.71,3.13-3.86
				c-5.24-5.6-14.13-12.15-25.18-12.6"/>
		</g>
	</g>
</g>
<g>
	<g>
		<path class="st0" d="M104.78,256.45c1.41-0.23,3.65-0.41,5.92-0.41c3.24,0,5.35,0.04,6.91,1.04c1.3,0.76,2.17,2.27,2.27,3.53
			c0.1,1.29-0.71,4.48-2.63,4.91l0,0c1.66,0.38,3.65,2.54,3.65,5.06c0,1.2-0.84,3.44-2.11,4.4c-1.75,1.26-4.89,1.13-8.98,1.13
			c-2.23,0-3.94-0.12-5.02-0.23V256.45z M109.54,264.41h1.79c2.08,0,3.31-0.94,3.31-2.2c0-1.54-1.36-2.14-3.35-2.14
			c-0.91,0-1.43,0.06-1.74,0.12V264.41z M109.54,272.82c0.39,0.06,0.96,0.08,1.66,0.08c2.05,0,3.94-0.65,3.94-2.57
			c0-1.8-1.8-2.55-3.97-2.55h-1.64V272.82z"/>
		<path class="st0" d="M125.67,256.23h5.89v15.96l5.91,0l-0.06,3.91h-11.74V256.23z"/>
		<path class="st0" d="M187.47,266.19c0,6.91-4.94,10.57-10.97,10.57c-6.24,0-10.62-4.11-10.62-10.18c0-6.37,4.66-10.54,10.97-10.54
			C183.3,256.04,187.47,260.24,187.47,266.19z M171.64,266.61c0,3.08,1.93,5.83,5.31,5.83c3.41,0,5.33-2.71,5.33-5.98
			c0-2.86-1.73-5.86-5.31-5.86C173.42,260.6,171.64,263.44,171.64,266.61z"/>
		<path class="st0" d="M192.32,256.45c1.71-0.24,3.74-0.42,5.96-0.42c4.03,0,6.89,0.86,8.8,2.49c1.93,1.63,3.06,3.94,3.06,7.17
			c0,3.26-1.1,5.93-3.13,7.76c-2.03,1.87-5.38,2.87-9.6,2.87c-2,0-3.67-0.09-5.09-0.24V256.45z M196.57,272.04
			c0.48,0.09,1.18,0.11,1.92,0.11c4.07,0,6.27-2.31,6.27-6.35c0.02-3.53-1.95-5.77-5.97-5.77c-0.98,0-1.73,0.09-2.23,0.2V272.04z"/>
		<path class="st0" d="M233.64,269.13c-0.35,1.66-3.29,7.21-8.73,7.02c-7.06-0.24-10.13-4.77-10.31-9.85
			c-0.24-6.75,4.27-9.94,9.8-10.1c5.74-0.16,8.77,4.97,9.25,6.89h-4.91c-0.89-1.23-1.49-3.06-4.62-3.23
			c-1.64-0.09-4.66,0.67-4.66,6.34c0,5.28,3.23,5.96,5.45,5.96c1.97,0,3.45-1.49,3.79-3.02H233.64z"/>
		<path class="st0" d="M244.6,256.2l0.04,7.82l7.02-0.04l0.12-7.78h4.85l0.08,20.72l-5.07-0.04l-0.12-8.72l-7.02-0.04l0,8.98
			l-5.02-0.04V256.2H244.6z"/>
		<path class="st0" d="M267.64,272.11l-0.96,4.02h-5.11l7.17-19.93h5.79l7.34,19.93h-5.23l-1.1-4.03L267.64,272.11z M274.3,269.18
			l-1.81-4.58c-0.41-1.04-0.69-1.98-0.96-2.9h-0.06c-0.27,0.94-0.58,1.91-0.93,2.88l-1.81,4.6H274.3z"/>
		<path class="st0" d="M291.18,256.69v19.94h-5.13v-19.95L291.18,256.69z"/>
		<path class="st0" d="M297.2,276.64v-19.95h3.34l7.29,9.63c0.91,1.25,2.76,3.68,2.76,3.68l0.03-1.82c-0.03-2.7-0.03-0.58-0.03-3.69
			l-0.02-7.77l4.42-0.03v19.95l-3.99-0.03l-6.74-9.1l0,0l-2.67-3.38c0.05,1.49,0.03,0.55,0.03,3.86l-0.16,8.65H297.2z"/>
		<path class="st0" d="M162.47,266.19c0,6.91-4.94,10.57-10.97,10.57c-6.24,0-10.62-4.11-10.62-10.18c0-6.37,4.66-10.54,10.97-10.54
			C158.3,256.04,162.47,260.24,162.47,266.19z M146.64,266.61c0,3.08,1.93,5.83,5.31,5.83c3.41,0,5.33-2.71,5.33-5.98
			c0-2.86-1.73-5.86-5.31-5.86C148.41,260.6,146.64,263.44,146.64,266.61z"/>
	</g>
</g>
</svg>
