<svg width="48" height="48" viewBox="0 0 48 48" fill="none" xmlns="http://www.w3.org/2000/svg">
<path d="M41.6852 34.2898C41.0197 35.8271 40.2321 37.2421 39.3196 38.5431C38.0756 40.3166 37.0572 41.5442 36.2722 42.2259C35.0555 43.3449 33.7518 43.9179 32.3558 43.9505C31.3536 43.9505 30.145 43.6654 28.7382 43.0869C27.3267 42.5111 26.0295 42.2259 24.8435 42.2259C23.5996 42.2259 22.2655 42.5111 20.8385 43.0869C19.4094 43.6654 18.2581 43.9668 17.3778 43.9967C16.0391 44.0537 14.7048 43.4644 13.3729 42.2259C12.5228 41.4844 11.4595 40.2134 10.1857 38.4127C8.81903 36.4898 7.69543 34.26 6.81519 31.7178C5.87248 28.972 5.3999 26.3131 5.3999 23.7389C5.3999 20.7901 6.03707 18.2469 7.3133 16.1157C8.3163 14.4038 9.65065 13.0534 11.3207 12.0621C12.9907 11.0708 14.7952 10.5656 16.7385 10.5333C17.8018 10.5333 19.1962 10.8622 20.929 11.5086C22.6569 12.1572 23.7663 12.4861 24.2528 12.4861C24.6164 12.4861 25.8489 12.1015 27.9383 11.3348C29.9142 10.6237 31.5818 10.3293 32.9479 10.4453C36.6498 10.744 39.4309 12.2033 41.2805 14.8324C37.9697 16.8384 36.332 19.6481 36.3646 23.2524C36.3945 26.0599 37.4129 28.3962 39.4146 30.2512C40.3217 31.1122 41.3348 31.7776 42.4619 32.2502C42.2175 32.959 41.9595 33.638 41.6852 34.2898ZM33.1951 0.880739C33.1951 3.08124 32.3911 5.13584 30.7887 7.03756C28.8549 9.29834 26.516 10.6047 23.9795 10.3986C23.9472 10.1346 23.9285 9.85674 23.9285 9.56477C23.9285 7.45229 24.8481 5.19152 26.4812 3.34303C27.2965 2.40711 28.3335 1.62891 29.591 1.00812C30.8457 0.396589 32.0326 0.0584015 33.1489 0.000488281C33.1815 0.294661 33.1951 0.588852 33.1951 0.88071V0.880739Z" fill="black"/>
</svg>
