<svg width="48" height="48" viewBox="0 0 48 48" fill="none" xmlns="http://www.w3.org/2000/svg">
<g clip-path="url(#clip0_1644_2110)">
<path d="M47.532 24.5529C47.532 22.9214 47.3997 21.2811 47.1175 19.6761H24.48V28.9181H37.4434C36.9055 31.8988 35.177 34.5356 32.6461 36.2111V42.2078H40.3801C44.9217 38.0278 47.532 31.8547 47.532 24.5529Z" fill="#4285F4"/>
<path d="M24.4802 48.0016C30.9531 48.0016 36.4119 45.8764 40.3891 42.2078L32.6551 36.2111C30.5034 37.675 27.7255 38.5039 24.489 38.5039C18.2278 38.5039 12.9189 34.2798 11.0141 28.6006H3.0332V34.7825C7.10743 42.8868 15.4058 48.0016 24.4802 48.0016Z" fill="#34A853"/>
<path d="M11.0051 28.6005C9.99973 25.6198 9.99973 22.3922 11.0051 19.4115V13.2296H3.03298C-0.371021 20.0112 -0.371021 28.0009 3.03298 34.7824L11.0051 28.6005Z" fill="#FBBC04"/>
<path d="M24.4802 9.49932C27.9018 9.44641 31.2088 10.7339 33.6869 13.0973L40.539 6.24523C36.2002 2.17101 30.4416 -0.068932 24.4802 0.00161733C15.4058 0.00161733 7.10743 5.11644 3.0332 13.2296L11.0053 19.4115C12.9013 13.7235 18.2189 9.49932 24.4802 9.49932Z" fill="#EA4335"/>
</g>
<defs>
<clipPath id="clip0_1644_2110">
<rect width="48" height="48" fill="white"/>
</clipPath>
</defs>
</svg>
