<svg width="264" height="240" viewBox="0 0 264 240" fill="none" xmlns="http://www.w3.org/2000/svg">
<path fill-rule="evenodd" clip-rule="evenodd" d="M246.348 103.032C246.348 95.0086 245.569 95 237.358 95H179.638C171.435 95 170.63 95.0086 170.63 103.032H178.79V128.205L153 216.647C153 224.688 159.653 231.195 167.864 231.195H249.114C257.317 231.195 263.979 224.688 263.979 216.647L238.394 127.948L238.274 103.032H246.348V103.032ZM255.322 211.236C257.642 218.805 253.584 223.523 243.06 223.523H174.774C162.778 223.523 159.833 218.446 162.513 211.236L186.368 128.591L186.274 102.792H230.157V128.385L255.322 211.236V211.236Z" fill="#CCDDE5"/>
<path fill-rule="evenodd" clip-rule="evenodd" d="M221.671 146.375H195.812L180.074 200.387C177.034 210.234 178.019 213.95 192.13 213.95H225.344C239.327 213.95 239.643 209.515 237.409 200.387L221.671 146.375V146.375Z" fill="#FF2156"/>
<path d="M49.0326 185.432L137.043 32.994C137.185 32.7472 137.262 32.4485 137.362 32.1086C138.061 29.5911 137.63 27.4633 136.68 24.7617C135.087 20.1803 135.512 17.3536 137.311 15.0458C139.713 12.0025 150.202 9.67887 174.806 23.884C199.41 38.0891 202.638 48.3186 201.203 51.9201C200.124 54.6437 197.885 56.4089 193.104 57.3246C190.294 57.8689 188.232 58.5433 186.401 60.4076C186.157 60.6643 185.92 60.8842 185.794 61.1267L97.7837 213.564C85.6927 234.507 69.2486 236.217 56.5557 228.889L56.4735 228.842L56.3912 228.794C43.6821 221.47 36.9416 206.374 49.0326 185.432V185.432Z" fill="url(#paint0_linear_356_2)"/>
<path opacity="0.23" d="M164.187 42.2752C152.132 35.3152 143.489 32.3274 137.497 31.4462C137.956 29.2017 137.528 27.2124 136.68 24.7616C136.2 23.36 135.906 22.1344 135.786 21.0364C140.711 19.5601 151.299 20.6532 170.332 31.6558C189.361 42.6422 195.602 51.2646 196.786 56.2685C195.758 56.7176 194.567 57.0718 193.113 57.357C190.55 57.8524 188.613 58.4757 186.915 59.9915C183.152 55.2266 176.242 49.2353 164.187 42.2752V42.2752Z" fill="url(#paint1_radial_356_2)"/>
<path d="M107.127 88.6569L51.5866 184.904C39.8476 205.213 45.8882 219.645 57.6965 226.462C69.5004 233.263 84.9997 231.336 96.7581 210.97L183.592 60.5691L107.127 88.6569V88.6569Z" fill="url(#paint2_linear_356_2)"/>
<path opacity="0.55" d="M54.2135 198.668L143.102 44.7081C143.28 44.4002 143.517 44.1302 143.799 43.9137C144.081 43.6972 144.403 43.5384 144.747 43.4464C145.09 43.3544 145.448 43.3309 145.801 43.3773C146.153 43.4237 146.493 43.5391 146.801 43.7169C147.109 43.8947 147.379 44.1315 147.596 44.4136C147.812 44.6957 147.971 45.0177 148.063 45.3612C148.155 45.7048 148.179 46.063 148.132 46.4156C148.086 46.7682 147.97 47.1082 147.793 47.4161L58.9039 201.376C58.1556 202.672 56.5007 203.115 55.2047 202.367C54.5887 202.003 54.14 201.411 53.9547 200.72C53.7694 200.028 53.8623 199.292 54.2135 198.668V198.668Z" fill="white"/>
<path opacity="0.69" d="M153.291 96.946C157.359 95.856 159.773 91.6745 158.683 87.6064C157.593 83.5383 153.412 81.124 149.344 82.2141C145.276 83.3041 142.862 87.4856 143.952 91.5537C145.042 95.6218 149.223 98.036 153.291 96.946Z" fill="white"/>
<path d="M159.751 59.5318C163.819 58.4418 166.234 54.2603 165.144 50.1922C164.054 46.1241 159.872 43.7099 155.804 44.8C151.736 45.89 149.322 50.0715 150.412 54.1396C151.502 58.2077 155.683 60.6219 159.751 59.5318Z" fill="#F31A4E"/>
<path opacity="0.69" d="M133.932 107.506C135.904 106.978 137.074 104.952 136.545 102.981C136.017 101.009 133.991 99.8393 132.02 100.368C130.048 100.896 128.878 102.922 129.407 104.893C129.935 106.865 131.961 108.035 133.932 107.506Z" fill="white"/>
<path d="M175.245 19.4884C179.224 18.4224 181.585 14.333 180.519 10.3545C179.453 6.37604 175.363 4.01501 171.385 5.08103C167.406 6.14705 165.045 10.2364 166.111 14.2149C167.177 18.1934 171.267 20.5544 175.245 19.4884Z" fill="#EE3863"/>
<path d="M192.151 14.9584C194.006 14.4614 195.107 12.5549 194.61 10.7C194.113 8.84521 192.206 7.74446 190.351 8.24146C188.496 8.73846 187.396 10.645 187.893 12.4998C188.39 14.3547 190.296 15.4554 192.151 14.9584Z" fill="#F31A4E"/>
<path opacity="0.69" d="M118.692 138.631C122.106 137.716 124.132 134.207 123.217 130.793C122.303 127.379 118.793 125.353 115.379 126.267C111.965 127.182 109.939 130.691 110.854 134.105C111.769 137.519 115.278 139.545 118.692 138.631Z" fill="white"/>
<path opacity="0.69" d="M122.789 115.5C124.106 115.147 124.887 113.794 124.534 112.476C124.182 111.159 122.828 110.378 121.51 110.731C120.193 111.084 119.412 112.437 119.765 113.755C120.117 115.072 121.471 115.853 122.789 115.5Z" fill="white"/>
<defs>
<linearGradient id="paint0_linear_356_2" x1="88.6587" y1="173.098" x2="200.896" y2="-21.3063" gradientUnits="userSpaceOnUse">
<stop offset="0.234" stop-color="#E6E6E6"/>
<stop offset="0.434" stop-color="#E2E5E6"/>
<stop offset="0.625" stop-color="#D7E0E5"/>
<stop offset="0.812" stop-color="#C3D9E4"/>
<stop offset="0.996" stop-color="#A9CEE3"/>
<stop offset="1" stop-color="#A8CEE3"/>
</linearGradient>
<radialGradient id="paint1_radial_356_2" cx="0" cy="0" r="1" gradientUnits="userSpaceOnUse" gradientTransform="translate(160.136 53.3314) rotate(-149.092) scale(61.2029 25.4031)">
<stop offset="0.299" stop-color="#5CBAE6" stop-opacity="0"/>
<stop offset="0.679" stop-color="#5CBAE6"/>
<stop offset="0.957" stop-color="#5CBAE6" stop-opacity="0"/>
</radialGradient>
<linearGradient id="paint2_linear_356_2" x1="131.929" y1="150.043" x2="85.9451" y2="123.493" gradientUnits="userSpaceOnUse">
<stop stop-color="#FF2156"/>
<stop offset="0.693" stop-color="#E61F4E"/>
<stop offset="0.76" stop-color="#ED4069"/>
<stop offset="0.873" stop-color="#E82553"/>
<stop offset="1" stop-color="#EF0C42"/>
</linearGradient>
</defs>
</svg>
