<svg width="237" height="258" viewBox="0 0 237 258" fill="none" xmlns="http://www.w3.org/2000/svg">
<path d="M199.618 139.32L158.077 123.612C157.395 123.354 156.77 122.964 156.238 122.465C155.706 121.965 155.279 121.365 154.979 120.7C154.679 120.035 154.513 119.317 154.491 118.588C154.469 117.859 154.591 117.132 154.85 116.45L176.589 58.9561C177.11 57.5778 178.157 56.4629 179.5 55.8566C180.844 55.2504 182.373 55.2024 183.751 55.7233L210.099 65.6845L222.539 94.4143L206.781 136.11C206.255 137.484 205.206 138.593 203.863 139.195C202.52 139.797 200.994 139.842 199.618 139.32Z" fill="#F5F5F5"/>
<path d="M210.099 65.6844L203.976 81.8657C203.736 82.5006 203.623 83.1767 203.644 83.8553C203.664 84.5339 203.819 85.2018 204.098 85.8208C204.377 86.4398 204.775 86.9977 205.27 87.4628C205.764 87.9279 206.346 88.2909 206.981 88.5312L222.539 94.4143L210.099 65.6844Z" fill="#EBEBEB"/>
<path d="M203.651 83.3679C203.651 83.3679 201.966 87.2176 205.935 90.222C206.085 90.3339 206.242 90.4369 206.404 90.5304C208.3 91.6727 220.774 99.0979 220.889 98.7952L222.533 94.4429L206.975 88.5599C206.975 88.5599 203.148 86.932 203.651 83.3679Z" fill="#E0E0E0"/>
<path d="M200.744 79.8894C200.664 80.1008 196.3 78.6386 190.994 76.6338C185.688 74.629 181.449 72.8298 181.529 72.6356C181.609 72.4414 185.973 73.8864 191.279 75.8913C196.585 77.8961 200.824 79.6667 200.744 79.8894Z" fill="#E0E0E0"/>
<path d="M209.694 93.7346C209.614 93.9402 202.474 91.4499 193.741 88.1314C185.008 84.8129 177.988 81.9799 178.068 81.7686C178.148 81.5573 185.288 84.0533 194.027 87.3775C202.765 90.7017 209.757 93.5233 209.694 93.7346Z" fill="#E0E0E0"/>
<path d="M209.653 102.451C209.573 102.656 201.794 99.9089 192.272 96.3049C182.751 92.7008 175.097 89.6165 175.177 89.4109C175.257 89.2052 183.037 91.9526 192.558 95.5566C202.079 99.1607 209.756 102.239 209.653 102.451Z" fill="#E0E0E0"/>
<path d="M206.929 109.659C206.849 109.864 199.07 107.117 189.548 103.513C180.027 99.9089 172.373 96.8017 172.453 96.619C172.533 96.4362 180.313 99.1607 189.834 102.759C199.355 106.357 207.009 109.447 206.929 109.659Z" fill="#E0E0E0"/>
<path d="M204.205 116.867C204.125 117.073 196.34 114.325 186.824 110.721C177.308 107.117 169.649 104.033 169.723 103.827C169.797 103.622 177.582 106.369 187.11 109.967C196.637 113.566 204.279 116.656 204.205 116.867Z" fill="#E0E0E0"/>
<path d="M201.474 124.075C201.4 124.281 193.615 121.528 184.099 117.929C174.584 114.331 166.919 111.241 166.999 111.035C167.079 110.83 174.858 113.577 184.379 117.175C193.901 120.774 201.554 123.864 201.474 124.075Z" fill="#E0E0E0"/>
<path d="M61.1189 79.6309L6.35476 98.809C4.46126 99.4721 3.46381 101.545 4.12691 103.438L31.6038 181.9C32.2669 183.793 34.3394 184.791 36.2329 184.128L90.9971 164.95C92.8906 164.286 93.888 162.214 93.2249 160.32L65.748 81.8587C65.0849 79.9652 63.0124 78.9678 61.1189 79.6309Z" fill="#EBEBEB"/>
<path d="M61.8206 84.5078L8.84619 103.059L36.0795 180.825L89.054 162.274L61.8206 84.5078Z" fill="#E0E0E0"/>
<path d="M60.8729 84.1419L7.89844 102.693L34.6126 178.977L87.5871 160.426L60.8729 84.1419Z" fill="#FAFAFA"/>
<path d="M87.5774 160.424L60.7952 84.1675L60.8923 84.2132L7.92781 102.77L7.97922 102.668C17.9633 131.318 27.2562 157.78 34.6757 178.953L34.59 178.913L87.5831 160.424L34.63 179.05H34.5672V178.987C27.142 157.814 17.8776 131.352 7.83643 102.708V102.628H7.91068L60.8809 84.0875H60.9552V84.1561L87.5774 160.424Z" fill="#E0E0E0"/>
<path d="M68.792 167.004C68.792 167.004 80.5866 157.054 82.6314 146.693C81.4479 148.336 79.944 149.721 78.2104 150.767C76.4768 151.812 74.5495 152.496 72.5446 152.776C72.5446 152.776 72.3104 163.629 68.792 167.004Z" fill="#E0E0E0"/>
<path d="M26.0022 119.691L23.2152 120.667C22.197 121.024 21.6606 122.138 22.0172 123.156L22.9932 125.943C23.3498 126.962 24.4642 127.498 25.4824 127.141L28.2694 126.165C29.2876 125.809 29.824 124.694 29.4674 123.676L28.4914 120.889C28.1349 119.871 27.0204 119.335 26.0022 119.691Z" fill="#EBEBEB"/>
<path d="M25.6628 124.492C25.6433 124.502 25.6218 124.507 25.5999 124.507C25.5781 124.507 25.5565 124.502 25.5371 124.492L24.2577 123.75C24.2267 123.726 24.2054 123.692 24.1979 123.653C24.1903 123.615 24.197 123.576 24.2166 123.542C24.2363 123.508 24.2675 123.483 24.3045 123.471C24.3416 123.458 24.3818 123.46 24.4176 123.475L25.56 124.127L26.9079 121.271C26.9276 121.233 26.9607 121.203 27.0009 121.189C27.0411 121.174 27.0853 121.175 27.125 121.191C27.1443 121.2 27.1616 121.213 27.1759 121.229C27.1901 121.245 27.201 121.263 27.208 121.284C27.2149 121.304 27.2177 121.325 27.2162 121.347C27.2147 121.368 27.2089 121.389 27.1992 121.408L25.777 124.446C25.7623 124.462 25.7446 124.474 25.7248 124.482C25.7051 124.489 25.684 124.493 25.6628 124.492Z" fill="white"/>
<path d="M62.2403 107.882C62.2403 107.928 55.3862 110.378 46.8815 113.354C38.3768 116.33 31.46 118.706 31.46 118.666C31.46 118.626 38.314 116.17 46.8244 113.194C55.3348 110.219 62.2289 107.842 62.2403 107.882Z" fill="#E0E0E0"/>
<path d="M46.0879 118.86C46.0879 118.86 45.9108 118.94 45.5909 119.066L44.2087 119.58C43.0664 120.003 41.4214 120.58 39.6394 121.208C37.8573 121.836 36.2123 122.396 35.07 122.79L33.6706 123.253C33.5012 123.315 33.3275 123.364 33.1509 123.401C33.3106 123.318 33.4768 123.247 33.6478 123.19L35.03 122.681C36.1724 122.253 37.8173 121.676 39.5994 121.048C41.3814 120.42 43.0264 119.866 44.1687 119.466L45.5681 119.003C45.7369 118.941 45.9108 118.893 46.0879 118.86Z" fill="#E0E0E0"/>
<path d="M62.9662 109.984C62.9662 110.024 56.1122 112.475 47.6017 115.45C39.0913 118.426 32.1802 120.808 32.1802 120.762C32.1802 120.717 39.0342 118.272 47.5503 115.296C56.0665 112.32 62.9662 109.939 62.9662 109.984Z" fill="#E0E0E0"/>
<path d="M29.9807 131.056L27.1937 132.032C26.1755 132.389 25.6392 133.503 25.9957 134.521L26.9717 137.308C27.3283 138.327 28.4428 138.863 29.461 138.506L32.248 137.53C33.2662 137.174 33.8025 136.059 33.4459 135.041L32.47 132.254C32.1134 131.236 30.9989 130.7 29.9807 131.056Z" fill="#EBEBEB"/>
<path d="M29.6438 135.858C29.6233 135.868 29.6008 135.874 29.5781 135.874C29.5553 135.874 29.5328 135.868 29.5124 135.858L28.2387 135.116C28.2202 135.106 28.204 135.092 28.191 135.076C28.1781 135.059 28.1686 135.04 28.1633 135.02C28.1579 134.999 28.1568 134.978 28.1599 134.957C28.1631 134.937 28.1704 134.917 28.1816 134.899C28.1916 134.88 28.2053 134.864 28.2219 134.851C28.2384 134.838 28.2574 134.829 28.2778 134.823C28.2981 134.818 28.3193 134.817 28.3401 134.82C28.3609 134.823 28.3808 134.831 28.3986 134.842L29.5409 135.493L30.8889 132.608C30.9075 132.571 30.9396 132.542 30.9788 132.527C31.018 132.512 31.0614 132.513 31.1002 132.528C31.1388 132.546 31.1689 132.578 31.1839 132.618C31.1989 132.657 31.1976 132.701 31.1802 132.74L29.758 135.784C29.7453 135.804 29.7286 135.821 29.7089 135.834C29.6892 135.846 29.667 135.855 29.6438 135.858Z" fill="white"/>
<path d="M66.2216 119.249C66.2216 119.294 59.3675 121.739 50.8571 124.721C42.3467 127.702 35.4355 130.072 35.4355 130.032C35.4355 129.992 42.2896 127.536 50.8 124.561C59.3104 121.585 66.2101 119.209 66.2216 119.249Z" fill="#E0E0E0"/>
<path d="M50.0688 130.227C50.0688 130.227 49.8918 130.307 49.5662 130.432L48.1897 130.946C47.0473 131.369 45.4024 131.946 43.6203 132.574C41.8383 133.202 40.1933 133.762 39.051 134.156L37.6516 134.619C37.4822 134.681 37.3085 134.731 37.1318 134.767C37.2909 134.682 37.4572 134.612 37.6288 134.556L39.011 134.048C40.1533 133.619 41.7983 133.043 43.5803 132.414C45.3624 131.786 47.0074 131.232 48.1497 130.832L49.5491 130.369C49.7179 130.307 49.8918 130.259 50.0688 130.227Z" fill="#E0E0E0"/>
<path d="M66.9643 121.362C66.9643 121.402 60.1102 123.852 51.5998 126.828C43.0894 129.804 36.1782 132.186 36.1782 132.14C36.1782 132.094 43.0323 129.65 51.5427 126.674C60.0531 123.698 66.9643 121.305 66.9643 121.362Z" fill="#E0E0E0"/>
<path d="M33.9651 142.421L31.1781 143.397C30.1599 143.754 29.6235 144.868 29.9801 145.887L30.9561 148.674C31.3127 149.692 32.4271 150.228 33.4453 149.872L36.2323 148.896C37.2505 148.539 37.7869 147.424 37.4303 146.406L36.4543 143.619C36.0978 142.601 34.9833 142.065 33.9651 142.421Z" fill="#EBEBEB"/>
<path d="M33.625 147.225C33.6046 147.235 33.5821 147.24 33.5593 147.24C33.5366 147.24 33.5141 147.235 33.4937 147.225L32.2142 146.494C32.1934 146.485 32.1747 146.471 32.1593 146.455C32.144 146.438 32.1324 146.418 32.1253 146.397C32.1182 146.375 32.1157 146.352 32.1181 146.33C32.1204 146.307 32.1276 146.286 32.139 146.266C32.1504 146.246 32.1659 146.229 32.1843 146.216C32.2028 146.203 32.2238 146.194 32.2461 146.19C32.2683 146.185 32.2912 146.186 32.3133 146.191C32.3354 146.196 32.3562 146.206 32.3742 146.219L33.5165 146.871L34.8645 143.986C34.8725 143.966 34.8845 143.948 34.8997 143.933C34.9149 143.917 34.9331 143.905 34.9531 143.897C34.9732 143.889 34.9946 143.885 35.0162 143.886C35.0378 143.886 35.0591 143.891 35.0787 143.9C35.0984 143.909 35.1161 143.921 35.1307 143.937C35.1453 143.953 35.1566 143.972 35.1638 143.992C35.171 144.012 35.174 144.034 35.1726 144.056C35.1712 144.077 35.1655 144.098 35.1558 144.117L33.7336 147.162C33.7056 147.195 33.6673 147.217 33.625 147.225Z" fill="white"/>
<path d="M70.2025 130.615C70.2025 130.661 63.3485 133.105 54.8381 136.087C46.3277 139.068 39.4165 141.439 39.4165 141.393C39.4165 141.347 46.2705 138.903 54.7867 135.927C63.3028 132.951 70.1854 130.575 70.2025 130.615Z" fill="#E0E0E0"/>
<path d="M54.0501 141.587C53.888 141.67 53.72 141.741 53.5475 141.798L52.1653 142.313C51.0229 142.735 49.3837 143.312 47.5959 143.94C45.8081 144.569 44.1689 145.123 43.0265 145.523L41.6272 145.985C41.4575 146.046 41.2839 146.096 41.1074 146.134C41.2665 146.049 41.4328 145.978 41.6043 145.922L42.9866 145.408C44.1289 144.986 45.7739 144.409 47.5559 143.78C49.338 143.152 50.9829 142.598 52.1253 142.198L53.5189 141.736C53.6931 141.676 53.8704 141.627 54.0501 141.587Z" fill="#E0E0E0"/>
<path d="M70.9623 132.717C70.9623 132.757 64.1083 135.207 55.5978 138.183C47.0874 141.159 40.1763 143.541 40.1763 143.495C40.1763 143.449 47.0303 141.005 55.5407 138.023C64.0511 135.042 70.9223 132.671 70.9623 132.717Z" fill="#E0E0E0"/>
<path d="M37.9436 153.786L35.1566 154.762C34.1384 155.119 33.602 156.233 33.9586 157.252L34.9346 160.039C35.2912 161.057 36.4056 161.593 37.4238 161.237L40.2108 160.261C41.229 159.904 41.7654 158.79 41.4088 157.771L40.4328 154.984C40.0763 153.966 38.9618 153.43 37.9436 153.786Z" fill="#EBEBEB"/>
<path d="M37.6001 158.591C37.5802 158.599 37.5589 158.604 37.5373 158.604C37.5157 158.604 37.4943 158.599 37.4744 158.591L36.195 157.848C36.1587 157.826 36.1325 157.791 36.1223 157.75C36.1122 157.708 36.1188 157.665 36.1408 157.628C36.1627 157.592 36.1982 157.566 36.2395 157.556C36.2807 157.546 36.3243 157.552 36.3607 157.574L37.503 158.225L38.851 155.37C38.8684 155.331 38.9005 155.301 38.9401 155.286C38.9797 155.271 39.0237 155.272 39.0623 155.29C39.0999 155.308 39.1291 155.34 39.1439 155.379C39.1587 155.419 39.1581 155.462 39.1422 155.501L37.7143 158.545C37.6835 158.575 37.6426 158.591 37.6001 158.591Z" fill="white"/>
<path d="M74.1835 141.981C74.1835 142.027 67.3295 144.472 58.819 147.447C50.3086 150.423 43.3975 152.805 43.3975 152.759C43.3975 152.714 50.2515 150.269 58.7619 147.293C67.2723 144.317 74.1664 141.924 74.1835 141.981Z" fill="#E0E0E0"/>
<path d="M58.0254 152.953C57.8663 153.038 57.7 153.109 57.5284 153.165L56.1462 153.679C55.0039 154.101 53.3589 154.678 51.5769 155.307C49.7948 155.935 48.1498 156.489 47.0075 156.889L45.6081 157.351C45.2769 157.454 45.0884 157.506 45.0884 157.5C45.2474 157.415 45.4137 157.344 45.5853 157.289L46.9675 156.775C48.1099 156.352 49.7548 155.775 51.5369 155.147C53.3189 154.518 54.9639 153.964 56.1062 153.565L57.5056 153.102C57.6753 153.041 57.8489 152.991 58.0254 152.953Z" fill="#E0E0E0"/>
<path d="M74.9203 144.083C74.9203 144.123 68.0663 146.574 59.5559 149.549C51.0454 152.525 44.1343 154.901 44.1343 154.861C44.1343 154.821 50.9883 152.371 59.4987 149.389C68.0092 146.408 74.9032 144.038 74.9203 144.083Z" fill="#E0E0E0"/>
<path d="M13.897 95.2597L15.2906 99.2579C15.6804 100.371 16.4961 101.284 17.5586 101.796C18.621 102.308 19.8432 102.377 20.9566 101.988L50.2576 91.707C50.8085 91.5147 51.316 91.2156 51.7512 90.8269C52.1863 90.4382 52.5406 89.9676 52.7936 89.4418C53.0467 88.9161 53.1936 88.3456 53.2259 87.763C53.2583 87.1805 53.1754 86.5972 52.9821 86.0467L51.5884 82.0485L13.897 95.2597Z" fill="#E0E0E0"/>
<path d="M33.134 89.8449C32.3556 90.1188 31.5135 90.1555 30.7142 89.9505C29.9149 89.7455 29.1944 89.308 28.644 88.6933C28.0935 88.0786 27.7378 87.3144 27.6219 86.4974C27.506 85.6804 27.6351 84.8474 27.9929 84.1039C28.3506 83.3603 28.921 82.7397 29.6317 82.3204C30.3424 81.9012 31.1615 81.7023 31.9854 81.7488C32.8092 81.7954 33.6007 82.0853 34.2597 82.582C34.9186 83.0786 35.4154 83.7596 35.6871 84.5387C36.0506 85.581 35.9859 86.7249 35.5073 87.7196C35.0287 88.7142 34.1752 89.4786 33.134 89.8449ZM30.9064 83.4878C30.4264 83.6554 30.0068 83.9616 29.7008 84.3678C29.3948 84.7739 29.2162 85.2616 29.1875 85.7693C29.1588 86.277 29.2813 86.7818 29.5395 87.2198C29.7978 87.6578 30.1801 88.0094 30.6383 88.23C31.0964 88.4507 31.6096 88.5305 32.1131 88.4594C32.6166 88.3883 33.0877 88.1694 33.4668 87.8305C33.8458 87.4916 34.1159 87.0479 34.2427 86.5555C34.3695 86.063 34.3474 85.5441 34.1792 85.0642C33.9539 84.4214 33.4827 83.8944 32.869 83.5988C32.2554 83.3032 31.5495 83.2633 30.9064 83.4878Z" fill="#E0E0E0"/>
<path d="M56.5516 100.229C56.5516 100.303 48.8522 103.085 39.2965 106.426C29.7409 109.767 21.973 112.423 21.9444 112.349C21.9159 112.275 29.6438 109.493 39.1994 106.152C48.7551 102.81 56.523 100.132 56.5516 100.229Z" fill="#E0E0E0"/>
<path d="M46.6533 101.628C46.6533 101.702 43.2834 102.965 39.0625 104.444C34.8415 105.923 31.3974 107.083 31.3688 106.98C31.3403 106.877 34.7444 105.643 38.9654 104.164C43.1863 102.685 46.6305 101.554 46.6533 101.628Z" fill="#E0E0E0"/>
<path d="M198.905 217.364C201.008 216.377 203.373 216.091 205.65 216.547C206.873 216.747 208.152 217.119 208.98 218.032C209.809 218.946 209.974 220.568 209.015 221.357C208.395 221.778 207.646 221.966 206.901 221.888C205.114 221.888 203.137 221.551 201.715 222.625C200.898 223.236 200.361 224.253 199.39 224.555C198.902 224.669 198.389 224.619 197.932 224.412C197.475 224.206 197.098 223.855 196.86 223.413C196.399 222.52 196.296 221.483 196.575 220.517C196.694 219.848 196.967 219.215 197.371 218.668C197.775 218.121 198.3 217.675 198.905 217.364Z" fill="#FF2156"/>
<path d="M194.176 208.294C195.433 210.082 197.871 209.493 199.002 208.397C200.133 207.3 200.607 205.718 201.041 204.21C202.035 200.755 203.041 197.133 202.304 193.615C202.12 192.558 201.652 191.57 200.95 190.759C200.592 190.357 200.134 190.055 199.623 189.885C199.112 189.714 198.565 189.681 198.037 189.788C196.803 190.114 196.044 191.319 195.49 192.461C193.861 195.848 193.008 199.555 192.994 203.313C192.994 205.061 193.194 206.889 194.176 208.334" fill="#FF2156"/>
<path d="M190.732 210.864C191.377 210.022 191.807 209.035 191.984 207.989C192.161 206.943 192.081 205.869 191.749 204.861C191.058 202.854 189.829 201.076 188.196 199.721C186.339 198.068 184.178 196.794 181.833 195.968C180.927 195.602 179.953 195.436 178.977 195.483C178.489 195.51 178.016 195.657 177.597 195.91C177.179 196.163 176.829 196.514 176.578 196.933C175.904 198.213 176.578 199.761 177.241 201.023C178.464 203.252 179.862 205.379 181.422 207.386C182.673 209.002 184.106 210.596 186.02 211.327C187.933 212.058 189.909 211.967 190.92 210.647" fill="#FF2156"/>
<path d="M194.096 235.316C194.158 235.05 194.195 234.778 194.204 234.505C194.267 233.934 194.335 233.168 194.421 232.283C194.531 231.188 194.699 230.099 194.924 229.022C195.214 227.711 195.609 226.425 196.106 225.178C196.594 223.932 197.255 222.76 198.071 221.699C198.735 220.834 199.584 220.128 200.556 219.632C201.213 219.305 201.919 219.085 202.646 218.981C202.92 218.971 203.191 218.933 203.457 218.866C203.182 218.837 202.904 218.837 202.629 218.866C201.876 218.927 201.139 219.121 200.453 219.438C199.43 219.918 198.532 220.63 197.831 221.517C196.982 222.594 196.297 223.792 195.798 225.069C195.291 226.334 194.897 227.642 194.621 228.976C194.411 230.067 194.266 231.169 194.187 232.277C194.113 233.22 194.09 233.991 194.078 234.511C194.052 234.779 194.058 235.049 194.096 235.316Z" fill="#263238" fill-opacity="0.5"/>
<path d="M194.245 233.608C194.262 233.483 194.262 233.356 194.245 233.231V232.169C194.245 231.232 194.245 229.884 194.29 228.171C194.376 224.818 194.662 221.214 195.221 216.13C195.747 211.35 196.455 205.787 197.203 202.171C197.363 201.349 197.523 200.606 197.677 199.961C197.832 199.315 197.946 198.75 198.066 198.299C198.186 197.847 198.249 197.522 198.317 197.248C198.348 197.124 198.371 196.998 198.386 196.871C198.328 196.983 198.284 197.102 198.254 197.225C198.169 197.499 198.066 197.842 197.94 198.264C197.815 198.687 197.655 199.27 197.495 199.915C197.335 200.56 197.146 201.297 196.969 202.12C196.054 206.402 195.365 210.73 194.907 215.085C194.336 220.18 194.096 224.795 194.079 228.176C194.079 229.856 194.079 231.215 194.136 232.175C194.136 232.614 194.182 232.974 194.199 233.254C194.204 233.373 194.219 233.492 194.245 233.608Z" fill="#263238" fill-opacity="0.5"/>
<path d="M194.267 224.664C194.299 224.284 194.299 223.902 194.267 223.521C194.203 222.498 194.086 221.478 193.919 220.466C193.674 218.963 193.342 217.475 192.925 216.011C192.442 214.208 191.819 212.445 191.063 210.739C189.771 207.593 187.919 204.708 185.597 202.222C185.192 201.798 184.761 201.399 184.306 201.029C184.112 200.857 183.935 200.692 183.735 200.56L183.238 200.218C182.939 199.988 182.619 199.785 182.284 199.612C183.381 200.469 184.421 201.396 185.397 202.388C187.649 204.891 189.453 207.762 190.732 210.876C191.472 212.572 192.098 214.316 192.605 216.096C193.035 217.546 193.388 219.018 193.662 220.506C193.896 221.779 194.033 222.79 194.113 223.533C194.137 223.913 194.188 224.291 194.267 224.664Z" fill="#263238" fill-opacity="0.5"/>
<path d="M185.62 240.445L186.516 252.725H202.298L203.189 240.445H185.62Z" fill="#263238" fill-opacity="0.5"/>
<path d="M205.08 235.602H184.101V240.445H205.08V235.602Z" fill="#263238" fill-opacity="0.5"/>
<path d="M184.101 252.257V253.593H185.083H204.726V252.257H184.101Z" fill="#455A64"/>
<path d="M186.048 255.958L185.083 253.594H203.977L202.846 255.958H186.048Z" fill="#455A64"/>
<path d="M202.903 244.455C202.903 244.455 202.903 244.5 202.829 244.569L202.595 244.883L201.675 246.06L201.635 246.111L201.595 246.054L199.339 242.935H199.476L197.249 246.083L197.18 246.18L197.1 246.088L194.467 242.947H194.615L194.473 243.13L192.114 246.083L192.039 246.185L191.965 246.083C191.166 244.94 190.417 243.889 189.738 242.935H189.869L187.133 246.054L187.082 246.111L187.042 246.048C186.682 245.443 186.396 244.957 186.185 244.609L185.968 244.226C185.939 244.184 185.916 244.138 185.899 244.089C185.899 244.089 185.934 244.123 185.991 244.209L186.236 244.58L187.133 245.991H187.047L189.743 242.833L189.812 242.753L189.875 242.838L192.119 245.974H191.965L194.336 243.021L194.484 242.838L194.558 242.741L194.633 242.833L197.266 245.98H197.117L199.362 242.844L199.425 242.753L199.493 242.844C200.379 244.118 201.138 245.197 201.704 246.003H201.618L202.578 244.86L202.835 244.563L202.903 244.455Z" fill="#E0E0E0"/>
<path d="M203.412 240.359C203.412 240.417 199.459 240.462 194.581 240.462C189.703 240.462 185.751 240.417 185.751 240.359C185.751 240.302 189.703 240.262 194.581 240.262C199.459 240.262 203.412 240.308 203.412 240.359Z" fill="#455A64"/>
<path d="M204.211 253.731C204.211 253.782 199.91 253.828 194.616 253.828C189.321 253.828 185.02 253.782 185.02 253.731C185.02 253.679 189.315 253.628 194.616 253.628C199.916 253.628 204.211 253.673 204.211 253.731Z" fill="#263238" fill-opacity="0.5"/>
<path d="M48.5737 214.548C48.528 214.6 48.1681 214.383 47.7683 214.063C47.3685 213.743 47.0772 213.44 47.1229 213.383C47.1686 213.326 47.5227 213.549 47.9225 213.869C48.3223 214.189 48.6136 214.491 48.5737 214.548Z" fill="#263238" fill-opacity="0.5"/>
<path d="M59.5401 198.19C59.6956 196.666 59.5698 195.127 59.1689 193.649C58.6891 192.193 57.5696 190.862 56.0731 190.548C54.3596 190.194 52.6118 191.273 51.6523 192.735C50.6927 194.198 50.3671 195.968 50.0816 197.687C48.1329 209.567 47.4151 221.616 47.9397 233.642L54.9308 234.625C57.9751 222.076 58.9689 211.104 59.5401 198.19Z" fill="#455A64"/>
<path d="M55.0733 190.474L55.0391 190.588L54.9248 190.902L54.4565 192.113C54.3594 192.376 54.228 192.684 54.1252 192.987L53.7882 194.043L53.3941 195.26L53.0343 196.648C52.4474 198.94 51.9954 201.265 51.6806 203.61C51.3036 206.238 51.058 209.151 50.8581 212.212C50.504 218.341 50.4469 223.904 50.287 227.925C50.2127 229.941 50.1442 231.569 50.0699 232.689C50.0299 233.26 50.0014 233.665 49.9785 233.985C49.9785 234.117 49.9785 234.231 49.9785 234.316C49.9785 234.402 49.9785 234.431 49.9785 234.431C49.9785 234.431 49.9785 234.396 49.9785 234.316C49.9785 234.237 49.9785 234.117 49.9785 233.979C49.9785 233.665 49.9785 233.231 50.0185 232.683C50.0642 231.541 50.1042 229.936 50.1556 227.919C50.2698 223.921 50.2984 218.335 50.6582 212.201C50.8524 209.134 51.1094 206.215 51.4978 203.576C51.8254 201.238 52.2966 198.922 52.9086 196.642L53.2856 195.254C53.4341 194.828 53.5712 194.422 53.6968 194.038L54.0624 192.981C54.1709 192.661 54.308 192.376 54.4108 192.113L54.9248 190.925C54.9782 190.799 55.0238 190.696 55.0619 190.616C55.0578 190.568 55.0617 190.52 55.0733 190.474Z" fill="#263238" fill-opacity="0.5"/>
<path d="M55.7186 190.502C56.083 190.932 56.3726 191.421 56.5754 191.947C57.1099 193.392 57.3262 194.935 57.2094 196.471C57.0266 200.338 56.6782 205.661 56.2212 211.544C55.7643 217.427 55.2445 222.739 54.8333 226.583C54.622 228.502 54.4449 230.056 54.3135 231.152C54.245 231.672 54.1936 232.083 54.1536 232.386L54.1079 232.706C54.1106 232.742 54.1106 232.778 54.1079 232.814C54.1079 232.814 54.1079 232.78 54.1079 232.706C54.1079 232.632 54.1079 232.512 54.1079 232.38C54.1079 232.077 54.1707 231.666 54.2164 231.141C54.3249 230.044 54.4735 228.496 54.6562 226.571C55.0218 222.722 55.5073 217.433 55.9699 211.527C56.4326 205.621 56.8038 200.326 57.0323 196.471C57.1567 194.953 56.9621 193.425 56.4611 191.987C56.258 191.471 56.0095 190.974 55.7186 190.502Z" fill="#263238" fill-opacity="0.5"/>
<path d="M60.5685 208.602C60.1097 208.569 59.6607 208.453 59.2433 208.26C58.7996 208.144 58.38 207.951 58.0039 207.689C58.4632 207.719 58.9128 207.835 59.329 208.031C59.7732 208.146 60.1931 208.339 60.5685 208.602Z" fill="#263238" fill-opacity="0.5"/>
<path d="M61.413 201.474C61.0342 201.777 60.6076 202.014 60.1507 202.177C59.7263 202.412 59.2645 202.572 58.7856 202.651C59.5865 202.109 60.4756 201.711 61.413 201.474Z" fill="#263238" fill-opacity="0.5"/>
<path d="M60.9734 195.654C60.283 195.779 59.5724 195.73 58.9058 195.511C59.2437 195.414 59.5994 195.397 59.9453 195.46C60.2984 195.444 60.6503 195.511 60.9734 195.654Z" fill="#263238" fill-opacity="0.5"/>
<path d="M53.7543 191.93C53.6972 191.964 53.3888 191.582 53.0746 191.079C52.846 190.788 52.6842 190.451 52.6006 190.091C52.6577 190.057 52.9661 190.434 53.286 190.942C53.6058 191.45 53.8286 191.89 53.7543 191.93Z" fill="#263238" fill-opacity="0.5"/>
<path d="M51.3721 195.448C51.054 195.563 50.713 195.598 50.3783 195.551C50.0417 195.584 49.7024 195.533 49.3901 195.403C49.7082 195.288 50.0493 195.253 50.384 195.3C50.7205 195.268 51.0599 195.319 51.3721 195.448Z" fill="#263238" fill-opacity="0.5"/>
<path d="M49.6588 202.468C49.2932 202.453 48.9357 202.356 48.6135 202.182C48.2609 202.082 47.9351 201.905 47.6597 201.663C48.0252 201.677 48.3827 201.775 48.7049 201.948C49.0575 202.049 49.3834 202.226 49.6588 202.468Z" fill="#263238" fill-opacity="0.5"/>
<path d="M49.4756 208.402C49.4756 208.471 49.0929 208.614 48.5846 208.717C48.0762 208.819 47.6593 208.859 47.6421 208.791C47.625 208.722 48.0305 208.58 48.5332 208.477C48.8363 208.374 49.1601 208.349 49.4756 208.402Z" fill="#263238" fill-opacity="0.5"/>
<path d="M48.6877 218.09C48.6877 218.158 48.2765 218.289 47.7396 218.387C47.4188 218.482 47.0797 218.498 46.7515 218.432C47.0396 218.26 47.3648 218.161 47.6996 218.141C48.0196 218.042 48.3592 218.024 48.6877 218.09Z" fill="#263238" fill-opacity="0.5"/>
<path d="M48.1166 223.436C48.1509 223.493 47.7968 223.744 47.3284 224.007C46.86 224.27 46.4545 224.407 46.426 224.344C46.3974 224.281 46.7458 224.035 47.2142 223.773C47.6825 223.51 48.1166 223.373 48.1166 223.436Z" fill="#263238" fill-opacity="0.5"/>
<path d="M52.4975 229.502C52.4404 229.536 52.132 229.113 51.8121 228.553C51.5808 228.233 51.421 227.867 51.3438 227.48C51.4009 227.445 51.7093 227.868 52.0292 228.428C52.2605 228.748 52.4202 229.114 52.4975 229.502Z" fill="#263238" fill-opacity="0.5"/>
<path d="M53.7597 219.42C53.8054 219.466 53.4627 219.883 52.9943 220.346C52.526 220.808 52.1033 221.14 52.0519 221.088C52.0005 221.037 52.3489 220.626 52.8173 220.163C53.2856 219.7 53.7083 219.369 53.7597 219.42Z" fill="#263238" fill-opacity="0.5"/>
<path d="M53.4798 214.126C53.4284 214.177 53.1142 213.914 52.7715 213.554C52.4288 213.195 52.2003 212.846 52.246 212.801C52.2917 212.755 52.6116 213.012 52.9543 213.372C53.297 213.732 53.5312 214.08 53.4798 214.126Z" fill="#263238" fill-opacity="0.5"/>
<path d="M54.3481 207.369C54.3995 207.414 54.1139 207.82 53.7083 208.265C53.3028 208.711 52.9373 209.048 52.8859 209.002C52.8345 208.957 53.12 208.551 53.5199 208.1C53.9197 207.649 54.2967 207.323 54.3481 207.369Z" fill="#263238" fill-opacity="0.5"/>
<path d="M54.8335 202.468C54.7821 202.52 54.388 202.205 53.9425 201.771C53.497 201.337 53.1828 200.943 53.2285 200.892C53.2742 200.84 53.674 201.154 54.1196 201.594C54.5651 202.034 54.8792 202.417 54.8335 202.468Z" fill="#263238" fill-opacity="0.5"/>
<path d="M55.7933 195.831C55.7177 196.191 55.5636 196.531 55.3421 196.825C55.0394 197.339 54.7424 197.727 54.6852 197.693C54.6281 197.659 54.8223 197.213 55.1308 196.699C55.4392 196.185 55.7305 195.797 55.7933 195.831Z" fill="#263238" fill-opacity="0.5"/>
<path d="M57.592 189.685C57.6548 189.72 57.4778 190.165 57.1979 190.679C56.918 191.193 56.6267 191.587 56.5811 191.559C56.6354 191.202 56.7702 190.862 56.9752 190.565C57.255 190.045 57.5292 189.657 57.592 189.685Z" fill="#263238" fill-opacity="0.5"/>
<path d="M59.6368 192.478C59.6653 192.541 59.3855 192.735 59.0085 192.918C58.6315 193.101 58.306 193.192 58.2774 193.13C58.2488 193.067 58.5287 192.872 58.9057 192.69C59.2827 192.507 59.6082 192.416 59.6368 192.478Z" fill="#263238" fill-opacity="0.5"/>
<path d="M59.6825 214.548C58.7338 214.479 57.8352 214.095 57.1294 213.457C57.5741 213.592 58.0045 213.77 58.4145 213.989C58.8552 214.131 59.2801 214.319 59.6825 214.548Z" fill="#263238" fill-opacity="0.5"/>
<path d="M58.849 219.22C58.849 219.289 58.4435 219.426 57.9066 219.529C57.5875 219.631 57.248 219.653 56.9185 219.592C57.2041 219.417 57.5269 219.311 57.8609 219.283C58.3978 219.18 58.8376 219.152 58.849 219.22Z" fill="#263238" fill-opacity="0.5"/>
<path d="M57.8263 227.234C57.7864 227.291 57.2552 226.92 56.764 226.303C56.4369 225.951 56.2066 225.52 56.0957 225.052C56.4149 225.392 56.7035 225.759 56.9582 226.149C57.2803 226.483 57.5709 226.846 57.8263 227.234Z" fill="#263238" fill-opacity="0.5"/>
<path d="M46.5805 230.901C46.5348 230.849 46.8204 230.53 47.2145 230.193C47.6086 229.856 47.9684 229.621 48.0141 229.679C48.0598 229.736 47.7742 230.044 47.3801 230.387C46.986 230.73 46.6262 230.952 46.5805 230.901Z" fill="#263238" fill-opacity="0.5"/>
<path d="M43.3471 213.412C42.8901 211.989 42.0391 210.333 40.5483 210.31C40.1042 210.334 39.6746 210.477 39.3048 210.725C38.935 210.972 38.6385 211.314 38.4464 211.715C38.0361 212.508 37.8393 213.394 37.8753 214.286C38.0594 220.616 39.1381 226.889 41.0795 232.917H46.5456C46.4794 226.29 45.4008 219.713 43.3471 213.412Z" fill="#455A64"/>
<path d="M33.4715 204.461C33.2011 203.129 32.4911 201.926 31.4554 201.046C30.4196 200.166 29.1182 199.659 27.7598 199.607C25.3438 200.029 24.407 202.405 24.1214 204.838C23.8359 207.272 24.5898 209.693 25.338 212.029C27.7293 219.523 30.1244 227.019 32.5234 234.516L39.3203 233.774C37.1955 223.733 35.9618 214.423 33.4715 204.461Z" fill="#455A64"/>
<path d="M40.5487 210.31C40.3721 210.553 40.2173 210.811 40.0861 211.081C39.8043 211.854 39.7161 212.683 39.8291 213.497C39.9319 214.537 40.0518 215.782 40.2289 217.153C40.4059 218.524 40.6515 220.009 40.96 221.597C41.5768 224.738 42.2737 227.548 42.7135 229.593C42.9362 230.615 43.1076 231.449 43.2104 232.026C43.2561 232.295 43.296 232.512 43.3246 232.694C43.3532 232.877 43.3589 232.929 43.3246 232.929C43.2949 232.857 43.272 232.782 43.2561 232.706L43.0961 232.049C42.9476 231.438 42.7534 230.621 42.525 229.633C42.0395 227.588 41.3141 224.784 40.6972 221.637C40.3888 220.06 40.1261 218.552 39.9833 217.17C39.8919 216.485 39.8348 215.822 39.7776 215.211C39.7205 214.6 39.6634 214.023 39.6349 213.497C39.5372 212.659 39.6552 211.81 39.9776 211.03C40.1135 210.751 40.3084 210.506 40.5487 210.31Z" fill="#263238" fill-opacity="0.5"/>
<path d="M27.8855 199.412C27.5826 199.757 27.3076 200.126 27.063 200.515C26.4374 201.601 26.0828 202.821 26.0292 204.073C26.0008 205.929 26.2846 207.777 26.8688 209.539C27.44 211.561 28.1196 213.783 28.8108 216.108C30.1644 220.768 31.3867 224.984 32.2835 228.062L33.3116 231.695C33.4258 232.106 33.5115 232.432 33.58 232.683C33.6174 232.796 33.6423 232.913 33.6543 233.031C33.6019 232.925 33.5598 232.814 33.5286 232.7C33.4544 232.449 33.3458 232.129 33.2202 231.718C32.9517 230.844 32.5748 229.616 32.1178 228.114L28.5709 216.176C27.8855 213.84 27.24 211.607 26.646 209.596C26.0642 207.809 25.7956 205.935 25.8521 204.056C25.9257 202.78 26.3185 201.543 26.9944 200.458C27.2317 200.062 27.5328 199.709 27.8855 199.412Z" fill="#263238" fill-opacity="0.5"/>
<path d="M37.8642 233.048C37.8067 232.943 37.7552 232.834 37.71 232.723C37.6243 232.5 37.4815 232.186 37.3273 231.763C37.0018 230.929 36.5848 229.701 36.185 228.159C35.7852 226.617 35.3282 224.732 34.917 222.676C34.5057 220.62 34.0945 218.318 33.6376 215.919C33.1806 213.52 32.6437 211.264 32.0326 209.248C31.5024 207.455 30.8399 205.705 30.0506 204.01C29.5141 202.87 28.9015 201.767 28.2172 200.709C27.983 200.332 27.7717 200.052 27.646 199.858C27.5745 199.761 27.5114 199.657 27.4575 199.549C27.5413 199.634 27.6177 199.726 27.686 199.824C27.8288 200.018 28.0515 200.28 28.2971 200.657C29.0195 201.699 29.6593 202.795 30.2106 203.936C31.0298 205.626 31.7117 207.38 32.2496 209.179C32.8947 211.382 33.4247 213.616 33.8375 215.873C34.2887 218.267 34.7114 220.551 35.0998 222.636C35.4882 224.721 35.8994 226.566 36.3106 228.114C36.7219 229.661 37.1046 230.889 37.4016 231.729C37.5387 232.157 37.67 232.477 37.7443 232.7C37.7972 232.811 37.8375 232.928 37.8642 233.048Z" fill="#263238" fill-opacity="0.5"/>
<path d="M25.4864 210.91C25.4864 210.973 25.1323 211.121 24.6582 211.235C24.1841 211.35 23.79 211.39 23.7786 211.321C23.7672 211.253 24.127 211.11 24.6011 210.996C25.0751 210.881 25.4692 210.841 25.4864 210.91Z" fill="#263238" fill-opacity="0.5"/>
<path d="M24.7671 206.272C24.3958 206.376 24.0099 206.419 23.6248 206.398C23.2448 206.451 22.8585 206.44 22.4824 206.363C22.8381 206.194 23.2316 206.119 23.6248 206.146C24.01 206.09 24.4032 206.133 24.7671 206.272Z" fill="#263238" fill-opacity="0.5"/>
<path d="M25.5326 202.034C25.4869 202.091 25.1156 201.851 24.7101 201.503C24.3046 201.154 24.0018 200.829 24.0475 200.777C24.0932 200.726 24.4588 200.96 24.87 201.309C25.2813 201.657 25.5783 201.983 25.5326 202.034Z" fill="#263238" fill-opacity="0.5"/>
<path d="M27.6059 198.116C27.6744 198.116 27.6516 198.464 27.6458 198.858C27.6401 199.252 27.6458 199.589 27.5602 199.601C27.4745 199.612 27.3831 199.281 27.3945 198.853C27.4059 198.424 27.5545 198.099 27.6059 198.116Z" fill="#263238" fill-opacity="0.5"/>
<path d="M31.8378 199.961C31.8949 200.001 31.7292 200.338 31.4665 200.709C31.2038 201.08 30.9467 201.354 30.8953 201.314C30.8439 201.274 31.0039 200.943 31.2609 200.566C31.5179 200.189 31.7806 199.921 31.8378 199.961Z" fill="#263238" fill-opacity="0.5"/>
<path d="M34.5855 204.753C34.5855 204.821 34.26 205.021 33.803 205.21C33.3461 205.398 32.9463 205.495 32.9234 205.432C32.9006 205.37 33.249 205.164 33.7059 204.981C34.1629 204.798 34.5627 204.673 34.5855 204.753Z" fill="#263238" fill-opacity="0.5"/>
<path d="M36.2533 209.648C35.9511 209.91 35.5769 210.075 35.1795 210.122C34.7988 210.245 34.3911 210.259 34.0029 210.162C34.3694 210.016 34.7535 209.92 35.1453 209.876C35.504 209.755 35.8761 209.679 36.2533 209.648Z" fill="#263238" fill-opacity="0.5"/>
<path d="M28.5997 208.254C28.5369 208.254 28.5997 207.894 28.7082 207.494C28.8167 207.095 28.9881 206.792 29.0509 206.815C29.1137 206.837 29.0509 207.174 28.9424 207.574C28.8339 207.974 28.6968 208.277 28.5997 208.254Z" fill="#263238" fill-opacity="0.5"/>
<path d="M29.668 214.423C29.6911 214.063 29.7966 213.713 29.9764 213.4C30.2106 212.863 30.4505 212.452 30.5133 212.481C30.4902 212.841 30.3847 213.19 30.2049 213.503C29.9707 214.04 29.7308 214.463 29.668 214.423Z" fill="#263238" fill-opacity="0.5"/>
<path d="M27.029 216.113C26.6924 216.105 26.3606 216.031 26.0523 215.896C25.5325 215.731 25.1098 215.582 25.127 215.514C25.4669 215.47 25.8124 215.519 26.1265 215.656C26.6577 215.822 27.0575 216.05 27.029 216.113Z" fill="#263238" fill-opacity="0.5"/>
<path d="M28.5483 221.14C28.5883 221.197 28.297 221.471 27.9029 221.757C27.5088 222.042 27.1433 222.225 27.1033 222.173C27.0633 222.122 27.3546 221.836 27.7544 221.551C28.1542 221.265 28.5084 221.083 28.5483 221.14Z" fill="#263238" fill-opacity="0.5"/>
<path d="M29.7705 226.154C29.7705 226.217 29.4278 226.366 28.9651 226.474C28.5025 226.583 28.1198 226.623 28.1026 226.56C28.0855 226.497 28.4453 226.349 28.908 226.234C29.3706 226.12 29.7533 226.086 29.7705 226.154Z" fill="#263238" fill-opacity="0.5"/>
<path d="M36.3907 213.84C36.4249 213.897 36.1165 214.143 35.671 214.308C35.2255 214.474 34.8257 214.497 34.8142 214.434C34.8028 214.371 35.1569 214.24 35.5796 214.074C36.0023 213.909 36.3564 213.777 36.3907 213.84Z" fill="#263238" fill-opacity="0.5"/>
<path d="M37.3328 221.637C37.3042 221.699 36.9387 221.591 36.516 221.391C36.0934 221.191 35.7735 220.98 35.8021 220.917C35.8306 220.854 36.2019 220.968 36.6245 221.162C37.0472 221.357 37.3671 221.574 37.3328 221.637Z" fill="#263238" fill-opacity="0.5"/>
<path d="M39.0063 227.223C38.628 227.203 38.2581 227.104 37.9211 226.931C37.3499 226.708 36.9101 226.474 36.933 226.406C37.3094 226.425 37.6774 226.524 38.0125 226.697C38.5837 226.92 39.0292 227.154 39.0063 227.223Z" fill="#263238" fill-opacity="0.5"/>
<path d="M30.0385 231.598C30.0042 231.535 30.4497 231.238 30.9638 230.832C31.4778 230.427 31.8776 230.061 31.929 230.113C31.9805 230.164 31.6549 230.604 31.118 231.027C30.8193 231.315 30.445 231.513 30.0385 231.598Z" fill="#263238" fill-opacity="0.5"/>
<path d="M34.4482 228.742C34.3797 228.742 34.2826 228.376 34.1112 227.942C33.9399 227.508 33.7685 227.16 33.8257 227.12C33.8828 227.08 34.1684 227.377 34.3454 227.851C34.5225 228.325 34.5168 228.742 34.4482 228.742Z" fill="#263238" fill-opacity="0.5"/>
<path d="M33.266 222.042C33.226 222.099 32.9405 221.962 32.6263 221.739C32.3122 221.517 32.0951 221.288 32.1351 221.231C32.1751 221.174 32.4607 221.311 32.7748 221.534C33.089 221.756 33.3231 221.985 33.266 222.042Z" fill="#263238" fill-opacity="0.5"/>
<path d="M43.5471 211.521C43.5871 211.578 43.3072 211.852 42.9245 212.132C42.5418 212.412 42.1991 212.601 42.1591 212.544C42.1192 212.486 42.3933 212.218 42.776 211.932C43.1587 211.647 43.5471 211.464 43.5471 211.521Z" fill="#263238" fill-opacity="0.5"/>
<path d="M45.1177 215.759C45.1177 215.828 44.6893 215.919 44.1524 215.862C43.6155 215.805 43.21 215.622 43.2271 215.559C43.2442 215.496 43.6669 215.559 44.1809 215.611C44.695 215.662 45.1119 215.691 45.1177 215.759Z" fill="#263238" fill-opacity="0.5"/>
<path d="M38.4525 216.713C38.4525 216.776 38.0698 216.919 37.5443 216.953C37.0189 216.987 36.6076 216.901 36.6133 216.833C36.6191 216.764 37.0303 216.742 37.5329 216.707C38.0356 216.673 38.4411 216.644 38.4525 216.713Z" fill="#263238" fill-opacity="0.5"/>
<path d="M39.0291 212.703C39.0291 212.772 38.6178 212.783 38.1723 212.572C37.7268 212.361 37.4698 212.058 37.5155 212.001C37.5612 211.944 37.8696 212.161 38.2751 212.344C38.6807 212.526 39.0348 212.635 39.0291 212.703Z" fill="#263238" fill-opacity="0.5"/>
<path d="M45.6889 220.311C45.6547 220.368 45.2377 220.174 44.7579 219.872C44.2782 219.569 43.924 219.3 43.964 219.22C44.004 219.14 44.4152 219.363 44.895 219.66C45.3748 219.957 45.7289 220.254 45.6889 220.311Z" fill="#263238" fill-opacity="0.5"/>
<path d="M61.9498 232.203H26.3945V238.503H61.9498V232.203Z" fill="#FF2156"/>
<path d="M29.0508 237.258L33.3745 256.09H54.5649L59.2942 237.258H29.0508Z" fill="#FF2156"/>
<path d="M61.9331 238.515C61.9331 238.583 53.9367 238.64 44.0212 238.64C34.1057 238.64 26.1094 238.583 26.1094 238.515C26.1094 238.446 34.1057 238.389 44.0212 238.389C53.9367 238.389 61.9331 238.452 61.9331 238.515Z" fill="#263238" fill-opacity="0.5"/>
<path d="M42.1591 216.85C42.1019 216.884 41.8563 216.605 41.6165 216.216C41.3766 215.828 41.2281 215.485 41.2852 215.451C41.3423 215.417 41.5879 215.696 41.8278 216.085C42.0677 216.473 42.2162 216.81 42.1591 216.85Z" fill="#263238" fill-opacity="0.5"/>
<path d="M42.1707 221.916C42.1536 221.588 42.2183 221.26 42.3591 220.963C42.5248 220.454 42.719 220.06 42.7818 220.083C42.7994 220.414 42.7346 220.743 42.5933 221.043C42.4048 221.545 42.2392 221.939 42.1707 221.916Z" fill="#263238" fill-opacity="0.5"/>
<path d="M43.9069 227.24C43.8441 227.274 43.5814 226.846 43.3358 226.292C43.1387 225.97 43.014 225.609 42.9702 225.235C43.033 225.201 43.2958 225.629 43.5414 226.183C43.7385 226.505 43.8632 226.865 43.9069 227.24Z" fill="#263238" fill-opacity="0.5"/>
<path d="M40.1542 231.523C40.1028 231.478 40.3141 231.152 40.6283 230.787C40.9424 230.421 41.2337 230.17 41.2908 230.216C41.3479 230.261 41.1309 230.592 40.8167 230.952C40.5026 231.312 40.2056 231.598 40.1542 231.523Z" fill="#263238" fill-opacity="0.5"/>
<path d="M39.3662 223.75C39.3662 223.818 39.0121 223.813 38.6008 223.75C38.1896 223.687 37.8697 223.567 37.8812 223.499C37.8926 223.43 38.2353 223.436 38.6408 223.499C39.0463 223.561 39.3776 223.681 39.3662 223.75Z" fill="#263238" fill-opacity="0.5"/>
<path d="M163.064 188.897H78.7476V256.135H163.064V188.897Z" fill="#E0E0E0"/>
<g opacity="0.3">
<path opacity="0.3" d="M84.8877 189.034C94.8146 192.575 105.764 193.335 116.416 193.535C118.627 193.575 120.86 193.569 122.996 194.106C125.132 194.643 127.194 195.86 128.291 197.773C129.485 199.858 129.359 202.468 128.679 204.77C128 207.072 126.829 209.202 125.983 211.447C124.487 215.418 124.029 219.706 124.653 223.904C124.845 225.692 125.447 227.412 126.412 228.93C126.901 229.684 127.559 230.314 128.335 230.768C129.11 231.222 129.981 231.489 130.878 231.546C134.083 231.592 136.276 228.445 137.864 225.658C144.381 214.234 151.429 201.269 155.598 188.8L84.8877 189.034Z" fill="black"/>
</g>
<path d="M107.478 255.775C107.392 255.775 107.329 240.873 107.329 222.493C107.329 204.113 107.392 189.206 107.478 189.206C107.563 189.206 107.626 204.107 107.626 222.493C107.626 240.879 107.558 255.775 107.478 255.775Z" fill="#455A64"/>
<path d="M142.028 139.205C141.776 137.526 136.761 131.986 136.761 131.986C136.761 131.986 134.26 121.927 133.506 118.963C133.255 118.106 132.888 117.287 132.415 116.53C130.641 113.576 128.119 111.142 125.104 109.476L118.164 105.575L116.508 101.885L99.841 93.3176L95.323 101.314C95.323 101.314 84.3508 104.798 82.9001 107.271C81.4493 109.744 83.6197 143.141 83.6197 143.141C83.6197 143.141 79.0504 162.4 78.0623 166.387C77.0741 170.374 78.3707 175.126 78.3707 175.126L86.5441 164.874C89.0858 161.687 94.6604 160.219 98.6643 160.276L132.883 160.43L131.507 150.846L159.191 156.203C159.191 156.203 163.949 146.916 164.332 146.733C164.714 146.551 142.028 139.205 142.028 139.205Z" fill="#FF2156"/>
<path d="M99.1329 104.427C98.893 104.181 101.063 111.521 103.794 118.997C105.262 123.038 106.011 127.304 106.004 131.603V158.676L122.408 157.563L119.958 139.731C119.958 139.731 117.959 128.227 117.399 123.852C116.885 119.854 115.114 109.002 115.114 109.002C115.114 109.002 106.004 111.424 99.1329 104.427Z" fill="white"/>
<path d="M135.539 145.922C135.514 145.784 135.514 145.643 135.539 145.505C135.577 145.132 135.65 144.763 135.756 144.403C136.103 143.202 136.747 142.107 137.63 141.222C138.517 140.338 139.61 139.69 140.811 139.337C141.171 139.23 141.54 139.157 141.913 139.12C142.049 139.094 142.189 139.094 142.325 139.12C142.325 139.171 141.754 139.234 140.874 139.537C139.732 139.928 138.696 140.576 137.843 141.431C136.991 142.285 136.345 143.323 135.956 144.466C135.653 145.351 135.591 145.922 135.539 145.922Z" fill="#263238" fill-opacity="0.5"/>
<path d="M136.384 139.434C137.146 138.986 138.008 138.737 138.892 138.708C139.766 138.587 140.657 138.694 141.479 139.017C141.479 139.108 140.337 138.886 138.915 139.017C137.492 139.148 136.419 139.52 136.384 139.434Z" fill="#263238" fill-opacity="0.5"/>
<g opacity="0.3">
<path opacity="0.3" d="M81.9694 154.21L80.5415 155.821C82.0304 157.659 84.0483 158.995 86.3217 159.647C88.6131 160.134 90.9543 160.345 93.2957 160.276C94.2442 160.322 95.1944 160.231 96.1173 160.007C97.0483 159.739 97.9108 159.213 98.876 159.156C99.5234 159.159 100.167 159.252 100.789 159.43C101.416 159.608 102.077 159.618 102.709 159.459C103.021 159.375 103.298 159.192 103.499 158.938C103.699 158.684 103.813 158.372 103.822 158.048C96.7018 155.967 89.373 154.68 81.9694 154.21Z" fill="black"/>
</g>
<path d="M128.805 156.278L124.807 152.005L116.497 149.92C116.497 149.92 108.912 152.205 108.729 152.205C108.546 152.205 102.126 150.446 102.126 150.446L99.8813 158.682L111.448 159.476L124.653 158.945C124.653 158.945 125.344 158.305 124.933 157.865C124.522 157.426 127.143 158.608 127.452 158.619C127.76 158.631 128.354 158.871 128.765 158.379C129.045 158.014 129.422 156.934 128.805 156.278Z" fill="#FFBE9D"/>
<path d="M124.933 157.837C124.484 157.752 124.044 157.626 123.619 157.46C122.819 157.209 121.706 156.889 120.466 156.546C119.227 156.203 118.084 155.975 117.256 155.832C116.803 155.773 116.357 155.668 115.925 155.518C116.383 155.498 116.841 155.532 117.29 155.621C118.383 155.773 119.466 155.987 120.535 156.26C121.605 156.532 122.658 156.868 123.687 157.266C124.125 157.402 124.544 157.594 124.933 157.837Z" fill="#D08A66"/>
<path d="M128.805 156.278C128.182 156.12 127.568 155.93 126.966 155.706C125.824 155.33 124.264 154.861 122.511 154.376C120.757 153.89 119.204 153.336 118.021 153.268C117.385 153.235 116.746 153.26 116.114 153.342C116.268 153.257 116.437 153.199 116.611 153.17C117.078 153.07 117.556 153.031 118.033 153.056C119.255 153.056 120.889 153.576 122.602 154.09C124.316 154.604 125.926 155.078 127.046 155.512C127.617 155.724 128.046 155.918 128.354 156.055C128.514 156.107 128.667 156.182 128.805 156.278Z" fill="#D08A66"/>
<path d="M82.9001 107.271C82.9001 107.271 76.9313 111.424 75.4749 117.398C74.0184 123.373 67.7298 147.79 69.0206 151.44C70.3115 155.09 95.4087 158.676 95.4087 158.676L98.3845 146.111L85.636 142.621C85.636 142.621 85.8016 130.998 85.9615 126.183C86.1215 121.368 82.9001 107.271 82.9001 107.271Z" fill="#FF2156"/>
<path d="M98.2246 148.001L102.331 149.012L99.8581 158.482L95.8257 157.837L98.2246 148.001Z" fill="white"/>
<path d="M68.9294 150.149C68.9294 150.149 68.9294 150.36 68.9922 150.72C69.131 151.272 69.4361 151.769 69.8661 152.142C70.957 153.159 73.0418 154.004 75.6806 154.478C76.8857 154.878 78.2623 155.192 79.7302 155.524C81.1981 155.855 82.7859 156.192 84.4537 156.529C87.7951 157.214 91.4906 157.934 95.4088 158.665L95.2374 158.774C95.5173 157.631 95.8086 156.38 96.1227 155.13C96.8253 152.274 97.5107 149.464 98.1561 146.819L98.2589 146.99L86.9555 143.786C85.3948 143.129 83.706 142.832 82.0149 142.918C80.7296 142.99 79.467 143.287 78.2851 143.798C77.534 144.123 76.8166 144.52 76.1432 144.986L75.6235 145.363C75.5666 145.408 75.5054 145.449 75.4407 145.483C75.4407 145.483 75.4921 145.425 75.6006 145.334C75.7091 145.243 75.8748 145.1 76.1032 144.928C76.7666 144.437 77.4809 144.017 78.2337 143.678C79.4231 143.139 80.7003 142.819 82.0034 142.735C83.7243 142.625 85.4474 142.911 87.0411 143.569L98.3789 146.745L98.5159 146.779L98.4817 146.916C97.8362 149.561 97.1565 152.348 96.4597 155.232C96.1513 156.478 95.8543 157.711 95.5687 158.871L95.5344 159.008H95.3973C91.4791 158.271 87.7894 157.54 84.448 156.843C82.7802 156.495 81.1981 156.146 79.7245 155.804C78.2508 155.461 76.8686 155.135 75.6577 154.718C72.9847 154.21 70.8999 153.33 69.7975 152.262C69.3604 151.869 69.0603 151.347 68.9408 150.772C68.8996 150.566 68.8957 150.355 68.9294 150.149Z" fill="#263238" fill-opacity="0.5"/>
<path d="M86.3326 143.472C86.2983 143.512 85.8699 143.118 85.1046 142.609C83.1001 141.267 80.7308 140.575 78.3191 140.628C77.3938 140.628 76.8283 140.753 76.8169 140.702C77.2954 140.529 77.7989 140.434 78.3076 140.422C80.7858 140.242 83.2462 140.958 85.2416 142.438C85.6599 142.72 86.0285 143.069 86.3326 143.472Z" fill="#263238" fill-opacity="0.5"/>
<path d="M88.0066 123.024C88.0275 123.279 88.0275 123.535 88.0066 123.789C88.0066 124.286 87.9552 124.995 87.8867 125.874C87.7439 127.628 87.4868 130.044 87.0242 132.694C86.6626 134.961 86.1338 137.199 85.442 139.388C85.305 139.805 85.1565 140.182 85.0365 140.53L84.671 141.353C84.5639 141.587 84.4318 141.81 84.2769 142.015C84.3485 141.771 84.4441 141.533 84.5624 141.307C84.6595 141.062 84.7623 140.782 84.8823 140.473C85.0022 140.165 85.1165 139.765 85.2421 139.331C85.8664 137.134 86.3641 134.903 86.7329 132.648C87.1898 130.01 87.4811 127.605 87.6753 125.857C87.761 125.029 87.8352 124.338 87.8924 123.789C87.8998 123.531 87.9381 123.274 88.0066 123.024Z" fill="#263238" fill-opacity="0.5"/>
<path d="M102.559 116.553C102.559 116.553 102.502 116.399 102.365 116.13C102.162 115.75 101.865 115.427 101.503 115.193C101.235 115.009 100.928 114.889 100.606 114.842C100.285 114.794 99.9564 114.821 99.6465 114.919C99.2537 115.054 98.9028 115.288 98.6283 115.6C98.3539 115.911 98.1654 116.289 98.0815 116.696L98.0015 117.101L97.8245 116.724C97.1564 115.29 96.5747 113.818 96.0824 112.315C95.2098 109.811 94.7731 107.176 94.7916 104.524C94.7916 104.016 94.8601 103.559 94.8887 103.153C94.9172 102.748 95.0086 102.411 95.0715 102.136C95.1317 101.848 95.2158 101.565 95.3228 101.291C95.1279 102.358 95.0191 103.439 94.9972 104.524C95.0442 107.146 95.5049 109.745 96.3623 112.223C96.855 113.715 97.4269 115.179 98.0758 116.61L97.8188 116.644C97.9173 116.195 98.1322 115.78 98.442 115.44C98.7518 115.1 99.1455 114.848 99.5837 114.708C99.9237 114.605 100.283 114.583 100.633 114.644C100.983 114.704 101.314 114.846 101.6 115.056C101.971 115.317 102.263 115.675 102.445 116.09C102.495 116.2 102.532 116.315 102.554 116.433C102.565 116.507 102.571 116.553 102.559 116.553Z" fill="#263238" fill-opacity="0.5"/>
<path d="M116.485 117.838C116.424 117.615 116.38 117.388 116.354 117.158C116.229 116.529 116.189 115.885 116.234 115.245C116.362 114.26 116.853 113.358 117.61 112.715C118.079 112.329 118.666 112.117 119.272 112.115C119.603 112.111 119.931 112.179 120.232 112.314C120.534 112.449 120.803 112.648 121.02 112.897L120.769 113.046L120.226 111.681C119.158 108.99 118.21 106.54 117.536 104.775L116.754 102.668C116.645 102.416 116.563 102.154 116.508 101.885C116.649 102.121 116.767 102.37 116.862 102.628C117.091 103.199 117.382 103.867 117.736 104.701C118.461 106.454 119.45 108.882 120.506 111.555L121.043 112.926L121.391 113.805L120.82 113.069C120.632 112.85 120.397 112.675 120.134 112.557C119.87 112.438 119.584 112.379 119.295 112.383C118.752 112.38 118.223 112.563 117.799 112.903C117.085 113.5 116.609 114.333 116.457 115.25C116.395 115.876 116.407 116.507 116.491 117.13C116.518 117.365 116.516 117.603 116.485 117.838Z" fill="#263238" fill-opacity="0.5"/>
<path d="M127.08 119.254C127.16 119.254 128.451 127.925 129.964 138.646C131.478 149.366 132.632 158.065 132.552 158.065C132.472 158.065 131.181 149.395 129.667 138.646C128.154 127.896 127 119.266 127.08 119.254Z" fill="#263238" fill-opacity="0.5"/>
<g opacity="0.3">
<path opacity="0.3" d="M96.2544 112.406C96.3239 114.627 96.8062 116.816 97.6766 118.86C98.2992 118.089 98.9903 117.278 99.9613 117.05C101.138 116.77 102.332 117.495 103.183 118.386C103.035 117.495 102.683 116.651 102.155 115.919C101.891 115.559 101.547 115.265 101.151 115.06C100.754 114.855 100.316 114.744 99.8699 114.736C99.4252 114.747 98.9967 114.905 98.6522 115.187C98.3077 115.468 98.0669 115.856 97.9679 116.29L96.3286 112.446" fill="black"/>
</g>
<path d="M86.607 118.683C86.5556 118.683 86.5727 118.083 86.4014 117.152C86.1667 115.939 85.695 114.785 85.0134 113.754C84.6296 113.196 84.1915 112.678 83.7054 112.206C83.3027 111.825 82.8647 111.482 82.3975 111.184C81.5921 110.675 81.0266 110.481 81.0495 110.43C81.1897 110.44 81.327 110.475 81.455 110.533C81.6149 110.576 81.7699 110.635 81.9177 110.71C82.1151 110.795 82.306 110.894 82.4888 111.007C82.9856 111.287 83.4509 111.621 83.8768 112.001C84.389 112.478 84.8469 113.01 85.2419 113.588C85.9498 114.649 86.4105 115.856 86.5898 117.118C86.6467 117.496 86.6658 117.879 86.647 118.261C86.647 118.535 86.6298 118.683 86.607 118.683Z" fill="#263238" fill-opacity="0.5"/>
<path d="M119.763 77.9531C119.437 74.8947 117.971 72.0711 115.657 70.0444C113.344 68.0176 110.352 66.9362 107.277 67.0152H106.643C99.8176 67.5864 96.4934 73.7036 97.2588 80.5062L99.1322 104.438L99.9262 105.409C101.709 107.599 104.165 109.137 106.913 109.785C109.661 110.433 112.547 110.154 115.119 108.99L114.594 101.291C114.594 101.291 121.139 100.103 121.048 93.5346C121.008 90.3475 120.391 83.8247 119.763 77.9531Z" fill="#FFBE9D"/>
<path d="M114.646 101.274C111.598 101.359 108.59 100.566 105.981 98.9893C105.981 98.9893 108.123 103.667 114.663 102.908L114.646 101.274Z" fill="#D08A66"/>
<path d="M117.684 83.3564C117.691 83.6003 117.603 83.8374 117.439 84.0182C117.275 84.1991 117.048 84.3098 116.805 84.3274C116.685 84.3391 116.565 84.3271 116.451 84.292C116.337 84.2569 116.23 84.1994 116.138 84.1229C116.046 84.0464 115.971 83.9523 115.915 83.8462C115.86 83.7401 115.826 83.6241 115.816 83.5049C115.808 83.2605 115.896 83.0227 116.06 82.8415C116.224 82.6604 116.452 82.55 116.696 82.5339C116.815 82.5213 116.936 82.5328 117.05 82.5675C117.165 82.6023 117.272 82.6598 117.364 82.7364C117.456 82.8131 117.532 82.9075 117.587 83.014C117.642 83.1204 117.675 83.2369 117.684 83.3564Z" fill="#263238" fill-opacity="0.5"/>
<path d="M118.101 79.7866C118.027 79.9008 117.284 79.9808 116.387 80.4606C115.491 80.9403 114.965 81.5401 114.845 81.5286C114.725 81.5172 114.845 81.363 115.068 81.0946C115.41 80.7157 115.816 80.4005 116.267 80.1635C116.699 79.9226 117.171 79.7656 117.661 79.7009C117.998 79.6666 118.141 79.7295 118.101 79.7866Z" fill="#263238" fill-opacity="0.5"/>
<path d="M108.203 83.8533C108.214 84.0984 108.127 84.3379 107.963 84.5197C107.798 84.7015 107.568 84.811 107.323 84.8243C107.204 84.8369 107.083 84.8254 106.969 84.7906C106.854 84.7558 106.747 84.6984 106.655 84.6217C106.563 84.5451 106.487 84.4507 106.432 84.3442C106.377 84.2377 106.344 84.1213 106.335 84.0018C106.327 83.7575 106.414 83.5196 106.578 83.3385C106.743 83.1573 106.971 83.047 107.215 83.0308C107.334 83.0183 107.454 83.0297 107.569 83.0645C107.684 83.0993 107.79 83.1567 107.882 83.2334C107.974 83.3101 108.05 83.4044 108.105 83.5109C108.16 83.6174 108.193 83.7338 108.203 83.8533Z" fill="#263238" fill-opacity="0.5"/>
<path d="M108.088 81.1632C107.957 81.1632 107.346 80.7805 106.375 80.5406C105.404 80.3007 104.598 80.3521 104.513 80.2721C104.427 80.1922 104.616 80.1579 104.964 80.1294C105.473 80.0971 105.984 80.1453 106.478 80.2721C106.956 80.3857 107.411 80.5788 107.826 80.8433C108.054 81.0261 108.123 81.1517 108.088 81.1632Z" fill="#263238" fill-opacity="0.5"/>
<path d="M112.019 89.0053C112.548 88.8286 113.096 88.7154 113.652 88.6683C113.909 88.6683 114.149 88.5769 114.189 88.3998C114.205 88.1351 114.139 87.8719 114.001 87.6459L113.184 85.6982C112.042 82.9337 111.23 80.6548 111.345 80.6148C111.459 80.5748 112.487 82.7738 113.589 85.5383C113.864 86.2237 114.126 86.8748 114.372 87.4974C114.541 87.8036 114.597 88.1592 114.532 88.5026C114.496 88.5948 114.44 88.6776 114.368 88.7449C114.296 88.8122 114.209 88.8621 114.115 88.891C113.974 88.9351 113.828 88.9601 113.681 88.9653C113.131 89.0499 112.572 89.0633 112.019 89.0053Z" fill="#263238" fill-opacity="0.5"/>
<path d="M108.089 77.2677C107.975 77.5362 106.975 77.3591 105.804 77.4391C104.633 77.519 103.639 77.8046 103.519 77.5476C103.451 77.4276 103.634 77.1763 104.028 76.9307C104.558 76.629 105.15 76.4525 105.759 76.4149C106.368 76.3773 106.977 76.4795 107.541 76.7137C107.917 76.9136 108.123 77.1363 108.089 77.2677Z" fill="#263238" fill-opacity="0.5"/>
<path d="M118.079 77.4904C117.856 77.7246 116.988 77.4904 115.948 77.4904C114.909 77.4904 114.023 77.6675 113.818 77.4276C113.726 77.3134 113.864 77.0792 114.246 76.8564C114.774 76.5798 115.364 76.444 115.96 76.4623C116.56 76.4582 117.151 76.6118 117.673 76.9078C118.05 77.142 118.176 77.3819 118.079 77.4904Z" fill="#263238" fill-opacity="0.5"/>
<path d="M121.676 72.1158C121.618 71.816 121.453 71.5477 121.211 71.3615C120.969 71.1752 120.667 71.0839 120.363 71.1048C120.691 71.0112 120.997 70.854 121.265 70.6422C121.398 70.5348 121.498 70.3922 121.554 70.2305C121.609 70.0688 121.618 69.8948 121.579 69.7283C121.408 69.22 120.757 69.1114 120.243 68.9686C119.568 68.7725 118.97 68.3738 118.529 67.8263C117.907 67.0381 117.667 66.01 117.124 65.1589C116.774 64.6095 116.304 64.1457 115.751 63.8016C115.198 63.4575 114.574 63.2419 113.926 63.1707C113.279 63.0994 112.623 63.1744 112.008 63.39C111.393 63.6055 110.834 63.9563 110.373 64.4164C109.869 63.8984 109.249 63.5081 108.563 63.278C107.878 63.048 107.148 62.9848 106.434 63.0937C105.719 63.2027 105.041 63.4806 104.456 63.9043C103.87 64.3281 103.394 64.8855 103.068 65.5302C102.191 65.1648 101.233 65.0417 100.293 65.1738C99.3529 65.3058 98.4656 65.6882 97.724 66.2809C96.9824 66.8736 96.4138 67.6548 96.0777 68.5426C95.7417 69.4305 95.6505 70.3924 95.8137 71.3276L99.9033 73.835C99.9365 73.524 100.035 73.2235 100.193 72.9535C100.351 72.6835 100.565 72.4501 100.819 72.2687C101.074 72.0873 101.365 71.9621 101.671 71.9012C101.978 71.8404 102.294 71.8454 102.599 71.9159C103.833 72.2757 104.621 73.7036 105.901 73.8007C106.9 73.875 107.751 73.1039 108.716 72.8469C109.887 72.5327 111.127 73.0011 112.183 73.5951C113.24 74.1891 114.251 74.9316 115.428 75.2287C116.833 75.5104 118.292 75.3363 119.592 74.7317C120.169 74.5293 120.695 74.2038 121.134 73.7779C121.35 73.5642 121.512 73.3018 121.607 73.0127C121.701 72.7235 121.725 72.416 121.676 72.1158Z" fill="#263238" fill-opacity="0.5"/>
<path d="M100.595 71.9044L119.329 71.8016C118.653 70.5426 117.671 69.474 116.473 68.6945C113.985 66.8766 110.987 65.8911 107.906 65.8786C104.85 65.8786 98.7383 69.8025 96.585 71.9673C94.8715 73.6808 94.9172 75.1601 94.9172 75.1601C94.7001 77.5933 96.1338 80.3006 96.7449 82.6824C97.0534 83.9047 97.6988 87.6059 97.6988 87.6059C98.7269 87.5773 99.0867 86.7434 98.9039 85.7267L98.6012 81.7285C99.6121 80.8852 100.32 79.735 100.618 78.4527C100.916 77.1704 100.787 75.8258 100.252 74.6232C99.9949 74.2691 99.378 72.6184 100.595 71.9044Z" fill="#263238" fill-opacity="0.5"/>
<path d="M98.3332 81.4658C97.3793 78.153 96.4997 74.6118 97.5164 71.299H96.9453L96.7168 71.4646C96.1886 71.2872 95.6177 71.2826 95.0868 71.4515C94.5558 71.6205 94.0925 71.9542 93.764 72.4042C93.4356 72.8543 93.259 73.3972 93.26 73.9544C93.261 74.5116 93.4395 75.0539 93.7695 75.5028C93.2126 75.4979 92.673 75.6966 92.2523 76.0616C91.8316 76.4266 91.5586 76.9327 91.4849 77.4848C91.4868 78.254 91.6981 79.0083 92.096 79.6666C92.4949 80.3269 92.739 81.069 92.81 81.8371C92.834 82.2196 92.7223 82.5983 92.4945 82.9065C92.2667 83.2147 91.9375 83.4327 91.5648 83.522C91.7453 83.9117 92.0546 84.2273 92.4406 84.4156C92.8266 84.6039 93.2656 84.6534 93.6839 84.5558C93.4171 85.207 92.9716 85.7693 92.3987 86.178C93.621 87.0119 95.2946 86.7491 96.6197 86.0809C97.4417 85.7502 98.1129 85.1279 98.5045 84.3331C98.8701 83.4135 98.5959 82.4025 98.3332 81.4658Z" fill="#263238" fill-opacity="0.5"/>
<path d="M98.0248 85.3327C97.9106 85.287 93.4554 84.1161 93.7353 88.5998C94.0152 93.0834 98.4475 91.9011 98.4475 91.7698C98.4475 91.6384 98.0248 85.3327 98.0248 85.3327Z" fill="#FFBE9D"/>
<path d="M97.3732 90.1419C97.3732 90.1419 97.299 90.199 97.1676 90.2675C96.9901 90.3556 96.7856 90.3719 96.5964 90.3132C96.1109 90.1647 95.6711 89.4393 95.6026 88.6283C95.568 88.2408 95.6207 87.8504 95.7568 87.4859C95.7932 87.3418 95.8643 87.2087 95.9638 87.0982C96.0634 86.9877 96.1884 86.9032 96.328 86.8519C96.4166 86.8243 96.5121 86.828 96.5984 86.8623C96.6846 86.8966 96.7566 86.9595 96.802 87.0404C96.8706 87.1604 96.842 87.2518 96.8706 87.2632C96.8991 87.2746 96.962 87.1775 96.9163 86.9947C96.8795 86.888 96.8119 86.7946 96.7221 86.7263C96.6588 86.6821 96.5871 86.6512 96.5115 86.6355C96.4359 86.6198 96.358 86.6196 96.2823 86.6349C96.1005 86.6826 95.9337 86.7758 95.7979 86.9057C95.662 87.0356 95.5614 87.1979 95.5055 87.3774C95.3407 87.7787 95.2722 88.2129 95.3056 88.6454C95.3913 89.5479 95.8768 90.3589 96.5622 90.5189C96.6838 90.5456 96.8099 90.5451 96.9313 90.5175C97.0528 90.4898 97.1666 90.4357 97.2647 90.3589C97.3732 90.2504 97.3904 90.1476 97.3732 90.1419Z" fill="#D08A66"/>
<path d="M93.3694 81.6143C93.3694 81.6143 93.2438 81.443 93.2837 81.0889C93.3315 80.8486 93.4315 80.6218 93.5766 80.4244C93.7217 80.227 93.9083 80.0639 94.1234 79.9465C94.7669 79.6401 95.4671 79.4709 96.1796 79.4496C96.5782 79.4497 96.9712 79.3555 97.3265 79.1749C97.6819 78.9942 97.9895 78.7322 98.2243 78.4101C98.5974 77.6837 98.7218 76.855 98.5785 76.0512C98.47 75.2972 98.27 74.6175 98.1729 74.0292C97.9921 73.3989 98.002 72.7291 98.2015 72.1044C98.2055 72.7346 98.2763 73.3626 98.4128 73.9778C98.5385 74.549 98.7612 75.2172 98.8983 76.0112C99.0708 76.8895 98.9378 77.8005 98.5214 78.5929C98.2736 79.0024 97.8984 79.3194 97.4533 79.4953C97.0547 79.6432 96.6376 79.7355 96.2138 79.7695C95.5384 79.7734 94.8697 79.9052 94.2433 80.1579C94.0471 80.2587 93.873 80.3975 93.7308 80.5661C93.5886 80.7347 93.4813 80.9299 93.4151 81.1403C93.3895 81.2971 93.3742 81.4555 93.3694 81.6143Z" fill="#455A64"/>
<path d="M92.2843 79.6667C92.2843 79.6667 92.1872 79.541 92.1472 79.2611C92.1011 78.8665 92.1789 78.4672 92.37 78.1188C92.5011 77.8712 92.6819 77.6535 92.9012 77.4791C93.1575 77.2868 93.4513 77.1506 93.7636 77.0793C94.0666 77.0143 94.3551 76.8943 94.6147 76.7251C94.7295 76.6225 94.8194 76.4952 94.8778 76.3527C94.9362 76.2102 94.9615 76.0563 94.9517 75.9027C94.9517 75.5657 94.9117 75.2058 94.9231 74.846C94.9278 74.5023 94.9661 74.1599 95.0374 73.8236C95.1527 73.2555 95.3714 72.7134 95.6828 72.2243C95.7818 72.0449 95.9241 71.893 96.0966 71.7823C96.2691 71.6716 96.4665 71.6056 96.6709 71.5903C96.9679 71.5903 97.0936 71.7274 97.0821 71.7388C97.0707 71.7503 96.9336 71.6874 96.6823 71.7388C96.5106 71.7755 96.3496 71.8513 96.212 71.9602C96.0743 72.0692 95.9635 72.2084 95.8884 72.3671C95.6306 72.8462 95.4494 73.3627 95.3515 73.8979C95.2962 74.2148 95.2676 74.5357 95.2658 74.8574C95.2658 75.1887 95.3172 75.5428 95.3001 75.9312C95.3084 76.1345 95.27 76.3371 95.1878 76.5232C95.1057 76.7094 94.9819 76.8742 94.826 77.005C94.5311 77.2024 94.1986 77.3366 93.8493 77.3991C93.5892 77.4436 93.3416 77.543 93.1229 77.6908C92.9043 77.8385 92.7196 78.0311 92.5813 78.2559C92.3467 78.687 92.2434 79.1775 92.2843 79.6667Z" fill="#455A64"/>
<path d="M118.535 67.8263C118.564 67.8263 118.198 68.0719 117.61 67.7977C117.279 67.6181 116.989 67.371 116.759 67.0723C116.476 66.7009 116.123 66.3884 115.719 66.1528C115.195 65.8579 114.596 65.722 113.996 65.7615C113.395 65.8011 112.819 66.0144 112.338 66.3755C111.767 66.7753 111.293 67.3408 110.625 67.8092C110.285 68.0612 109.896 68.2383 109.482 68.3289C109.055 68.4038 108.615 68.3624 108.209 68.209C107.398 67.9177 106.758 67.4207 106.061 67.1694C105.389 66.9113 104.674 66.7815 103.953 66.7868C102.713 66.7852 101.507 67.1972 100.526 67.9577C99.8715 68.4692 99.3274 69.1086 98.9271 69.8368C98.6472 70.3566 98.5444 70.6764 98.5158 70.665C98.4873 70.6536 98.5158 70.5793 98.5615 70.4251C98.6262 70.2027 98.7064 69.9851 98.8014 69.774C99.1703 68.9962 99.7067 68.3096 100.372 67.7635C101.375 66.944 102.624 66.4871 103.919 66.4669C104.681 66.4471 105.44 66.5771 106.152 66.8496C106.906 67.1237 107.557 67.6207 108.294 67.8777C108.643 68.0121 109.022 68.0496 109.391 67.9862C109.748 67.9042 110.085 67.7486 110.379 67.5293C110.979 67.1009 111.481 66.5354 112.093 66.1128C112.658 65.6895 113.346 65.4628 114.052 65.4674C114.654 65.4718 115.244 65.6332 115.765 65.9357C116.182 66.2017 116.545 66.5448 116.833 66.9467C117.033 67.2401 117.292 67.4891 117.593 67.6778C117.876 67.8464 118.214 67.8995 118.535 67.8263Z" fill="#455A64"/>
<path d="M109.528 90.1819C109.67 90.1819 109.83 91.1072 110.767 91.6498C111.704 92.1924 112.703 91.9182 112.738 92.0496C112.772 92.181 112.538 92.2781 112.109 92.358C111.549 92.462 110.971 92.3649 110.476 92.0839C110.001 91.8094 109.65 91.3639 109.493 90.8387C109.391 90.4446 109.459 90.1876 109.528 90.1819Z" fill="#263238" fill-opacity="0.5"/>
<path d="M168.633 179.427C166.894 177.933 164.637 177.182 162.35 177.337L158.489 189.6C161.316 189.725 164.138 191.182 166.868 190.434C167.958 190.097 168.93 189.456 169.667 188.586C170.405 187.715 170.879 186.652 171.032 185.521C171.15 184.388 170.995 183.242 170.577 182.181C170.159 181.12 169.493 180.176 168.633 179.427Z" fill="#FF2156"/>
<path d="M162.396 177.057C162.396 176.96 162.813 176.88 163.538 176.885C164.617 176.905 165.685 177.108 166.697 177.485C168.242 178.087 169.579 179.125 170.546 180.472C171.137 181.271 171.573 182.174 171.831 183.134C172.111 184.184 172.142 185.285 171.923 186.35C171.71 187.428 171.229 188.436 170.523 189.28C169.848 190.048 168.992 190.637 168.033 190.993C166.475 191.544 164.795 191.653 163.178 191.307C162.138 191.104 161.123 190.788 160.151 190.365C159.471 190.074 159.112 189.857 159.146 189.76C159.18 189.662 159.591 189.691 160.288 189.811C160.985 189.931 162.042 190.154 163.298 190.268C164.723 190.426 166.165 190.23 167.496 189.697C168.226 189.388 168.872 188.91 169.381 188.303C169.915 187.639 170.279 186.855 170.444 186.018C170.6 185.189 170.589 184.337 170.409 183.513C170.229 182.689 169.886 181.909 169.398 181.221C168.611 180.028 167.529 179.06 166.257 178.41C165.355 177.985 164.411 177.656 163.441 177.428C162.784 177.279 162.384 177.16 162.396 177.057Z" fill="#F5F5F5"/>
<path d="M126.623 223.064L118.227 246.591L147.442 257.186C148.288 254.33 135.202 243.25 135.202 243.25L141.199 228.399L126.623 223.064Z" fill="#FF2156"/>
<g opacity="0.6">
<path opacity="0.6" d="M126.629 238.709C126.316 238.692 126.009 238.791 125.765 238.987C125.522 239.183 125.359 239.463 125.309 239.771C125.281 240.082 125.373 240.391 125.567 240.635C125.76 240.88 126.04 241.041 126.349 241.085C126.682 241.102 127.009 240.995 127.267 240.784C127.525 240.572 127.694 240.272 127.742 239.942C127.742 239.32 127.125 238.606 126.509 238.692" fill="white"/>
</g>
<path d="M118.227 246.591L119.078 244.221L146.826 255.29C146.826 255.29 147.922 256.324 147.442 257.186L118.227 246.591Z" fill="white"/>
<path d="M135.733 243.272C135.676 243.415 134.939 243.221 134.071 243.427C133.203 243.632 132.609 244.095 132.5 243.998C132.392 243.901 132.9 243.147 133.957 242.918C135.013 242.69 135.807 243.152 135.733 243.272Z" fill="#263238" fill-opacity="0.5"/>
<path d="M138.361 245.654C138.361 245.803 137.635 245.82 136.933 246.225C136.23 246.631 135.859 247.242 135.716 247.185C135.573 247.128 135.779 246.288 136.664 245.768C137.55 245.249 138.361 245.517 138.361 245.654Z" fill="#263238" fill-opacity="0.5"/>
<path d="M138.743 249.949C138.606 249.949 138.663 249.15 139.315 248.499C139.966 247.847 140.742 247.785 140.76 247.927C140.777 248.07 140.217 248.333 139.691 248.876C139.166 249.418 138.892 249.989 138.743 249.949Z" fill="#263238" fill-opacity="0.5"/>
<path d="M136.722 239.737C136.613 239.845 136.031 239.411 135.208 239.166C134.386 238.92 133.66 238.954 133.632 238.806C133.603 238.657 134.386 238.366 135.345 238.663C136.305 238.96 136.836 239.651 136.722 239.737Z" fill="#263238" fill-opacity="0.5"/>
<path d="M137.281 236.019C136.756 235.972 136.254 235.787 135.825 235.482C135.33 235.198 134.873 234.853 134.465 234.454C134.221 234.22 133.994 233.97 133.786 233.705C133.654 233.555 133.546 233.386 133.466 233.203C133.408 233.067 133.398 232.917 133.436 232.775C133.475 232.633 133.559 232.508 133.677 232.42C133.784 232.347 133.907 232.299 134.036 232.281C134.165 232.263 134.296 232.276 134.42 232.317C134.605 232.384 134.78 232.476 134.939 232.592C135.225 232.782 135.492 232.998 135.739 233.237C136.152 233.637 136.499 234.1 136.767 234.608C137.061 235.053 137.21 235.577 137.195 236.11C137.115 236.11 136.944 235.567 136.447 234.796C136.152 234.353 135.803 233.948 135.408 233.591C135.174 233.381 134.924 233.19 134.659 233.02C134.38 232.826 134.117 232.729 133.991 232.837C133.866 232.946 133.928 232.9 133.963 233.014C134.022 233.149 134.101 233.274 134.197 233.385C134.384 233.639 134.588 233.879 134.808 234.105C135.179 234.496 135.586 234.849 136.025 235.162C136.779 235.704 137.315 235.944 137.281 236.019Z" fill="#263238" fill-opacity="0.5"/>
<path d="M137.024 236.167C136.9 235.649 136.944 235.105 137.15 234.613C137.323 234.063 137.587 233.545 137.932 233.083C138.139 232.811 138.37 232.559 138.623 232.329C138.774 232.165 138.963 232.043 139.174 231.973C139.385 231.903 139.61 231.888 139.828 231.929C139.957 231.98 140.069 232.067 140.151 232.179C140.233 232.291 140.281 232.424 140.291 232.563C140.302 232.755 140.286 232.947 140.245 233.134C140.155 233.598 139.974 234.039 139.711 234.431C139.448 234.824 139.109 235.159 138.715 235.419C137.869 235.99 137.212 235.921 137.218 235.87C137.224 235.819 137.789 235.687 138.498 235.116C138.9 234.788 139.228 234.377 139.457 233.911C139.59 233.64 139.684 233.352 139.737 233.054C139.806 232.729 139.777 232.432 139.651 232.426C139.523 232.421 139.395 232.445 139.276 232.495C139.158 232.545 139.052 232.621 138.966 232.717C138.729 232.918 138.511 233.139 138.315 233.38C137.98 233.789 137.707 234.245 137.504 234.733C137.15 235.596 137.11 236.167 137.024 236.167Z" fill="#263238" fill-opacity="0.5"/>
<path d="M98.3217 160.236C93.8894 160.339 89.6856 160.961 86.6298 164.177C82.5802 168.443 77.5768 174.515 77.2912 178.725C76.8686 185.007 80.6668 186.892 83.437 188.434C84.6623 189.097 86.0431 189.419 87.4352 189.365L138.658 188.977L140.263 180.301L107.135 172.133L108.511 159.665L98.3217 160.236Z" fill="#263238" fill-opacity="0.5"/>
<path d="M108.54 159.659L124.653 158.916C124.653 158.916 152.492 160.464 158.426 165.907C164.361 171.351 163.624 177.536 161.642 183.471C159.66 189.405 142.222 227.382 142.222 227.382C142.222 227.382 143.638 229.799 142.845 232.209C142.523 233.265 141.933 234.219 141.132 234.978C140.331 235.737 139.347 236.274 138.275 236.538L122.785 230.827C122.785 230.827 120.683 230.084 122.168 228.102C123.653 226.12 124.641 225.755 124.641 225.755V221.796C124.641 221.796 130.085 211.898 130.576 210.539C131.067 209.179 136.288 189.04 136.288 189.04L139.755 183.083C139.755 183.083 131.375 179.141 124.11 176.286L107.146 172.105L108.54 159.659Z" fill="#263238" fill-opacity="0.5"/>
<path d="M134.677 230.13C134.208 229.857 133.754 229.56 133.317 229.239C131.129 227.821 128.664 226.884 126.086 226.491C125.546 226.439 125.008 226.359 124.476 226.252C125.019 226.189 125.568 226.198 126.109 226.28C128.751 226.562 131.275 227.522 133.437 229.067C133.895 229.365 134.312 229.723 134.677 230.13Z" fill="#455A64"/>
<path d="M142.416 227.411C142.078 227.134 141.777 226.816 141.519 226.463C140.993 225.852 140.297 224.984 139.571 223.99C138.846 222.996 138.217 222.076 137.789 221.397C137.534 221.041 137.319 220.658 137.149 220.254C137.456 220.565 137.728 220.907 137.96 221.277L139.811 223.813C140.502 224.749 141.136 225.595 141.685 226.332C141.967 226.664 142.212 227.026 142.416 227.411Z" fill="#455A64"/>
<path d="M148.07 177.668C148.07 177.714 147.499 177.839 146.603 178.136C144.254 178.911 142.127 180.239 140.4 182.009C140.062 182.398 139.706 182.769 139.332 183.123C139.573 182.661 139.881 182.238 140.245 181.866C141.076 180.928 142.038 180.114 143.101 179.45C144.164 178.781 145.318 178.271 146.528 177.936C147.026 177.769 147.546 177.679 148.07 177.668Z" fill="#455A64"/>
<path d="M132.249 204.559C132.256 204.444 132.277 204.331 132.312 204.222L132.552 203.279L133.477 199.824L136.647 188.452C137.292 186.23 137.841 184.116 138.463 182.197C139.121 180.53 140.114 179.015 141.382 177.748C142.219 176.889 143.146 176.124 144.146 175.463C144.506 175.235 144.786 175.063 144.986 174.961C145.082 174.9 145.183 174.848 145.289 174.806C145.289 174.806 144.9 175.069 144.215 175.555C143.247 176.245 142.348 177.028 141.531 177.891C140.307 179.153 139.352 180.649 138.72 182.289C138.149 184.179 137.578 186.321 136.933 188.532L133.683 199.875C133.26 201.297 132.912 202.457 132.66 203.302C132.54 203.679 132.449 203.987 132.369 204.227C132.344 204.343 132.304 204.454 132.249 204.559Z" fill="#455A64"/>
<path d="M117.998 175.549C117.913 175.549 117.576 172.544 117.239 168.82C116.902 165.096 116.667 162.069 116.782 162.064C116.896 162.058 117.199 165.068 117.536 168.792C117.873 172.516 118.078 175.543 117.998 175.549Z" fill="#455A64"/>
<path d="M91.1764 183.619C91.1307 183.619 90.8851 183.157 90.3767 182.443C89.7205 181.514 88.9337 180.685 88.0406 179.981C87.1406 179.286 86.1464 178.723 85.0877 178.308C84.2709 177.988 83.7397 177.868 83.7512 177.816C84.2319 177.839 84.7061 177.937 85.1562 178.108C87.3899 178.844 89.298 180.334 90.5538 182.323C90.8311 182.718 91.0414 183.156 91.1764 183.619Z" fill="#455A64"/>
<path d="M101.046 172.653C101.046 172.699 100.338 172.265 99.1557 171.722C96.0536 170.313 92.6128 169.821 89.2402 170.306C87.9551 170.488 87.1726 170.717 87.1611 170.665C87.3273 170.571 87.5062 170.502 87.6923 170.46C88.1887 170.306 88.6942 170.184 89.2059 170.094C92.6172 169.496 96.1304 170 99.2357 171.534C99.7012 171.763 100.151 172.023 100.584 172.31C100.753 172.402 100.909 172.518 101.046 172.653Z" fill="#455A64"/>
<path d="M139.634 180.284C139.497 180.277 139.361 180.254 139.229 180.215L138.086 179.97L133.917 179.05C130.393 178.262 125.515 177.199 120.106 176.131C114.697 175.063 109.785 174.178 106.227 173.567L102.006 172.841L100.863 172.642C100.728 172.626 100.596 172.593 100.469 172.544C100.605 172.548 100.74 172.56 100.875 172.579L102.017 172.727C103.017 172.864 104.462 173.081 106.249 173.361C109.819 173.932 114.743 174.766 120.157 175.84C125.572 176.914 130.438 178.005 133.957 178.844C135.71 179.267 137.133 179.621 138.109 179.878L139.252 180.175C139.382 180.2 139.51 180.236 139.634 180.284Z" fill="#455A64"/>
<path d="M107.163 173.595C107.106 173.595 106.986 172.921 106.455 171.962C106.144 171.408 105.76 170.899 105.313 170.448C104.749 169.893 104.15 169.374 103.519 168.895C102.358 168.037 101.13 167.273 99.8467 166.61C99.3039 166.352 98.7808 166.054 98.2817 165.719C98.8565 165.901 99.413 166.136 99.9438 166.422C101.269 167.036 102.529 167.784 103.702 168.655C104.341 169.142 104.944 169.675 105.507 170.248C105.966 170.723 106.351 171.264 106.649 171.853C106.855 172.252 107.01 172.674 107.112 173.11C107.159 173.267 107.177 173.432 107.163 173.595Z" fill="#455A64"/>
<path d="M164.217 181.335C164.28 181.403 163.423 182.266 162.755 183.585C162.087 184.905 161.87 186.093 161.784 186.076C161.782 185.152 162.027 184.245 162.492 183.448C162.871 182.604 163.466 181.875 164.217 181.335Z" fill="#263238" fill-opacity="0.5"/>
<g opacity="0.3">
<path opacity="0.3" d="M127.554 122.813L131.221 148.641L131.404 149.052C132.264 140.123 130.943 131.119 127.554 122.813Z" fill="black"/>
</g>
<path d="M147.299 137.652L135.379 158.488L106.003 159.128L105.929 160.459L134.373 160.247L135.276 160.213L165.308 160.276L171.379 149.806L179.136 138.691C179.248 138.526 179.313 138.334 179.324 138.135C179.335 137.936 179.292 137.737 179.198 137.561C179.105 137.385 178.965 137.237 178.794 137.134C178.623 137.032 178.427 136.978 178.228 136.978L148.247 137.092C148.054 137.093 147.864 137.146 147.698 137.244C147.531 137.343 147.394 137.483 147.299 137.652Z" fill="#E0E0E0"/>
<path d="M171.38 149.823C171.38 149.823 172.922 151.24 172.682 152.439C172.442 153.639 172.517 154.536 171.38 154.616C171.401 155.054 171.253 155.485 170.966 155.817C170.679 156.15 170.275 156.36 169.838 156.403C169.838 156.403 170.186 158.288 167.993 158.614C167.993 158.614 167.319 160.63 165.937 160.139C165.14 159.868 164.374 159.514 163.652 159.082L163.247 158.351C163.247 158.351 161.207 157.586 161.71 156.438C162.019 155.741 163.069 155.558 163.069 155.558C162.948 155.272 162.897 154.961 162.92 154.651C162.943 154.341 163.039 154.041 163.201 153.776C163.686 153.119 165.274 153.662 165.274 153.662C165.241 153.099 165.421 152.545 165.777 152.108C166.348 151.463 168.85 153.205 168.85 153.205L170.226 151.56L171.38 149.823Z" fill="#FFBE9D"/>
<path d="M167.993 158.614C167.102 158.234 166.252 157.766 165.457 157.214C164.609 156.747 163.813 156.191 163.081 155.558C163.971 155.941 164.82 156.412 165.617 156.963C166.462 157.432 167.258 157.985 167.993 158.614Z" fill="#D08A66"/>
<path d="M169.837 156.403C169.009 156.078 168.219 155.66 167.484 155.158C166.698 154.742 165.961 154.24 165.285 153.662C166.115 153.984 166.905 154.402 167.638 154.907C168.424 155.323 169.162 155.825 169.837 156.403Z" fill="#D08A66"/>
<path d="M167.325 152.268C167.37 152.182 168.313 152.679 169.409 153.376C170.089 153.769 170.744 154.203 171.369 154.678C171.329 154.775 170.346 154.33 169.25 153.627C168.562 153.243 167.917 152.788 167.325 152.268Z" fill="#D08A66"/>
<path d="M179.137 137.777C179.089 137.785 179.041 137.785 178.994 137.777H178.571H176.949L170.986 137.823L151.309 137.869H149.876C149.664 137.849 149.452 137.886 149.26 137.976C149.068 138.067 148.904 138.207 148.785 138.383C148.328 139.198 147.882 140.001 147.448 140.793L144.912 145.363L140.611 153.09C139.389 155.272 138.389 157.043 137.687 158.294C137.35 158.865 137.076 159.356 136.881 159.699L136.664 160.059L136.584 160.179C136.584 160.179 136.584 160.127 136.636 160.042L136.83 159.665L137.59 158.237L140.446 152.988L144.695 145.226C145.495 143.769 146.34 142.238 147.208 140.656L148.55 138.229C148.697 138.011 148.898 137.837 149.134 137.722C149.37 137.608 149.631 137.558 149.893 137.578H151.326L171.003 137.618L176.966 137.669L178.588 137.697H179.011C179.057 137.717 179.099 137.744 179.137 137.777Z" fill="#263238" fill-opacity="0.5"/>
<path d="M158.004 148.258C157.865 148.459 157.787 148.696 157.779 148.939C157.772 149.183 157.835 149.424 157.96 149.633C158.086 149.842 158.27 150.01 158.489 150.118C158.708 150.225 158.953 150.267 159.195 150.238C159.437 150.21 159.666 150.112 159.854 149.957C160.042 149.801 160.182 149.595 160.255 149.363C160.329 149.13 160.334 148.881 160.27 148.646C160.206 148.41 160.076 148.199 159.894 148.036C159.613 147.816 159.257 147.717 158.903 147.759C158.549 147.8 158.226 147.98 158.004 148.258Z" fill="white"/>
<g opacity="0.3">
<path opacity="0.3" d="M74.6124 140.211C74.3611 140.313 74.0698 140.485 74.0698 140.782C74.0789 140.892 74.125 140.996 74.2007 141.077C74.2764 141.158 74.3772 141.211 74.4868 141.227C74.9057 141.168 75.3161 141.059 75.7091 140.902C78.7991 140.222 81.3408 140.873 84.2766 142.044L84.3737 141.947C83.2085 139.417 77.9366 138.857 74.6124 140.211Z" fill="black"/>
</g>
<path d="M233.746 256.158C233.746 256.238 182.083 256.307 118.369 256.307C54.6554 256.307 2.99316 256.215 2.99316 256.158C2.99316 256.101 54.644 256.01 118.369 256.01C182.095 256.01 233.746 256.05 233.746 256.158Z" fill="#263238" fill-opacity="0.5"/>
<path d="M58.6369 74.0749C58.734 74.172 77.7025 67.655 77.7025 67.655L70.3915 50.9197L53.5249 57.3911L62.8121 62.7258L58.6369 74.0749Z" fill="#455A64"/>
<path d="M67.5352 55.9574V33.1735C67.5352 33.1735 93.7004 28.3871 112.555 28.6727C131.409 28.9583 150.823 32.0483 150.823 32.0483V53.9241C150.823 53.9241 91.7299 48.6465 67.5352 55.9574Z" fill="#455A64"/>
<path d="M67.3984 55.9803L77.6795 67.7521V53.9241C77.6795 53.9241 69.0834 54.9522 67.3984 55.9803Z" fill="#263238" fill-opacity="0.5"/>
<path d="M67.5355 33.1678C67.6212 33.1678 67.6555 38.3083 67.6212 44.5912C67.5869 50.874 67.4841 56.0146 67.4042 56.0146C67.3242 56.0146 67.2842 50.9083 67.3185 44.5912C67.3527 38.274 67.4498 33.1678 67.5355 33.1678Z" fill="#263238" fill-opacity="0.5"/>
<path d="M159.676 72.3272C159.579 72.4243 140.611 65.9072 140.611 65.9072L147.905 49.1663L164.788 55.6262L155.496 60.9609L159.676 72.3272Z" fill="#455A64"/>
<path d="M150.926 54.2326L140.645 66.0044V53.1759C144.092 53.2939 147.527 53.6469 150.926 54.2326Z" fill="#263238" fill-opacity="0.5"/>
<path d="M150.812 32.0483C150.892 32.0483 150.983 37.0117 151.012 43.1404C151.04 49.269 151.012 54.2325 150.915 54.2325C150.818 54.2325 150.743 49.269 150.715 43.1404C150.686 37.0117 150.726 32.0483 150.812 32.0483Z" fill="#263238" fill-opacity="0.5"/>
<path d="M82.2886 43.1632C82.2347 42.5073 82.3753 41.85 82.693 41.2736C83.0106 40.6972 83.4912 40.2272 84.0745 39.9224C84.6578 39.6177 85.3181 39.4916 85.9726 39.5601C86.6272 39.6286 87.2471 39.8885 87.7547 40.3074L86.9551 41.267C86.7398 41.0705 86.4838 40.9241 86.2054 40.8382C85.9269 40.7523 85.6329 40.729 85.3444 40.77C84.8324 40.8412 84.3696 41.1129 84.0579 41.5253C83.7462 41.9377 83.6111 42.457 83.6823 42.969C83.7535 43.4811 84.0251 43.9438 84.4375 44.2555C84.8499 44.5672 85.3693 44.7023 85.8813 44.6312C86.1716 44.593 86.4497 44.49 86.6949 44.3298C86.9401 44.1697 87.1461 43.9564 87.2978 43.7059L88.303 44.4084C87.9306 44.9502 87.4066 45.3701 86.7966 45.6155C86.1866 45.8609 85.5178 45.9209 84.8739 45.788C84.23 45.6551 83.6396 45.3351 83.1767 44.8682C82.7138 44.4013 82.3989 43.8083 82.2715 43.1632H82.2886Z" fill="white"/>
<path d="M88.5201 42.3065C88.4137 41.6471 88.5078 40.9709 88.7902 40.3656C89.0725 39.7602 89.5301 39.2536 90.1037 38.9112C90.6772 38.5689 91.3403 38.4067 92.0072 38.4455C92.674 38.4844 93.3138 38.7225 93.8437 39.1291C94.3736 39.5358 94.7693 40.0921 94.9794 40.7261C95.1896 41.3602 95.2045 42.0427 95.0223 42.6853C94.8401 43.3279 94.4692 43.9011 93.9576 44.3305C93.446 44.7599 92.8172 45.0258 92.1527 45.0938C91.7295 45.1613 91.2971 45.1419 90.8817 45.0366C90.4663 44.9314 90.0767 44.7426 89.7367 44.4817C89.3968 44.2208 89.1135 43.8934 88.9043 43.5194C88.6952 43.1454 88.5644 42.7327 88.5201 42.3065ZM93.7234 41.7696C93.677 41.399 93.5225 41.0503 93.2792 40.7669C93.0358 40.4836 92.7145 40.2781 92.3552 40.1762C91.9958 40.0743 91.6145 40.0804 91.2586 40.1938C90.9027 40.3073 90.5882 40.5229 90.3541 40.814C90.12 41.105 89.9768 41.4585 89.9423 41.8304C89.9078 42.2023 89.9836 42.5762 90.1602 42.9053C90.3368 43.2344 90.6064 43.5042 90.9353 43.6811C91.2642 43.858 91.638 43.9342 92.0099 43.9001C92.2664 43.8832 92.5165 43.8133 92.7446 43.6947C92.9726 43.5761 93.1735 43.4114 93.3346 43.2112C93.4957 43.0109 93.6134 42.7794 93.6803 42.5312C93.7473 42.2831 93.7619 42.0237 93.7234 41.7696Z" fill="white"/>
<path d="M101.983 44.2085L101.737 40.5644L100.144 43.683L99.5155 43.723L97.545 40.9129L97.7792 44.4769L96.4598 44.5626L96.0942 38.4911L97.2366 38.4168L99.7497 42.0438L101.743 38.1313L102.885 38.057L103.297 44.1228L101.983 44.2085Z" fill="white"/>
<path d="M109.848 40.0504C109.882 41.4098 108.888 42.2779 107.266 42.3351L106.038 42.3693L106.089 44.0486L104.679 44.0885L104.507 37.9713L107.14 37.8971C108.768 37.8742 109.802 38.691 109.848 40.0504ZM108.42 40.0904C108.42 39.4221 107.957 39.0451 107.095 39.068L105.952 39.1022L106.015 41.2156L107.158 41.1813C108.014 41.1585 108.437 40.7529 108.42 40.0904Z" fill="white"/>
<path d="M110.944 37.84H112.349V42.7749H115.399V43.9172H110.944V37.84Z" fill="white"/>
<path d="M120.854 42.9519V44.0942L116.142 43.9572L116.319 37.8742L120.889 38.0113L120.854 39.1536L117.656 39.0565L117.621 40.3816L120.443 40.4616L120.409 41.5582L117.587 41.4726L117.547 42.8834L120.854 42.9519Z" fill="white"/>
<path d="M123.459 39.285L121.517 39.1708L121.585 38.0284L126.874 38.3483L126.806 39.4906L124.864 39.3707L124.567 44.2999L123.162 44.2142L123.459 39.285Z" fill="white"/>
<path d="M131.998 43.7858L131.895 44.9282L127.2 44.4941L127.771 38.4397L132.34 38.8624L132.237 40.0047L129.05 39.6848L128.93 41.0042L131.741 41.2613L131.643 42.3522L128.828 42.0952L128.702 43.4945L131.998 43.7858Z" fill="white"/>
<path d="M133.757 38.9938L136.493 39.3593C138.463 39.6221 139.657 40.9872 139.417 42.7863C139.177 44.5855 137.658 45.6422 135.688 45.3566L132.952 44.9911L133.757 38.9938ZM135.773 44.2314C136.022 44.2713 136.276 44.261 136.52 44.2011C136.765 44.1411 136.995 44.0328 137.197 43.8825C137.399 43.7322 137.569 43.543 137.697 43.3259C137.824 43.1089 137.907 42.8685 137.94 42.6189C137.974 42.3693 137.956 42.1156 137.89 41.8727C137.823 41.6299 137.709 41.4028 137.553 41.2049C137.398 41.007 137.204 40.8423 136.983 40.7206C136.763 40.5988 136.521 40.5224 136.27 40.4959L134.996 40.3246L134.5 44.06L135.773 44.2314Z" fill="white"/>
<path d="M162.515 34.1216L164.011 35.875L168.226 34.1216L166.993 32.2767L162.515 34.1216Z" fill="#455A64"/>
<path d="M160.584 25.7768C160.584 26.2106 160.456 26.6346 160.215 26.9953C159.974 27.356 159.631 27.6371 159.23 27.8031C158.83 27.9691 158.389 28.0126 157.963 27.9279C157.538 27.8433 157.147 27.6344 156.84 27.3277C156.533 27.0209 156.325 26.6301 156.24 26.2047C156.155 25.7792 156.199 25.3382 156.365 24.9375C156.531 24.5367 156.812 24.1941 157.173 23.9531C157.533 23.7121 157.957 23.5835 158.391 23.5835C158.972 23.585 159.529 23.8166 159.94 24.2276C160.351 24.6386 160.583 25.1956 160.584 25.7768Z" fill="#FF2156"/>
<path d="M111.453 58.4934C111.451 58.7107 111.386 58.9229 111.264 59.1028C111.142 59.2827 110.969 59.4224 110.768 59.504C110.566 59.5856 110.345 59.6054 110.132 59.5611C109.919 59.5167 109.724 59.4101 109.572 59.2548C109.42 59.0995 109.318 58.9025 109.278 58.6888C109.238 58.4751 109.263 58.2544 109.348 58.0547C109.434 57.8549 109.577 57.6852 109.76 57.5671C109.942 57.4489 110.156 57.3876 110.373 57.391C110.662 57.3955 110.937 57.5138 111.139 57.7202C111.342 57.9266 111.454 58.2045 111.453 58.4934Z" fill="#FF2156"/>
<path d="M60.3612 42.0095C60.3612 42.1749 60.312 42.3365 60.2198 42.4739C60.1277 42.6113 59.9967 42.7182 59.8437 42.7809C59.6907 42.8437 59.5224 42.8595 59.3603 42.8264C59.1983 42.7933 59.0497 42.7127 58.9336 42.595C58.8174 42.4772 58.7389 42.3275 58.708 42.165C58.6771 42.0025 58.6953 41.8345 58.7602 41.6823C58.825 41.5302 58.9337 41.4007 59.0723 41.3105C59.211 41.2203 59.3733 41.1733 59.5387 41.1756C59.7579 41.1786 59.9671 41.2677 60.121 41.4238C60.2749 41.5799 60.3612 41.7903 60.3612 42.0095Z" fill="#FF2156"/>
<path d="M57.2656 32.8307L59.7217 32.9792L60.8868 28.1472L58.5907 28.2443L57.2656 32.8307Z" fill="#455A64"/>
<path d="M134.031 71.4018L134.859 73.7208L139.76 72.8983L138.771 70.825L134.031 71.4018Z" fill="#FF2156"/>
<path d="M84.4648 58.0193L82.9512 59.9613L86.2697 63.6567L87.492 61.709L84.4648 58.0193Z" fill="#455A64"/>
<path d="M78.5992 12.4001L84.3965 18.3117L92.5586 15.2274L92.8841 17.255L89.3486 24.4917L92.61 29.895L92.3358 31.5114L84.4365 30.1806L79.7644 35.304L78.6677 34.4758L77.7024 27.9587L70.3344 24.1205L70.0088 22.6297L77.4283 20.6021L78.5992 12.4001Z" fill="#FF2156"/>
<g opacity="0.3">
<path opacity="0.3" d="M78.5992 12.4001L84.3965 18.3117L92.5586 15.2274L92.8841 17.255L89.3486 24.4917L92.61 29.895L92.3358 31.5114L84.4365 30.1806L79.7644 35.304L78.6677 34.4758L77.7024 27.9587L70.3344 24.1205L70.0088 22.6297L77.4283 20.6021L78.5992 12.4001Z" fill="black"/>
</g>
<path d="M78.5992 10.738L84.3965 16.6553L92.5586 15.2274L88.726 22.5726L92.61 29.895L84.4365 28.5242L78.6677 34.4758L77.4511 26.2795L70.0088 22.6297L77.4283 18.94L78.5992 10.738Z" fill="#FF2156"/>
<path d="M138.715 12.4001L132.912 18.3117L124.75 15.2274L124.424 17.255L127.96 24.4917L124.698 29.895L124.973 31.5114L132.872 30.1806L137.544 35.304L138.641 34.4758L139.606 27.9587L146.974 24.1205L147.3 22.6297L139.88 20.6021L138.715 12.4001Z" fill="#FF2156"/>
<g opacity="0.3">
<path opacity="0.3" d="M138.715 12.4001L132.912 18.3117L124.75 15.2274L124.424 17.255L127.96 24.4917L124.698 29.895L124.973 31.5114L132.872 30.1806L137.544 35.304L138.641 34.4758L139.606 27.9587L146.974 24.1205L147.3 22.6297L139.88 20.6021L138.715 12.4001Z" fill="black"/>
</g>
<path d="M138.715 10.738L132.912 16.6553L124.75 15.2274L128.582 22.5726L124.698 29.895L132.872 28.5242L138.64 34.4758L139.857 26.2795L147.299 22.6297L139.88 18.94L138.715 10.738Z" fill="#FF2156"/>
<path d="M108.466 2.02197L113.292 11.452L124.424 10.7951L124.047 13.3882L116.976 20.8763L118.889 28.707L117.947 30.5747L108.814 25.9425L101.166 30.4205L100.144 28.9869L101.446 20.6649L93.918 13.1769L94.0893 11.2406L103.913 11.5891L108.466 2.02197Z" fill="#FF2156"/>
<g opacity="0.3">
<path opacity="0.3" d="M108.466 2.02197L113.292 11.452L124.424 10.7951L124.047 13.3882L116.976 20.8763L118.889 28.707L117.947 30.5747L108.814 25.9425L101.166 30.4205L100.144 28.9869L101.446 20.6649L93.918 13.1769L94.0893 11.2406L103.913 11.5891L108.466 2.02197Z" fill="black"/>
</g>
<path d="M109.094 0L113.92 9.42429L124.424 10.7951L116.948 18.3003L118.89 28.707L109.448 23.9206L100.144 28.9868L101.783 18.523L94.0894 11.2406L104.547 9.56137L109.094 0Z" fill="#FF2156"/>
<path d="M128.325 84.5954L136.39 85.4864C139.113 81.6317 143.179 78.9347 147.789 77.9256C152.399 76.9164 157.22 77.668 161.305 80.0326C165.389 82.3973 168.441 86.204 169.861 90.7046C171.282 95.2053 170.967 100.074 168.98 104.355C166.993 108.635 163.476 112.018 159.122 113.838C154.767 115.657 149.89 115.783 145.447 114.189C141.005 112.595 137.32 109.398 135.115 105.225C132.911 101.052 132.347 96.2055 133.534 91.6379L128.325 84.5954Z" fill="#FAFAFA"/>
<path d="M128.325 84.5959C128.639 85.0186 130.273 87.1776 133.609 91.6041H133.489C133.493 91.5947 133.499 91.5864 133.506 91.5796C133.514 91.5729 133.523 91.568 133.533 91.5653C133.543 91.5625 133.553 91.562 133.563 91.5638C133.574 91.5656 133.583 91.5696 133.591 91.5756C133.605 91.5836 133.615 91.5957 133.621 91.61C133.628 91.6244 133.629 91.6403 133.626 91.6555C132.808 94.8598 132.851 98.2232 133.751 101.405C134.016 102.36 134.365 103.289 134.797 104.181C135.025 104.638 135.242 105.107 135.488 105.569L136.339 106.923C139.056 110.862 143.167 113.624 147.842 114.651C150.43 115.22 153.109 115.231 155.701 114.685C158.434 114.09 161.003 112.901 163.224 111.201C165.55 109.434 167.42 107.137 168.678 104.501C169.981 101.821 170.623 98.8673 170.552 95.8879C170.469 93.0377 169.746 90.2425 168.438 87.7088C167.208 85.3068 165.465 83.2047 163.332 81.5516C159.49 78.582 154.655 77.1999 149.824 77.6904C147.783 77.9354 145.79 78.4861 143.912 79.324C140.925 80.7045 138.351 82.843 136.447 85.5269C136.441 85.5378 136.432 85.5466 136.421 85.5517C136.409 85.5569 136.397 85.5582 136.384 85.5554L128.325 84.5959L136.402 85.4127L136.333 85.4469C138.231 82.7267 140.817 80.5587 143.827 79.1641C145.713 78.2946 147.723 77.7205 149.784 77.462C154.681 76.9435 159.59 78.3302 163.492 81.3345C165.662 83.0072 167.435 85.1391 168.684 87.5774C170.019 90.1476 170.756 92.9869 170.837 95.8822C170.913 98.9085 170.262 101.909 168.941 104.633C167.66 107.309 165.759 109.642 163.395 111.435C161.138 113.158 158.528 114.364 155.753 114.965C153.114 115.52 150.387 115.502 147.756 114.914C143.032 113.872 138.881 111.073 136.145 107.083L135.288 105.712C135.042 105.244 134.825 104.764 134.591 104.301C134.161 103.397 133.813 102.457 133.551 101.491C132.656 98.2749 132.632 94.8782 133.483 91.6498L133.62 91.7012C133.609 91.7178 133.593 91.7299 133.574 91.7352C133.555 91.7404 133.535 91.7385 133.517 91.7298L128.325 84.5959Z" fill="#263238" fill-opacity="0.5"/>
<path d="M144.872 89.6279C144.879 89.7153 144.879 89.8032 144.872 89.8906C144.872 90.0791 144.872 90.319 144.872 90.6217C144.872 91.2843 144.872 92.2039 144.907 93.369C144.907 95.7394 144.947 99.0807 144.975 103.079L144.844 102.948H158.284C158.318 102.913 158.004 103.227 158.135 103.09V101.263C158.135 100.663 158.135 100.063 158.135 99.4691V95.9907C158.135 93.7403 158.135 91.6098 158.135 89.6507L158.261 89.7821L148.551 89.7135L145.803 89.685H145.072H144.81H145.044H145.752L148.465 89.6507L158.249 89.5879H158.381V89.7135C158.381 91.6727 158.381 93.8031 158.381 96.0535V103.085C158.518 102.953 158.204 103.273 158.232 103.239H144.793H144.661V103.085C144.661 99.0522 144.707 95.688 144.724 93.3005C144.724 92.1582 144.724 91.2329 144.758 90.5817C144.758 90.2904 144.758 90.0562 144.758 89.8735C144.785 89.7869 144.824 89.7042 144.872 89.6279Z" fill="#263238" fill-opacity="0.5"/>
<path d="M156.861 91.8497C157.055 92.004 155.25 94.6085 152.823 97.67C152.343 98.2811 151.869 98.8637 151.429 99.3835L151.144 99.7319L150.824 99.4406C148.722 97.55 147.3 96.0992 147.425 95.9507C147.551 95.8022 149.202 97.0017 151.378 98.8066L150.767 98.8637C151.183 98.2925 151.64 97.7214 152.126 97.1159C154.548 94.0545 156.672 91.7012 156.861 91.8497Z" fill="#FF2156"/>
</svg>
