<svg width="414" height="896" viewBox="0 0 414 896" fill="none" xmlns="http://www.w3.org/2000/svg">
<g clip-path="url(#clip0_136_494)">
<rect width="414" height="896" fill="#FF2156"/>
<path d="M84 723C-22.8 614.6 -96.8333 631.833 -120.5 654V932.5L424.5 920V639C355.5 712.167 190.8 831.4 84 723Z" fill="#F8577D" fill-opacity="0.25"/>
<path d="M111.152 708.517C-18.9673 600.126 -109.166 617.358 -138 639.523V918L526 905.501V624.524C441.934 697.685 241.272 816.908 111.152 708.517Z" fill="#FF3767" fill-opacity="0.7"/>
<path d="M271.631 722.517C373.14 614.126 443.506 631.358 466 653.523V932L-52 919.501V638.524C13.5817 711.685 170.122 830.908 271.631 722.517Z" fill="#FF5F85" fill-opacity="0.35"/>
<path d="M190.969 744.493C115.709 636.102 16.6774 691.831 0 713.996V971L414 958.5V657C365.377 730.161 266.228 852.885 190.969 744.493Z" fill="#FF5F85" fill-opacity="0.3"/>
<path d="M268.924 744.493C162.942 636.102 23.4854 691.831 0 713.996V971L583 958.5V657C514.529 730.161 374.906 852.885 268.924 744.493Z" fill="#FF5F85" fill-opacity="0.3"/>
</g>
<defs>
<clipPath id="clip0_136_494">
<rect width="414" height="896" fill="white"/>
</clipPath>
</defs>
</svg>
