<svg width="13" height="19" viewBox="0 0 13 19" fill="none" xmlns="http://www.w3.org/2000/svg">
<path d="M6.49139 0.379957C6.43688 0.381228 6.38328 0.394214 6.33423 0.418034C6.28518 0.441853 6.24183 0.475948 6.20713 0.518004C6.20713 0.518004 4.67402 2.36864 3.14041 4.73289C1.6068 7.09714 0.0395508 9.94266 0.0395508 12.1592C0.0395508 15.7229 2.93579 18.62 6.49955 18.62C10.0633 18.62 12.9595 15.7233 12.9595 12.16C12.9595 9.94323 11.3923 7.09719 9.85869 4.73289C8.32508 2.36859 6.79197 0.518004 6.79197 0.518004C6.75551 0.473829 6.70954 0.438468 6.65749 0.414563C6.60543 0.390658 6.54865 0.378828 6.49139 0.379957ZM6.49955 1.37523C6.86435 1.82637 7.94797 3.18536 9.22041 5.14703C10.7268 7.46936 12.1995 10.3232 12.1995 12.16C12.1995 15.3127 9.65267 17.86 6.49955 17.86C3.34643 17.86 0.799551 15.3124 0.799551 12.1592C0.799551 10.3227 2.2723 7.46932 3.77869 5.14703C5.05113 3.1854 6.13475 1.82637 6.49955 1.37523ZM2.31361 11.7748C2.21296 11.7763 2.11704 11.8178 2.04691 11.89C1.97678 11.9622 1.93817 12.0593 1.93955 12.16C1.93955 14.1111 2.99485 15.3005 4.01916 15.9369C5.04347 16.5734 6.06611 16.7162 6.06611 16.7162C6.11553 16.7233 6.16586 16.7205 6.21421 16.7081C6.26255 16.6957 6.30798 16.6738 6.3479 16.6439C6.38781 16.6139 6.42143 16.5763 6.44683 16.5334C6.47223 16.4904 6.48891 16.4428 6.49593 16.3934C6.50295 16.344 6.50017 16.2937 6.48773 16.2453C6.4753 16.197 6.45347 16.1515 6.42348 16.1116C6.39349 16.0717 6.35593 16.0381 6.31295 16.0127C6.26997 15.9873 6.22241 15.9707 6.17299 15.9637C6.17299 15.9637 5.29563 15.8354 4.41994 15.2912C3.54425 14.7471 2.69955 13.8465 2.69955 12.16C2.70025 12.1091 2.69073 12.0587 2.67158 12.0116C2.65242 11.9645 2.624 11.9217 2.58802 11.8858C2.55203 11.8498 2.5092 11.8215 2.46207 11.8025C2.41493 11.7834 2.36445 11.774 2.31361 11.7748Z" fill="#FF2156"/>
</svg>
