<svg width="20" height="19" viewBox="0 0 20 19" fill="none" xmlns="http://www.w3.org/2000/svg">
<path d="M0.308938 0C0.127763 0.034156 -0.00292047 0.194541 4.9616e-05 0.380171V15.587C4.9616e-05 15.7964 0.17083 15.9672 0.38022 15.9672H6.46295V15.2068H0.760391V0.760341H18.2482V15.2068H12.5457V15.9672H18.6284C18.8378 15.9672 19.0086 15.7964 19.0086 15.587V0.380171C19.0086 0.17078 18.8378 0 18.6284 0H0.38022C0.36834 0 0.35646 0 0.344579 0C0.332699 0 0.320819 0 0.308938 0ZM3.80176 3.42154V4.18188H15.2069V3.42154H3.80176ZM3.80176 5.32239V6.08273H15.2069V5.32239H3.80176ZM3.80176 7.22324V7.98358H15.2069V7.22324H3.80176ZM9.46867 9.08846C9.07068 9.08846 8.75437 9.32606 8.55389 9.64683C8.18263 9.52803 7.77721 9.56367 7.47278 9.82504C7.16389 10.0894 7.06885 10.4814 7.11637 10.8586C6.75402 11.0101 6.47335 11.2982 6.39167 11.6665C6.39167 11.6784 6.39167 11.6902 6.39167 11.7021C6.34563 12.0689 6.50899 12.4046 6.77184 12.6644C6.59957 13.009 6.53572 13.4084 6.7362 13.7574C6.84906 13.9549 7.02578 14.0841 7.22329 14.1732V18.6284C7.22626 18.762 7.30051 18.8853 7.41635 18.9506C7.53367 19.0174 7.67771 19.016 7.79355 18.9491L9.50432 17.9274L11.2151 18.9491C11.3309 19.016 11.475 19.0174 11.5923 18.9506C11.7081 18.8853 11.7824 18.762 11.7853 18.6284V14.0188C11.8744 13.9535 11.9561 13.8866 12.0229 13.7931C12.0274 13.7812 12.0319 13.7693 12.0348 13.7574C12.2294 13.4159 12.1848 13.0283 12.0229 12.6882C12.363 12.4372 12.5873 12.0778 12.5457 11.7021C12.5427 11.6902 12.5383 11.6784 12.5338 11.6665C12.4477 11.2819 12.1625 11.0027 11.8091 10.8467C11.8522 10.474 11.7705 10.0879 11.4646 9.82504C11.1483 9.55476 10.7443 9.54733 10.3835 9.64683C10.1815 9.33646 9.87855 9.08846 9.46867 9.08846ZM9.46867 9.8488C9.64242 9.8488 9.76865 9.95275 9.83697 10.1339C9.87855 10.2408 9.96468 10.324 10.0746 10.3597C10.0805 10.3626 10.131 10.3641 10.1459 10.3715C10.1652 10.3775 10.1503 10.3834 10.1934 10.3834C10.229 10.3968 10.2305 10.4191 10.3003 10.4191C10.3627 10.4176 10.4236 10.4012 10.4785 10.3715C10.6805 10.2705 10.8215 10.272 10.9656 10.3953C11.1156 10.5245 11.1468 10.6938 11.0844 10.8586C11.0398 10.9908 11.0725 11.1363 11.1676 11.2388C11.1824 11.2685 11.1987 11.3175 11.2507 11.3695C11.3027 11.4229 11.368 11.4601 11.4408 11.4764C11.6532 11.5239 11.7348 11.616 11.7853 11.8209C11.8002 11.9962 11.772 12.0912 11.5002 12.1892C11.3502 12.2442 11.2507 12.3867 11.2507 12.5456V12.7001C11.2522 12.7773 11.2775 12.8516 11.322 12.9139C11.4304 13.0669 11.4393 13.2451 11.3814 13.3654C11.2641 13.5139 11.0948 13.597 10.9537 13.5792C10.8394 13.5659 10.7265 13.606 10.6448 13.6861L10.526 13.7931C10.4547 13.8658 10.4161 13.9653 10.4191 14.0663C10.4191 14.2683 10.3404 14.3707 10.1696 14.4346C10.1652 14.4346 10.1622 14.4346 10.1577 14.4346C10.1577 14.4302 10.0954 14.4465 10.0389 14.4465C9.93795 14.4465 9.83697 14.399 9.73004 14.292C9.66024 14.2237 9.56669 14.1866 9.46867 14.1851H9.27859C9.17761 14.1821 9.07811 14.2208 9.00534 14.292C8.85238 14.445 8.72615 14.4896 8.57765 14.4346C8.43212 14.3797 8.32816 14.2118 8.32816 14.0663C8.32668 13.9624 8.2851 13.8643 8.20936 13.7931L8.10244 13.6861C8.01779 13.603 7.89899 13.5629 7.78167 13.5792C7.63168 13.5985 7.47575 13.5198 7.4015 13.3891C7.33319 13.2688 7.34655 13.0743 7.4609 12.9139C7.50545 12.8516 7.5307 12.7773 7.53218 12.7001V12.5456C7.5307 12.406 7.45347 12.2783 7.33021 12.213C7.22923 12.1551 7.14755 11.965 7.15201 11.8209C7.20399 11.6115 7.29903 11.4942 7.4609 11.4764C7.54555 11.4675 7.62574 11.4289 7.68663 11.3695C7.74454 11.3116 7.7683 11.2522 7.78167 11.2269C7.86483 11.123 7.88711 10.9834 7.84107 10.8586C7.7787 10.6938 7.80988 10.5245 7.95987 10.3953C8.10541 10.2705 8.3044 10.2705 8.41133 10.3478C8.52716 10.428 8.67863 10.4369 8.80338 10.3715C8.80783 10.3715 8.8108 10.3715 8.81526 10.3715C8.82714 10.3686 8.83902 10.3641 8.8509 10.3597C8.9801 10.321 9.07959 10.2171 9.11227 10.0864C9.14197 9.97057 9.29493 9.8488 9.46867 9.8488ZM11.025 14.5534V17.9631L9.6944 17.1671C9.57708 17.0988 9.43155 17.0988 9.31423 17.1671L7.98363 17.9631V14.9455C8.07274 15.0301 8.17817 15.0999 8.3044 15.1474C8.6816 15.2885 9.04395 15.1519 9.33799 14.9455C9.34096 14.944 9.3469 14.9469 9.34987 14.9455C9.35284 14.9469 9.35878 14.944 9.36175 14.9455C9.54441 15.0851 9.7642 15.2068 10.0389 15.2068C10.1072 15.2068 10.2543 15.2053 10.431 15.1355C10.4369 15.1296 10.4473 15.1266 10.4547 15.1237C10.4651 15.1192 10.4681 15.1296 10.4785 15.1237V15.1118C10.7295 15.0019 10.9151 14.7999 11.025 14.5534Z" fill="#FF2156"/>
</svg>
