<svg width="20" height="20" viewBox="0 0 20 20" fill="none" xmlns="http://www.w3.org/2000/svg">
<path d="M18.4869 9.459C18.8596 9.459 19.1626 9.76059 19.1626 10.1337V13.7582C19.1626 16.9932 17.0784 19.1666 13.975 19.1666H6.01998C2.91749 19.1666 0.833252 16.9932 0.833252 13.7582C0.833252 13.3861 1.13717 13.0836 1.50994 13.0836C1.88364 13.0836 2.18663 13.3861 2.18663 13.7582C2.18663 16.2241 3.69059 17.8164 6.01998 17.8164H13.975C16.3053 17.8164 17.8111 16.2241 17.8111 13.7582V10.1337C17.8111 9.76059 18.1132 9.459 18.4869 9.459ZM17.112 1.53628L17.2421 1.65833L18.3393 2.75376C18.8737 3.28635 19.1666 3.99586 19.1666 4.74754C19.1666 5.43826 18.9205 6.09123 18.4678 6.6055L18.3393 6.74223L11.5706 13.5C11.1182 13.9517 10.5307 14.2185 9.8999 14.2633L9.70946 14.27H6.3306C6.1488 14.27 5.97435 14.1967 5.84672 14.0656C5.74536 13.9615 5.68101 13.8286 5.66121 13.6867L5.65483 13.5788L5.74022 10.178C5.75608 9.56211 5.98364 8.9796 6.38498 8.51927L6.51056 8.38493L13.2481 1.65833C14.3066 0.600617 16.0035 0.559936 17.112 1.53628ZM14.3087 2.51743L14.2039 2.61259L13.6493 3.16626L15.3672 4.88137C15.6307 5.14538 15.6307 5.57163 15.3672 5.83655C15.235 5.96764 15.0615 6.03364 14.8888 6.03364C14.75 6.03364 14.6118 5.9914 14.4943 5.90739L14.4105 5.83655L12.6935 4.12053L7.46729 9.33919C7.2666 9.53876 7.1408 9.79558 7.10317 10.0721L7.09176 10.2119L7.02473 12.9197H9.70946C10.0022 12.9197 10.2801 12.8228 10.5062 12.6427L10.6148 12.5457L17.3835 5.78797C17.9236 5.24788 17.9554 4.3903 17.4788 3.81363L17.3835 3.70894L16.2863 2.61259C15.7453 2.07337 14.8864 2.04165 14.3087 2.51743ZM9.39076 0.868055C9.76445 0.868055 10.0674 1.17056 10.0674 1.54273C10.0674 1.91582 9.76445 2.21741 9.39076 2.21741H6.02017C3.69077 2.21741 2.1859 3.8106 2.1859 6.27647V9.73144C2.1859 10.1036 1.8829 10.4061 1.51013 10.4061C1.13643 10.4061 0.833436 10.1036 0.833436 9.73144V6.27647C0.833436 3.0415 2.91768 0.868055 6.02017 0.868055H9.39076Z" fill="#FF2156"/>
</svg>
