<svg width="12" height="22" viewBox="0 0 12 22" fill="none" xmlns="http://www.w3.org/2000/svg">
<path d="M10.9266 15.9666C10.7788 15.8708 10.5991 15.8373 10.4267 15.8735C10.2543 15.9098 10.1033 16.0127 10.0066 16.16C9.06661 17.6 7.33994 19.3666 5.79994 19.96C4.25994 20.5533 3.05328 20.34 2.57328 19.96C2.36661 19.78 1.82661 19.2933 2.28661 17.6333C2.59328 16.5266 4.49994 11.3133 4.95328 10.0466L3.49994 10.2333C3.03994 11.4733 1.30661 16.1266 0.993278 17.2866C0.539944 18.9466 0.766611 20.1533 1.71994 20.9933C2.38605 21.4606 3.18682 21.6971 3.99994 21.6666C4.78894 21.6553 5.56891 21.497 6.29994 21.2C8.15994 20.4733 10.1133 18.4533 11.1399 16.8866C11.1865 16.8123 11.2179 16.7294 11.2324 16.6429C11.2468 16.5564 11.2441 16.4678 11.2243 16.3823C11.2045 16.2969 11.168 16.2162 11.1169 16.1448C11.0658 16.0735 11.0011 16.0129 10.9266 15.9666Z" fill="#FF2156"/>
<path d="M6.8667 6.33325C7.46004 6.33325 8.04006 6.15731 8.53341 5.82766C9.02675 5.49802 9.41127 5.02948 9.63833 4.4813C9.8654 3.93313 9.92481 3.32993 9.80905 2.74798C9.6933 2.16604 9.40757 1.63149 8.98802 1.21193C8.56846 0.792375 8.03391 0.506653 7.45197 0.390897C6.87002 0.275142 6.26683 0.334552 5.71865 0.561615C5.17047 0.788678 4.70193 1.1732 4.37229 1.66654C4.04265 2.15989 3.8667 2.73991 3.8667 3.33325C3.8667 4.1289 4.18277 4.89196 4.74538 5.45457C5.30799 6.01718 6.07105 6.33325 6.8667 6.33325ZM6.8667 1.66659C7.19633 1.66659 7.51856 1.76433 7.79265 1.94747C8.06673 2.13061 8.28035 2.3909 8.4065 2.69545C8.53264 2.99999 8.56565 3.3351 8.50134 3.6584C8.43703 3.98171 8.27829 4.27868 8.04521 4.51176C7.81212 4.74485 7.51515 4.90359 7.19185 4.9679C6.86855 5.0322 6.53344 4.9992 6.22889 4.87305C5.92435 4.74691 5.66405 4.53329 5.48092 4.2592C5.29778 3.98512 5.20003 3.66289 5.20003 3.33325C5.20003 2.89123 5.37563 2.4673 5.68819 2.15474C6.00075 1.84218 6.42467 1.66659 6.8667 1.66659Z" fill="#FF2156"/>
<path d="M1.87337 9.00009C1.91337 9.00009 6.05337 8.45342 7.02671 8.33342C7.46004 8.26675 7.7867 8.33342 7.89337 8.43342C8.00004 8.53342 8.03337 8.96675 7.8467 9.55342C7.44004 10.7934 5.38671 16.8868 4.78671 18.6934C5.07997 18.6333 5.36766 18.5485 5.6467 18.4401C5.91359 18.3297 6.17016 18.1958 6.41337 18.0401C7.23337 15.6667 8.7667 11.0668 9.11337 10.0134C9.46004 8.96009 9.37337 8.16009 8.91337 7.61342C8.65095 7.34735 8.32248 7.15588 7.96165 7.05865C7.60082 6.96141 7.22061 6.96191 6.86004 7.06009C5.90671 7.16009 1.88004 7.68675 1.70671 7.72675C1.5299 7.74974 1.36946 7.84202 1.26069 7.9833C1.15191 8.12457 1.10372 8.30327 1.12671 8.48009C1.14969 8.6569 1.24197 8.81733 1.38325 8.92611C1.52453 9.03488 1.70323 9.08307 1.88004 9.06009L1.87337 9.00009Z" fill="#FF2156"/>
</svg>
