<svg width="21" height="21" viewBox="0 0 21 21" fill="none" xmlns="http://www.w3.org/2000/svg">
<path d="M14.0912 0.916443C17.7913 0.916443 20.0837 3.20973 20.0837 6.91178V14.0993C20.0837 17.7908 17.7913 20.0831 14.0912 20.0831H6.90083C3.20933 20.0831 0.916994 17.7908 0.917955 14.0964C0.917955 13.692 1.2457 13.3633 1.65108 13.3633C2.0555 13.3633 2.3842 13.692 2.3842 14.0964C2.3842 17.004 3.98558 18.614 6.91041 18.614H14.0912C17.0074 18.614 18.6174 17.0126 18.6174 14.0964V6.9089C18.6174 3.99269 17.017 2.38269 14.0912 2.38269H6.90946C3.99325 2.38269 2.38325 3.99269 2.38325 6.9089V9.14278C2.38325 9.54336 2.05837 9.86728 1.65875 9.86728H1.6482C1.24379 9.86728 0.916038 9.53857 0.916994 9.13415V6.9089C0.916994 3.20973 3.22658 0.916443 6.91041 0.916443H14.0912ZM10.4951 9.18293C10.8918 9.18293 11.2138 9.50493 11.2138 9.90168V14.1375C11.2138 14.5343 10.8918 14.8563 10.4951 14.8563C10.0983 14.8563 9.77631 14.5343 9.77631 14.1375V9.90168C9.77631 9.50493 10.0983 9.18293 10.4951 9.18293ZM10.5049 6.14329C10.9017 6.14329 11.2237 6.46529 11.2237 6.86204C11.2237 7.25879 10.9017 7.58079 10.5049 7.58079H10.4953C10.0986 7.58079 9.78139 7.25879 9.78139 6.86204C9.78139 6.46529 10.1082 6.14329 10.5049 6.14329Z" fill="#FF2156"/>
</svg>
