<svg width="22" height="22" viewBox="0 0 22 22" fill="none" xmlns="http://www.w3.org/2000/svg">
<path d="M11 0.160321C6.73726 0.1025 2.62993 2.84591 1.01301 6.78366C-0.675874 10.6526 0.20165 15.4589 3.15592 18.4763C5.9973 21.5348 10.6788 22.6574 14.5995 21.2263C18.6629 19.8427 21.6627 15.8522 21.8258 11.5573C22.0993 7.33702 19.6163 3.12658 15.8146 1.28825C14.3259 0.545352 12.6635 0.157942 11 0.160321ZM11 1.3322C15.2104 1.25897 19.2147 4.2834 20.3018 8.35091C21.4388 12.1819 19.9008 16.6174 16.5997 18.8863C13.1707 21.4068 8.08558 21.2244 4.84742 18.4627C1.58475 15.8613 0.416876 11.0497 2.09084 7.23397C3.54172 3.70647 7.18368 1.28742 11 1.3322ZM6.08255 7.24959V14.7507H15.9175V7.24958H6.08255V7.24959ZM8.26733 8.42151H13.7319C12.764 9.01712 11.796 10.3246 10.8282 10.4673C9.97462 9.78532 9.12097 9.10341 8.26731 8.42151H8.26733ZM14.7471 9.11143V13.5788H7.25301V9.11177C8.50164 10.1097 9.75024 11.1076 10.9989 12.1054C12.2484 11.1075 13.4977 10.1094 14.7471 9.11143Z" fill="#FF2156"/>
</svg>
