<svg width="23" height="23" viewBox="0 0 23 23" fill="none" xmlns="http://www.w3.org/2000/svg">
<path d="M7.63632 19.9921C7.03383 19.9921 6.54541 19.4979 6.54541 18.8881L6.54541 5.64013C6.54541 5.03041 7.03383 4.53613 7.63632 4.53613L15.2727 4.53613C15.8752 4.53613 16.3636 5.03041 16.3636 5.64013L16.3636 18.8881C16.3636 19.4979 15.8752 19.9921 15.2727 19.9921H7.63632Z" fill="#C2CCDE" fill-opacity="0.25"/>
<path d="M13.6363 2.32812L9.27267 2.32813M9.81814 15.0241L13.0909 12.2641L9.81814 12.2641L13.0909 9.50413M16.3636 18.8881L16.3636 5.64013C16.3636 5.03041 15.8752 4.53613 15.2727 4.53613L7.63632 4.53613C7.03383 4.53613 6.54541 5.03041 6.54541 5.64013L6.54541 18.8881C6.54541 19.4979 7.03383 19.9921 7.63632 19.9921H15.2727C15.8752 19.9921 16.3636 19.4979 16.3636 18.8881Z" stroke="#414141" stroke-linecap="round" stroke-linejoin="round"/>
</svg>
