<svg width="19" height="18" viewBox="0 0 19 18" fill="none" xmlns="http://www.w3.org/2000/svg">
<path d="M9 1.17496e-06C4.03725 1.17496e-06 0 4.03725 0 9C0 13.9628 4.03725 18 9 18C12.0375 18 14.73 16.491 16.3597 14.1795L15.141 13.3125C14.4492 14.2985 13.5297 15.1031 12.4607 15.658C11.3916 16.2129 10.2045 16.5017 9 16.5C4.84875 16.5 1.5 13.1512 1.5 9C1.5 4.84875 4.84875 1.5 9 1.5C10.2044 1.4986 11.3915 1.78757 12.4605 2.34245C13.5295 2.89732 14.449 3.70173 15.141 4.6875L16.3597 3.8205C15.5298 2.63967 14.4277 1.67602 13.1467 1.01104C11.8656 0.346047 10.4433 -0.000736671 9 1.17496e-06ZM14.508 5.46075L13.4295 6.53925L15.141 8.25H6V9.75H15.141L13.4295 11.4608L14.508 12.5393L17.508 9.53925L18.0225 9L17.5072 8.46075L14.508 5.46075Z" fill="#FF2156"/>
</svg>
