<svg width="16" height="22" viewBox="0 0 16 22" fill="none" xmlns="http://www.w3.org/2000/svg">
<path d="M7.99983 1.21756C8.64026 2.74906 9.73193 5.08225 11.926 7.77261C13.3607 9.53285 14.6955 11.9202 14.6955 14.3881C14.6955 18.4282 11.8183 21.1288 7.99983 21.1288C4.18124 21.1288 1.3042 18.4299 1.3042 14.3881C1.3042 12.0201 2.64223 9.5288 4.07367 7.77261C6.26772 5.08225 7.35939 2.74905 7.99983 1.21756Z" stroke="#FF2156" stroke-width="1.5"/>
<path d="M8.50128 14.2027L8.50126 14.2027C7.52515 16.0593 8.30734 17.3941 9.18516 17.6884L9.18534 17.6885C9.80805 17.8976 10.3255 17.781 10.7371 17.4539C11.1677 17.1117 11.5229 16.5035 11.6961 15.6753L8.50128 14.2027ZM8.50128 14.2027C9.03434 13.1886 9.3102 12.1776 9.51385 11.4314M8.50128 14.2027L9.51385 11.4314M9.51385 11.4314C9.54931 11.3014 9.58258 11.1795 9.61464 11.0669M9.51385 11.4314L9.61464 11.0669M9.61464 11.0669C9.7196 10.6985 9.7984 10.4823 9.86754 10.3671M9.61464 11.0669L9.86754 10.3671M9.86754 10.3671C10.0764 10.4679 10.3264 10.6731 10.584 10.9942C10.8545 11.3313 11.1118 11.7697 11.3199 12.2751C11.7379 13.2901 11.9367 14.5232 11.6962 15.6752L9.86754 10.3671Z" stroke="#FF2156"/>
</svg>
