<svg width="18" height="18" viewBox="0 0 18 18" fill="none" xmlns="http://www.w3.org/2000/svg">
<path d="M4.875 0.669556L0.0625 3.07581V17.25H17.9375V4.87499H9.6875V3.07581L4.875 0.669556ZM4.875 2.20543L8.3125 3.92418V15.875H1.4375V3.92418L4.875 2.20543ZM2.8125 4.87499V6.24999H4.1875V4.87499H2.8125ZM5.5625 4.87499V6.24999H6.9375V4.87499H5.5625ZM9.6875 6.24999H16.5625V15.875H9.6875V6.24999ZM2.8125 7.62499V8.99999H4.1875V7.62499H2.8125ZM5.5625 7.62499V8.99999H6.9375V7.62499H5.5625ZM11.0625 7.62499V8.99999H12.4375V7.62499H11.0625ZM13.8125 7.62499V8.99999H15.1875V7.62499H13.8125ZM2.8125 10.375V11.75H4.1875V10.375H2.8125ZM5.5625 10.375V11.75H6.9375V10.375H5.5625ZM11.0625 10.375V11.75H12.4375V10.375H11.0625ZM13.8125 10.375V11.75H15.1875V10.375H13.8125ZM2.8125 13.125V14.5H4.1875V13.125H2.8125ZM5.5625 13.125V14.5H6.9375V13.125H5.5625ZM11.0625 13.125V14.5H12.4375V13.125H11.0625ZM13.8125 13.125V14.5H15.1875V13.125H13.8125Z" fill="#FF2156"/>
</svg>
