<svg width="18" height="18" viewBox="0 0 18 18" fill="none" xmlns="http://www.w3.org/2000/svg">
<path d="M13.8001 0.599976C14.7184 0.599924 15.6019 0.950766 16.27 1.58072C16.9381 2.21067 17.3402 3.0721 17.3941 3.98878L17.4001 4.19998V9.45478C17.4 10.0182 17.2016 10.5637 16.8397 10.9956L16.6969 11.1516L11.1517 16.6968C10.7533 17.0952 10.2274 17.3407 9.6661 17.3904L9.4549 17.4H4.2001C3.28184 17.4 2.39828 17.0492 1.73018 16.4192C1.06209 15.7893 0.659969 14.9278 0.606098 14.0112L0.600098 13.8V4.19998C0.600047 3.28172 0.950888 2.39816 1.58084 1.73006C2.21079 1.06197 3.07223 0.659847 3.9889 0.605976L4.2001 0.599976H13.8001ZM13.8001 1.79998H4.2001C3.59461 1.79978 3.01142 2.02846 2.56744 2.44017C2.12346 2.85188 1.85151 3.41619 1.8061 4.01998L1.8001 4.19998V13.8C1.79991 14.4055 2.02859 14.9887 2.44029 15.4326C2.852 15.8766 3.41631 16.1486 4.0201 16.194L4.2001 16.2H9.0001V12.6C9.00005 11.6817 9.35089 10.7982 9.98084 10.1301C10.6108 9.46197 11.4722 9.05985 12.3889 9.00598L12.6001 8.99998H16.2001V4.19998C16.2003 3.59448 15.9716 3.0113 15.5599 2.56732C15.1482 2.12334 14.5839 1.85139 13.9801 1.80598L13.8001 1.79998ZM15.9397 10.2012L12.6001 10.2C11.9946 10.1998 11.4114 10.4285 10.9674 10.8402C10.5235 11.2519 10.2515 11.8162 10.2061 12.42L10.2001 12.6V15.9372L10.3033 15.8484L15.8485 10.3032C15.8809 10.2708 15.9109 10.2372 15.9385 10.2012H15.9397Z" fill="#FF2156"/>
</svg>
