<svg width="20" height="20" viewBox="0 0 20 20" fill="none" xmlns="http://www.w3.org/2000/svg">
<path d="M17.4998 19.75H17.3723C2.63482 18.9025 0.542319 6.4675 0.249819 2.6725C0.226251 2.37744 0.261136 2.08062 0.352476 1.79906C0.443815 1.5175 0.589814 1.25673 0.782108 1.03169C0.974401 0.80665 1.20921 0.621766 1.47308 0.48763C1.73695 0.353493 2.02469 0.272741 2.31982 0.250001H6.45232C6.75274 0.24971 7.04632 0.339633 7.29504 0.508122C7.54377 0.676611 7.73617 0.915903 7.84732 1.195L8.98732 4C9.09708 4.27266 9.12432 4.57156 9.06565 4.85957C9.00698 5.14758 8.86499 5.412 8.65732 5.62L7.05982 7.2325C7.30936 8.65056 7.98846 9.95775 9.00524 10.9772C10.022 11.9967 11.3274 12.6792 12.7448 12.9325L14.3723 11.32C14.5834 11.1146 14.8504 10.9759 15.1398 10.9213C15.4292 10.8666 15.7283 10.8983 15.9998 11.0125L18.8273 12.145C19.1022 12.2597 19.3367 12.4536 19.501 12.702C19.6653 12.9504 19.7519 13.2422 19.7498 13.54V17.5C19.7498 18.0967 19.5128 18.669 19.0908 19.091C18.6689 19.5129 18.0966 19.75 17.4998 19.75ZM2.49982 1.75C2.30091 1.75 2.11014 1.82902 1.96949 1.96967C1.82884 2.11032 1.74982 2.30109 1.74982 2.5V2.56C2.09482 7 4.30732 17.5 17.4548 18.25C17.5534 18.2561 17.6521 18.2427 17.7454 18.2105C17.8388 18.1783 17.9248 18.1281 17.9987 18.0626C18.0726 17.9971 18.1328 17.9176 18.1759 17.8288C18.219 17.74 18.2441 17.6436 18.2498 17.545V13.54L15.4223 12.4075L13.2698 14.545L12.9098 14.5C6.38482 13.6825 5.49982 7.1575 5.49982 7.09L5.45482 6.73L7.58482 4.5775L6.45982 1.75H2.49982Z" fill="#FF2156"/>
</svg>
