<?xml version="1.0" encoding="iso-8859-1"?>
<!-- Uploaded to: SVG Repo, www.svgrepo.com, Generator: SVG Repo Mixer Tools -->
<svg height="800px" width="800px" version="1.1" id="Layer_1" xmlns="http://www.w3.org/2000/svg" xmlns:xlink="http://www.w3.org/1999/xlink" 
	 viewBox="0 0 400.76 400.76" xml:space="preserve">
<g>
	<path style="fill:#EA4262;" d="M366.383,234.76c0,42.48-16.2,84.97-48.62,117.38s-74.9,48.62-117.38,48.62
		c-42.43,0-84.86-16.16-117.25-48.48l-0.14-0.139c-64.82-64.83-64.82-169.93,0-234.76L200.382,0l117.38,117.38
		C350.182,149.79,366.383,192.28,366.383,234.76"/>
	<path style="fill:#F17D93;" d="M200.382,0L82.992,117.38c-32.41,32.415-48.615,74.898-48.615,117.38s16.205,84.965,48.615,117.38
		l0.14,0.139l14.85-14.85c-0.047-0.046-0.094-0.093-0.14-0.14c-27.38-27.38-42.47-63.8-42.47-102.53s15.09-75.14,42.47-102.53
		L200.382,29.7V0"/>
	<path style="fill:#FF5069;" d="M302.913,337.29c-27.39,27.39-63.8,42.471-102.531,42.471c-17.559,0-34.639-3.101-50.63-9.041
		c-19.27-7.17-36.94-18.459-51.91-33.43c-27.38-27.38-42.47-63.8-42.47-102.53s15.09-75.14,42.47-102.53L200.382,29.7
		l102.531,102.531C359.452,188.76,359.452,280.76,302.913,337.29"/>
	<polyline style="fill:#E6E6E6;" points="273.243,205.406 273.243,256.113 225.701,256.113 225.701,303.659 174.989,303.659 
		174.989,256.113 127.448,256.113 127.448,205.406 174.989,205.406 174.989,157.864 225.701,157.864 225.701,205.406 
		273.243,205.406 	"/>
	<path style="fill:#FF8697;" d="M251.912,81.23l-27.044,76.634h0.833v47.542h47.542v50.707h-47.542v47.546h-50.712v-4.453
		l-25.237,71.514c15.991,5.94,33.071,9.041,50.63,9.041c38.731,0,75.14-15.08,102.531-42.471
		c28.27-28.265,42.405-65.397,42.405-102.53s-14.135-74.265-42.405-102.53L251.912,81.23"/>
	<polyline style="fill:#EEEEEE;" points="225.701,157.864 224.869,157.864 174.989,299.206 174.989,303.659 225.701,303.659 
		225.701,256.113 273.243,256.113 273.243,205.406 225.701,205.406 225.701,157.864 	"/>
</g>
</svg>