<svg width="29" height="12" viewBox="0 0 29 12" fill="none" xmlns="http://www.w3.org/2000/svg">
<path d="M0.765508 11V0.64H7.59751V1.844H2.13751V5.26H6.95351V6.464H2.13751V11H0.765508ZM10.3529 2.166C10.1009 2.166 9.89088 2.082 9.72288 1.914C9.56422 1.746 9.48488 1.54533 9.48488 1.312C9.48488 1.06933 9.56422 0.863999 9.72288 0.695999C9.89088 0.528 10.1009 0.444 10.3529 0.444C10.5955 0.444 10.8009 0.528 10.9689 0.695999C11.1369 0.863999 11.2209 1.06933 11.2209 1.312C11.2209 1.54533 11.1369 1.746 10.9689 1.914C10.8009 2.082 10.5955 2.166 10.3529 2.166ZM9.69488 11V3.58H11.0249V11H9.69488ZM13.1763 11V3.58H14.5063V4.658H14.5903C14.6556 4.546 14.763 4.392 14.9123 4.196C15.071 4 15.295 3.82733 15.5843 3.678C15.8736 3.51933 16.2376 3.44 16.6763 3.44C17.2176 3.44 17.6796 3.566 18.0623 3.818C18.445 4.06067 18.7343 4.392 18.9303 4.812C19.1356 5.232 19.2383 5.70333 19.2383 6.226V11H17.9083V6.31C17.9083 5.81533 17.7683 5.40467 17.4883 5.078C17.2176 4.75133 16.821 4.588 16.2983 4.588C15.8783 4.588 15.5376 4.69533 15.2763 4.91C15.015 5.11533 14.819 5.39067 14.6883 5.736C14.567 6.072 14.5063 6.43133 14.5063 6.814V11H13.1763ZM24.4217 11.14C23.8617 11.14 23.3717 11.0327 22.9517 10.818C22.5317 10.594 22.1817 10.3 21.9017 9.936C21.6217 9.56267 21.4117 9.14733 21.2717 8.69C21.1317 8.23267 21.0617 7.766 21.0617 7.29C21.0617 6.814 21.1317 6.34733 21.2717 5.89C21.4117 5.43267 21.6217 5.022 21.9017 4.658C22.1817 4.28467 22.5317 3.99067 22.9517 3.776C23.3717 3.552 23.8617 3.44 24.4217 3.44C24.8883 3.44 25.2803 3.51467 25.5977 3.664C25.915 3.81333 26.1717 3.99067 26.3677 4.196C26.5637 4.392 26.713 4.57867 26.8157 4.756H26.8997V0.359999H28.2297V11H26.8997V9.824H26.8157C26.713 10.0013 26.5637 10.1927 26.3677 10.398C26.1717 10.6033 25.915 10.7807 25.5977 10.93C25.2803 11.07 24.8883 11.14 24.4217 11.14ZM24.6457 10.006C25.1403 10.006 25.551 9.87533 25.8777 9.614C26.2137 9.34333 26.461 9.00267 26.6197 8.592C26.7877 8.172 26.8717 7.738 26.8717 7.29C26.8717 6.83267 26.7877 6.39867 26.6197 5.988C26.461 5.57733 26.2137 5.24133 25.8777 4.98C25.551 4.70933 25.1403 4.574 24.6457 4.574C24.151 4.574 23.7357 4.70933 23.3997 4.98C23.0637 5.24133 22.8117 5.57733 22.6437 5.988C22.485 6.39867 22.4057 6.83267 22.4057 7.29C22.4057 7.738 22.485 8.172 22.6437 8.592C22.8117 9.00267 23.0637 9.34333 23.3997 9.614C23.7357 9.87533 24.151 10.006 24.6457 10.006Z" fill="#FBFBFB"/>
</svg>
