<svg width="12" height="17" viewBox="0 0 12 17" fill="none" xmlns="http://www.w3.org/2000/svg">
<path d="M5.59346 0C2.51269 0 0 2.51269 0 5.59346C0 6.46744 0.354447 7.47008 0.835134 8.56498C1.31582 9.65988 1.93489 10.8228 2.56367 11.9055C3.82123 14.0735 5.08849 15.887 5.08849 15.887L5.59346 16.625L6.09842 15.887C6.09842 15.887 7.36569 14.0735 8.62325 11.9055C9.25203 10.8228 9.87109 9.65988 10.3518 8.56498C10.8325 7.47008 11.1869 6.46744 11.1869 5.59346C11.1869 2.51269 8.67423 0 5.59346 0ZM5.59346 1.24299C8.00418 1.24299 9.94393 3.18274 9.94393 5.59346C9.94393 6.09114 9.67688 7.03309 9.22532 8.06002C8.77377 9.08694 8.14984 10.2255 7.53563 11.284C6.55969 12.9689 5.95276 13.8598 5.59346 14.3915C5.23416 13.8598 4.62723 12.9689 3.65129 11.284C3.03707 10.2255 2.41315 9.08694 1.96159 8.06002C1.51004 7.03309 1.24299 6.09114 1.24299 5.59346C1.24299 3.18274 3.18274 1.24299 5.59346 1.24299ZM5.59346 4.35047C4.90641 4.35047 4.35047 4.90641 4.35047 5.59346C4.35047 6.2805 4.90641 6.83645 5.59346 6.83645C6.2805 6.83645 6.83645 6.2805 6.83645 5.59346C6.83645 4.90641 6.2805 4.35047 5.59346 4.35047Z" fill="white"/>
</svg>
