<svg width="26" height="28" viewBox="0 0 26 28" fill="none" xmlns="http://www.w3.org/2000/svg">
<path d="M12.9999 27.5667C13.5249 27.5546 14.0286 27.3572 14.4221 27.0095C14.8156 26.6618 15.0734 26.1862 15.1499 25.6667H10.7666C10.8453 26.2003 11.1152 26.6871 11.526 27.0366C11.9368 27.3861 12.4606 27.5745 12.9999 27.5667Z" fill="#272A2F"/>
<path d="M25.0915 22.1917C24.2879 21.4753 23.5844 20.654 22.9998 19.75C22.3617 18.5021 21.9792 17.1394 21.8748 15.7417V11.625C21.8715 11.125 21.8269 10.6261 21.7415 10.1334C21.0856 10.0022 20.4552 9.76585 19.8748 9.43335C20.0961 10.1457 20.2085 10.8874 20.2082 11.6334V15.75C20.3103 17.455 20.7793 19.1179 21.5832 20.625C22.1585 21.5367 22.8412 22.376 23.6165 23.125H2.27484C3.05018 22.376 3.73284 21.5367 4.30817 20.625C5.11201 19.1179 5.58103 17.455 5.68317 15.75V11.625C5.67878 10.6606 5.86468 9.70477 6.23021 8.81229C6.59573 7.9198 7.13372 7.10818 7.81335 6.42391C8.49298 5.73963 9.30092 5.19613 10.1909 4.82453C11.0809 4.45293 12.0354 4.26054 12.9998 4.25835C14.4113 4.25948 15.7911 4.6769 16.9665 5.45835C16.8369 4.98251 16.7642 4.49298 16.7498 4.00002V3.47502C15.8797 3.04699 14.9449 2.76543 13.9832 2.64169V1.59169C13.9832 1.29663 13.866 1.01367 13.6573 0.805031C13.4487 0.596397 13.1657 0.479187 12.8707 0.479187C12.5756 0.479187 12.2926 0.596397 12.084 0.805031C11.8754 1.01367 11.7582 1.29663 11.7582 1.59169V2.68335C9.6046 2.98715 7.63365 4.05981 6.20919 5.7033C4.78473 7.34679 4.00294 9.45014 4.00817 11.625V15.7417C3.9038 17.1394 3.52132 18.5021 2.88317 19.75C2.30891 20.652 1.61667 21.4731 0.824837 22.1917C0.735947 22.2698 0.664705 22.3659 0.615852 22.4737C0.566998 22.5814 0.541654 22.6984 0.541504 22.8167V23.95C0.541504 24.171 0.629301 24.383 0.785582 24.5393C0.941862 24.6956 1.15382 24.7834 1.37484 24.7834H24.5415C24.7625 24.7834 24.9745 24.6956 25.1308 24.5393C25.287 24.383 25.3748 24.171 25.3748 23.95V22.8167C25.3747 22.6984 25.3493 22.5814 25.3005 22.4737C25.2516 22.3659 25.1804 22.2698 25.0915 22.1917Z" fill="#272A2F"/>
</svg>
