<svg width="28" height="45" viewBox="0 0 28 45" fill="none" xmlns="http://www.w3.org/2000/svg">
<path d="M13.8794 0C6.21243 0 0 6.18745 0 13.8517C0 27.1038 13.8794 44.3864 13.8794 44.3864C13.8794 44.3864 27.7589 27.101 27.7589 13.8517C27.7589 6.19023 21.5464 0 13.8794 0ZM13.8794 21.5159C11.8917 21.5159 9.98531 20.7263 8.57974 19.3207C7.17418 17.9151 6.38454 16.0088 6.38454 14.021C6.38454 12.0332 7.17418 10.1269 8.57974 8.72131C9.98531 7.31575 11.8917 6.52611 13.8794 6.52611C15.8672 6.52611 17.7736 7.31575 19.1791 8.72131C20.5847 10.1269 21.3743 12.0332 21.3743 14.021C21.3743 16.0088 20.5847 17.9151 19.1791 19.3207C17.7736 20.7263 15.8672 21.5159 13.8794 21.5159Z" fill="#FF2156"/>
</svg>
