<svg width="16" height="24" viewBox="0 0 16 24" fill="none" xmlns="http://www.w3.org/2000/svg">
<path d="M8 1.70867C8.71255 3.39712 9.88535 5.80196 12.0599 8.53942C13.5899 10.4665 15 13.0649 15 15.7375C15 20.1209 11.9734 23 8 23C4.02643 23 1 20.1228 1 15.7375C1 13.1745 2.41421 10.4613 3.93989 8.53963L8 1.70867ZM8 1.70867C7.28745 3.39712 6.11465 5.80196 3.94006 8.53942L8 1.70867Z" stroke="white" stroke-width="2"/>
<path d="M8.85012 16.5615L8.85011 16.5615C8.08179 18.0229 8.71249 19.0224 9.34655 19.235L9.34673 19.2351C9.81849 19.3935 10.2012 19.3047 10.5067 19.0619C10.8312 18.8041 11.1089 18.3367 11.2454 17.6839L8.85012 16.5615ZM8.85012 16.5615C9.28529 15.7337 9.51068 14.9073 9.6747 14.3059M8.85012 16.5615L9.6747 14.3059M9.6747 14.3059C9.70311 14.2017 9.72969 14.1043 9.75519 14.0148M9.6747 14.3059L9.75519 14.0148M9.75519 14.0148C9.81778 13.7951 9.86699 13.6501 9.90717 13.5574M9.75519 14.0148L9.90717 13.5574M9.90717 13.5574C10.0422 13.6413 10.2012 13.7823 10.368 13.9902C10.5796 14.2539 10.7825 14.5991 10.9473 14.9992C11.2786 15.8037 11.4346 16.7779 11.2454 17.6838L9.90717 13.5574ZM9.79501 13.4981L9.79537 13.4973L9.79436 13.4971C9.79141 13.4965 9.78985 13.496 9.78984 13.496C9.78983 13.4961 9.79149 13.4966 9.79501 13.4981Z" stroke="white"/>
</svg>
