<svg width="18" height="20" viewBox="0 0 18 20" fill="none" xmlns="http://www.w3.org/2000/svg">
<path d="M7.9695 0.410014C8.248 0.146709 8.61673 0 9 0C9.38327 0 9.752 0.146709 10.0305 0.410014L17.2965 7.28001C17.7465 7.70451 18 8.29551 18 8.91501V17.2685C18 17.8652 17.7629 18.4375 17.341 18.8595C16.919 19.2815 16.3467 19.5185 15.75 19.5185H12.75C12.1533 19.5185 11.581 19.2815 11.159 18.8595C10.7371 18.4375 10.5 17.8652 10.5 17.2685V13.5185C10.5 13.3196 10.421 13.1288 10.2803 12.9882C10.1397 12.8475 9.94891 12.7685 9.75 12.7685H8.25C8.05109 12.7685 7.86032 12.8475 7.71967 12.9882C7.57902 13.1288 7.5 13.3196 7.5 13.5185V17.2685C7.5 17.8652 7.26295 18.4375 6.84099 18.8595C6.41903 19.2815 5.84674 19.5185 5.25 19.5185H2.25C1.65326 19.5185 1.08097 19.2815 0.65901 18.8595C0.237053 18.4375 0 17.8652 0 17.2685V8.91351C0 8.29551 0.255 7.70451 0.705 7.27851L7.9695 0.410014V0.410014ZM9 1.50051L1.734 8.37051C1.66024 8.44044 1.60146 8.52464 1.56123 8.61798C1.52101 8.71132 1.50017 8.81187 1.5 8.91351V17.2685C1.5 17.4674 1.57902 17.6582 1.71967 17.7988C1.86032 17.9395 2.05109 18.0185 2.25 18.0185H5.25C5.44891 18.0185 5.63968 17.9395 5.78033 17.7988C5.92098 17.6582 6 17.4674 6 17.2685V13.5185C6 12.9218 6.23705 12.3495 6.65901 11.9275C7.08097 11.5056 7.65326 11.2685 8.25 11.2685H9.75C10.3467 11.2685 10.919 11.5056 11.341 11.9275C11.7629 12.3495 12 12.9218 12 13.5185V17.2685C12 17.4674 12.079 17.6582 12.2197 17.7988C12.3603 17.9395 12.5511 18.0185 12.75 18.0185H15.75C15.9489 18.0185 16.1397 17.9395 16.2803 17.7988C16.421 17.6582 16.5 17.4674 16.5 17.2685V8.91351C16.5 8.81162 16.4793 8.71079 16.4391 8.61717C16.3988 8.52355 16.3399 8.43912 16.266 8.36901L9 1.50051Z" fill="#B3B3B3"/>
</svg>
