<svg width="19" height="23" viewBox="0 0 19 23" fill="none" xmlns="http://www.w3.org/2000/svg">
<path d="M14.6572 7.20547C14.6572 5.82243 14.1231 4.49604 13.1722 3.51809C12.2214 2.54013 10.9319 1.99072 9.58727 1.99072C8.24265 1.99072 6.9531 2.54013 6.00231 3.51809C5.05152 4.49604 4.51737 5.82243 4.51737 7.20547C4.51737 13.2894 1.98242 15.0276 1.98242 15.0276H17.1921C17.1921 15.0276 14.6572 13.2894 14.6572 7.20547Z" stroke="#B3B3B3" stroke-width="2.21833" stroke-linecap="round" stroke-linejoin="round"/>
<path d="M11.3025 20.1687C11.1142 20.4934 10.8439 20.7628 10.5187 20.9501C10.1935 21.1374 9.82478 21.2361 9.44946 21.2361C9.07415 21.2361 8.70547 21.1374 8.38028 20.9501C8.05509 20.7628 7.78474 20.4934 7.59644 20.1687" stroke="#B3B3B3" stroke-width="2.21833" stroke-linecap="round" stroke-linejoin="round"/>
</svg>
