<svg width="414" height="273" viewBox="0 0 414 273" fill="none" xmlns="http://www.w3.org/2000/svg">
<path d="M84 100C-22.8 -8.40003 -96.8333 8.8333 -120.5 31V309.5L424.5 297V16C355.5 89.1666 190.8 208.4 84 100Z" fill="#F8577D" fill-opacity="0.25"/>
<path d="M111.152 85.5171C-18.9673 -22.874 -109.166 -5.64207 -138 16.5228V295L526 282.501V1.52402C441.934 74.6847 241.272 193.908 111.152 85.5171Z" fill="#FF3767" fill-opacity="0.7"/>
<path d="M271.631 99.5171C373.14 -8.87399 443.506 8.35793 466 30.5228V309L-52 296.501V15.524C13.5817 88.6847 170.122 207.908 271.631 99.5171Z" fill="#FF5F85" fill-opacity="0.35"/>
<path d="M190.969 121.493C115.709 13.1016 16.6774 68.8307 0 90.9956V348L414 335.5V34C365.377 107.161 266.228 229.885 190.969 121.493Z" fill="#FF5F85" fill-opacity="0.3"/>
<path d="M268.924 121.493C162.942 13.1016 23.4854 68.8307 0 90.9956V348L583 335.5V34C514.529 107.161 374.906 229.885 268.924 121.493Z" fill="#FF5F85" fill-opacity="0.3"/>
</svg>
